<svg id="Capa_1" data-name="Capa 1" xmlns="http://www.w3.org/2000/svg" xmlns:xlink="http://www.w3.org/1999/xlink" viewBox="0 0 27.15 363.94"><defs><style>.cls-1{fill:url(#Degradado_sin_nombre);}.cls-2{opacity:0.75;}.cls-3{fill:#fff;}.cls-4{fill:url(#Degradado_sin_nombre_2);}.cls-5{fill:url(#Degradado_sin_nombre_3);}.cls-6{fill:url(#Degradado_sin_nombre_4);}.cls-7{fill:url(#Degradado_sin_nombre_5);}.cls-8{fill:url(#Degradado_sin_nombre_6);}</style><linearGradient id="Degradado_sin_nombre" x1="-147.76" y1="49.01" x2="-178.66" y2="365.8" gradientTransform="matrix(0, 1, 1, 0, -382.77, 350.68)" gradientUnits="userSpaceOnUse"><stop offset="0" stop-color="#a6a8ab"/><stop offset="0.22" stop-color="#aaacaf"/><stop offset="0.46" stop-color="#b8b9bc"/><stop offset="0.71" stop-color="#cdced0"/><stop offset="0.96" stop-color="#ececed"/><stop offset="1" stop-color="#f1f1f2"/></linearGradient><linearGradient id="Degradado_sin_nombre_2" x1="-150.3" y1="41.56" x2="-181.2" y2="358.34" gradientTransform="matrix(0, 1, 1, 0, -376.9, 357.06)" xlink:href="#Degradado_sin_nombre"/><linearGradient id="Degradado_sin_nombre_3" x1="-152.95" y1="39.06" x2="-183.85" y2="355.84" gradientTransform="matrix(0, 1, 1, 0, -377.28, 361.94)" gradientUnits="userSpaceOnUse"><stop offset="0" stop-color="#a6a8ab"/><stop offset="0.26" stop-color="#b5b7b9"/><stop offset="0.77" stop-color="#dddedf"/><stop offset="1" stop-color="#f1f1f2"/></linearGradient><linearGradient id="Degradado_sin_nombre_4" x1="-155.88" y1="36.21" x2="-186.78" y2="352.99" gradientTransform="matrix(0, 1, 1, 0, -377.62, 367.42)" gradientUnits="userSpaceOnUse"><stop offset="0" stop-color="#a6a8ab"/><stop offset="0.24" stop-color="#c1c3c5"/><stop offset="0.53" stop-color="#dcdcde"/><stop offset="0.8" stop-color="#ebeced"/><stop offset="1" stop-color="#f1f1f2"/></linearGradient><linearGradient id="Degradado_sin_nombre_5" x1="-159.11" y1="33.33" x2="-190.01" y2="350.11" gradientTransform="matrix(0, 1, 1, 0, -378.25, 373.2)" xlink:href="#Degradado_sin_nombre_4"/><linearGradient id="Degradado_sin_nombre_6" x1="-161.72" y1="30.51" x2="-192.62" y2="347.29" gradientTransform="matrix(0, 1, 1, 0, -378.3, 378.37)" gradientUnits="userSpaceOnUse"><stop offset="0" stop-color="#a6a8ab"/><stop offset="0.13" stop-color="#bdbec0"/><stop offset="0.31" stop-color="#d4d4d6"/><stop offset="0.51" stop-color="#e4e5e6"/><stop offset="0.72" stop-color="#eeeeef"/><stop offset="1" stop-color="#f1f1f2"/></linearGradient></defs><title>act_8_2</title><g id="Capa_1-2" data-name="Capa 1"><rect class="cls-1" x="-316.91" y="-0.63" width="283.1" height="376.2" transform="translate(-342.46 -7.4) rotate(-83.7)"/><g class="cls-2"><rect class="cls-3" x="-316.91" y="-0.63" width="283.1" height="376.2" transform="translate(-342.46 -7.4) rotate(-83.7)"/></g><rect class="cls-4" x="-318.5" y="3.21" width="283.1" height="376.2" transform="translate(-350.18 -3.38) rotate(-84.43)"/><g class="cls-2"><rect class="cls-3" x="-318.5" y="3.21" width="283.1" height="376.2" transform="translate(-350.18 -3.38) rotate(-84.43)"/></g><rect class="cls-5" x="-321.38" y="5.44" width="283.1" height="376.2" transform="translate(-355 -4.23) rotate(-84.43)"/><g class="cls-2"><rect class="cls-3" x="-321.38" y="5.44" width="283.1" height="376.2" transform="translate(-355 -4.23) rotate(-84.43)"/></g><rect class="cls-6" x="-324.57" y="7.99" width="283.1" height="376.2" transform="translate(-360.42 -5.1) rotate(-84.43)"/><g class="cls-2"><rect class="cls-3" x="-324.57" y="7.99" width="283.1" height="376.2" transform="translate(-360.42 -5.1) rotate(-84.43)"/></g><rect class="cls-7" x="-328.07" y="10.54" width="283.1" height="376.2" transform="translate(-366.13 -6.28) rotate(-84.43)"/><g class="cls-2"><rect class="cls-3" x="-328.07" y="10.54" width="283.1" height="376.2" transform="translate(-366.13 -6.28) rotate(-84.43)"/></g><rect class="cls-8" x="-330.95" y="13.1" width="283.1" height="376.2" transform="translate(-371.26 -6.83) rotate(-84.43)"/><g class="cls-2"><rect class="cls-3" x="-330.95" y="13.1" width="283.1" height="376.2" transform="translate(-371.26 -6.83) rotate(-84.43)"/></g></g></svg>