<svg id="Capa_1" data-name="Capa 1" xmlns="http://www.w3.org/2000/svg" viewBox="0 0 420.68 125.87"><defs><style>.cls-1,.cls-2,.cls-3{fill:none;stroke:#bbbdbf;stroke-miterlimit:10;}.cls-1{stroke-width:1.91px;}.cls-2{stroke-width:0.48px;}.cls-3{stroke-width:15.71px;}.cls-4{fill:#fff;}.cls-5{fill:#6d6e70;}</style></defs><title>act_8_1</title><g id="Capa_1-2" data-name="Capa 1"><line class="cls-1" x1="4.31" y1="9.52" x2="417.7" y2="9.52"/><line class="cls-2" x1="4.31" y1="7.12" x2="417.7" y2="7.12"/><line class="cls-1" x1="4.31" y1="77.78" x2="417.7" y2="77.78"/><line class="cls-1" x1="4.31" y1="95.64" x2="417.7" y2="95.64"/><line class="cls-3" x1="4.31" y1="108.4" x2="417.7" y2="108.4"/><path class="cls-4" d="M85.44,105.38l-.19.91h-.1a2.34,2.34,0,0,0-1.48-.52,1.58,1.58,0,0,0-1.35.6,2.89,2.89,0,0,0-.46,1.77,3.08,3.08,0,0,0,.47,1.84,1.59,1.59,0,0,0,1.34.63,3,3,0,0,0,.83-.14,3,3,0,0,0,.77-.41l.1.06-.08.94a3.88,3.88,0,0,1-1.7.42,2.63,2.63,0,0,1-2.08-.84,3.49,3.49,0,0,1-.73-2.39,3.71,3.71,0,0,1,.76-2.47,2.73,2.73,0,0,1,2.17-.87A3.38,3.38,0,0,1,85.44,105.38Z"/><path class="cls-4" d="M87.12,109.4l.07,2h-1l.07-1.94-.06-5,1-.08Z"/><path class="cls-4" d="M91.17,107.06a1.1,1.1,0,0,1,.4.92q0,.18-.06,1.2t-.06,1.17a.38.38,0,0,0,.07.27.29.29,0,0,0,.22.07,1.5,1.5,0,0,0,.3,0l.09.07-.1.56a1.44,1.44,0,0,1-.63.22.77.77,0,0,1-.5-.22.94.94,0,0,1-.23-.52H90.6a3.21,3.21,0,0,1-1,.75,1.57,1.57,0,0,1-1.08-.36,1.19,1.19,0,0,1-.4-1,1.07,1.07,0,0,1,1-1.11l1.58-.35v-.54a.79.79,0,0,0-.18-.56.76.76,0,0,0-.54-.19,1.45,1.45,0,0,0-.68.16,3,3,0,0,0-.75.48l-.08,0-.13-.71a3.13,3.13,0,0,1,1.8-.6A1.63,1.63,0,0,1,91.17,107.06Zm-1.84,2.58a.4.4,0,0,0-.26.14.41.41,0,0,0-.08.29.67.67,0,0,0,.16.47.62.62,0,0,0,.45.17,1.44,1.44,0,0,0,1-.61v-.77Z"/><path class="cls-4" d="M95.44,107l-.14.8h-.13a1.81,1.81,0,0,0-1-.35.71.71,0,0,0-.48.16.52.52,0,0,0-.17.39.51.51,0,0,0,.2.4,3.87,3.87,0,0,0,.64.33A4.65,4.65,0,0,1,95,109a1.24,1.24,0,0,1,.42.4,1,1,0,0,1,.18.62,1.42,1.42,0,0,1-.2.72,1.44,1.44,0,0,1-.59.53,2,2,0,0,1-.94.2,3.57,3.57,0,0,1-1.4-.31l.12-.85.11-.07a2.65,2.65,0,0,0,.64.4,2,2,0,0,0,.64.14.85.85,0,0,0,.51-.17.58.58,0,0,0,.2-.42.45.45,0,0,0-.2-.39,3.25,3.25,0,0,0-.63-.35c-.22-.1-.43-.2-.64-.32a1.4,1.4,0,0,1-.43-.41,1.14,1.14,0,0,1-.17-.64,1.26,1.26,0,0,1,.45-1,1.78,1.78,0,0,1,1.23-.39A3,3,0,0,1,95.44,107Z"/><path class="cls-4" d="M99.33,108.4a.78.78,0,0,0-.18-.59.6.6,0,0,0-.53-.22,1.81,1.81,0,0,0-1.2.6v1.21l.07,2h-1l.07-1.94-.06-5,1-.08v3.06h0a3.23,3.23,0,0,1,1.23-.71,1.67,1.67,0,0,1,1.16.35,1.21,1.21,0,0,1,.39,1v3.3h-1Z"/><path class="cls-4" d="M106.07,107.34a2.5,2.5,0,0,1,.53,1.71,2.75,2.75,0,0,1-.56,1.83,2,2,0,0,1-1.59.64,1.93,1.93,0,0,1-1.5-.6,2.55,2.55,0,0,1-.52-1.72,2.73,2.73,0,0,1,.56-1.83,2,2,0,0,1,1.59-.64A1.84,1.84,0,0,1,106.07,107.34ZM103.38,109a2.68,2.68,0,0,0,.28,1.39,1,1,0,0,0,.86.45,1,1,0,0,0,.85-.38,2,2,0,0,0,.28-1.16,2.68,2.68,0,0,0-.28-1.39.93.93,0,0,0-.85-.45C103.76,107.44,103.38,108,103.38,109Z"/><path class="cls-4" d="M110.2,104.48l-.06.77-.07.06a1.86,1.86,0,0,0-.77-.19.64.64,0,0,0-.55.22,1,1,0,0,0-.2.64v.89h1.18v.07l-.06.58H108.5v1.91l.07,2h-1l.06-1.94v-2h-.69v-.65h.68v-.69a1.69,1.69,0,0,1,.46-1.3,1.82,1.82,0,0,1,1.35-.46A3.31,3.31,0,0,1,110.2,104.48Z"/><path class="cls-4" d="M113.93,106.8a2.46,2.46,0,0,1,.58.19l-.17.85h-.1a2,2,0,0,0-1-.31,1,1,0,0,0-.83.4,1.84,1.84,0,0,0-.3,1.12,2,2,0,0,0,.31,1.2,1,1,0,0,0,.88.42,2.49,2.49,0,0,0,1.07-.3l.09.06-.1.82a3.39,3.39,0,0,1-1.22.23,1.83,1.83,0,0,1-1.47-.62,3.14,3.14,0,0,1,0-3.52,1.94,1.94,0,0,1,1.55-.65A3,3,0,0,1,113.93,106.8Z"/><path class="cls-4" d="M119.37,110.72l-.09.56a1.67,1.67,0,0,1-.65.22.81.81,0,0,1-.47-.21,1,1,0,0,1-.27-.5h-.07a3.09,3.09,0,0,1-1.2.7,1.71,1.71,0,0,1-1.15-.35,1.23,1.23,0,0,1-.39-1v-3.25l1-.09v3.06a.83.83,0,0,0,.17.58.67.67,0,0,0,.52.21,1.73,1.73,0,0,0,1.09-.5v-3.28l1-.09-.07,3.56a.4.4,0,0,0,.06.26.27.27,0,0,0,.21.07,1.61,1.61,0,0,0,.31,0Z"/><path class="cls-4" d="M121,109.4l.07,2h-1l.07-1.94-.06-5,1-.08Z"/><path class="cls-4" d="M124.66,110.48l.1.07-.1.64a2.9,2.9,0,0,1-1,.3,1.5,1.5,0,0,1-.9-.41,1.38,1.38,0,0,1-.28-.92v-2.67h-.63v-.06l.05-.59h.6v-.73l.9-.34.09.08v1h1.28v.07l0,.58h-1.29l-.05,2.51a.8.8,0,0,0,.12.52.68.68,0,0,0,.46.14A1.74,1.74,0,0,0,124.66,110.48Z"/><path class="cls-4" d="M129.61,110.72l-.09.56a1.67,1.67,0,0,1-.65.22.81.81,0,0,1-.47-.21,1,1,0,0,1-.27-.5h-.07a3.09,3.09,0,0,1-1.2.7,1.71,1.71,0,0,1-1.15-.35,1.23,1.23,0,0,1-.39-1v-3.25l1-.09,0,3.06a.87.87,0,0,0,.16.58.7.7,0,0,0,.53.21,1.73,1.73,0,0,0,1.09-.5v-3.28l1-.09-.07,3.56a.4.4,0,0,0,.06.26.27.27,0,0,0,.21.07,1.61,1.61,0,0,0,.31,0Z"/><path class="cls-4" d="M132.75,106.87v1h-.11a1.14,1.14,0,0,0-.37-.05.85.85,0,0,0-.58.23,2.42,2.42,0,0,0-.52.74v.66l.06,2h-1l.07-1.93-.06-2.61,1-.09v.92h.07a1.82,1.82,0,0,1,.6-.69,1.11,1.11,0,0,1,.66-.22Z"/><path class="cls-4" d="M136.69,109.17h-2.81a1.74,1.74,0,0,0,.37,1.16,1.37,1.37,0,0,0,1,.39,2.58,2.58,0,0,0,1.35-.41l.1.06-.15.82a3.63,3.63,0,0,1-1.42.32,2.11,2.11,0,0,1-1.63-.64,2.47,2.47,0,0,1-.58-1.74,2.5,2.5,0,0,1,.58-1.76,2,2,0,0,1,1.57-.65,1.6,1.6,0,0,1,1.75,1.43,1.82,1.82,0,0,1,0,.33,5,5,0,0,1,0,.55Zm-.76-.79a1,1,0,0,0-.22-.71.77.77,0,0,0-.62-.24,1,1,0,0,0-.76.3,1.44,1.44,0,0,0-.4.83h2Z"/><path class="cls-4" d="M140.26,107l-.14.8H140a1.81,1.81,0,0,0-1-.35.71.71,0,0,0-.48.16.52.52,0,0,0-.17.39.51.51,0,0,0,.2.4,3.87,3.87,0,0,0,.64.33,4.65,4.65,0,0,1,.63.32,1.24,1.24,0,0,1,.42.4,1,1,0,0,1,.18.62,1.42,1.42,0,0,1-.2.72,1.44,1.44,0,0,1-.59.53,2,2,0,0,1-.94.2,3.57,3.57,0,0,1-1.4-.31l.12-.85.11-.07a2.65,2.65,0,0,0,.64.4,2,2,0,0,0,.64.14.85.85,0,0,0,.51-.17.58.58,0,0,0,.2-.42.45.45,0,0,0-.2-.39,3.25,3.25,0,0,0-.63-.35c-.22-.1-.43-.2-.64-.32a1.4,1.4,0,0,1-.43-.41,1.14,1.14,0,0,1-.17-.64,1.26,1.26,0,0,1,.45-1,1.78,1.78,0,0,1,1.23-.39A3,3,0,0,1,140.26,107Z"/><path class="cls-4" d="M142,107.87a.53.53,0,0,1,.14.4.58.58,0,0,1-.15.43.53.53,0,0,1-.41.16.61.61,0,0,1-.41-.15.67.67,0,0,1,0-.83.58.58,0,0,1,.43-.16A.47.47,0,0,1,142,107.87Zm0,2.67a.53.53,0,0,1,.14.4.58.58,0,0,1-.15.43.53.53,0,0,1-.41.16.61.61,0,0,1-.41-.15.67.67,0,0,1,0-.83.58.58,0,0,1,.43-.16.5.5,0,0,1,.39.11Z"/><path class="cls-4" d="M148.18,105.26l-.17.94-.16.06a2.82,2.82,0,0,0-.66-.36,1.84,1.84,0,0,0-.65-.13,1.05,1.05,0,0,0-.78.27.83.83,0,0,0-.29.63.73.73,0,0,0,.29.58,5.06,5.06,0,0,0,.91.51c.36.18.65.33.87.47a1.82,1.82,0,0,1,.58.56,1.39,1.39,0,0,1,.24.82,1.72,1.72,0,0,1-.29,1,1.91,1.91,0,0,1-.8.69,2.65,2.65,0,0,1-1.17.25,4.15,4.15,0,0,1-1.8-.43l.13-1,.13-.06a2.77,2.77,0,0,0,.81.53,2.61,2.61,0,0,0,.83.17,1.24,1.24,0,0,0,.83-.27.86.86,0,0,0,.31-.66.73.73,0,0,0-.3-.61,5,5,0,0,0-.92-.53c-.29-.14-.58-.29-.86-.45a2.13,2.13,0,0,1-.57-.55,1.42,1.42,0,0,1-.23-.82,1.68,1.68,0,0,1,.28-1,2,2,0,0,1,.78-.67,2.37,2.37,0,0,1,1.14-.25A3.78,3.78,0,0,1,148.18,105.26Z"/><path class="cls-4" d="M152.34,107.34a2.5,2.5,0,0,1,.53,1.71,2.75,2.75,0,0,1-.56,1.83,2,2,0,0,1-1.59.64,1.93,1.93,0,0,1-1.5-.6,2.55,2.55,0,0,1-.52-1.72,2.73,2.73,0,0,1,.56-1.83,2,2,0,0,1,1.59-.64A1.84,1.84,0,0,1,152.34,107.34ZM149.65,109a2.68,2.68,0,0,0,.28,1.39,1,1,0,0,0,.86.45,1,1,0,0,0,.85-.38,2,2,0,0,0,.28-1.16,2.68,2.68,0,0,0-.28-1.39.93.93,0,0,0-.85-.45C150,107.44,149.65,108,149.65,109Z"/><path class="cls-4" d="M159.35,108.4a.78.78,0,0,0-.18-.59.6.6,0,0,0-.53-.22,1.76,1.76,0,0,0-1.18.58v1.24l0,2h-1l.07-3a.78.78,0,0,0-.18-.59.6.6,0,0,0-.53-.22,1.76,1.76,0,0,0-1.2.6v1.22l.06,2h-1l.06-1.93,0-2.61,1-.09v.67h.07a3.23,3.23,0,0,1,1.23-.71,2,2,0,0,1,.92.2,1.07,1.07,0,0,1,.52.55h.06a3.77,3.77,0,0,1,1.32-.75,1.67,1.67,0,0,1,1.16.35,1.21,1.21,0,0,1,.39,1v1.3l.05,2h-1Z"/><path class="cls-4" d="M164.18,107.06a1.1,1.1,0,0,1,.4.92q0,.18-.06,1.2t-.06,1.17a.43.43,0,0,0,.06.27.32.32,0,0,0,.23.07,1.5,1.5,0,0,0,.3,0l.09.07-.1.56a1.44,1.44,0,0,1-.63.22.77.77,0,0,1-.5-.22.94.94,0,0,1-.23-.52h-.07a3.21,3.21,0,0,1-1,.75,1.6,1.6,0,0,1-1.09-.36,1.23,1.23,0,0,1-.39-1,1.07,1.07,0,0,1,1-1.11l1.58-.35v-.54a.75.75,0,0,0-.19-.56.74.74,0,0,0-.53-.19,1.45,1.45,0,0,0-.68.16,3,3,0,0,0-.75.48l-.08,0-.13-.71a3.13,3.13,0,0,1,1.8-.6A1.63,1.63,0,0,1,164.18,107.06Zm-1.84,2.58a.4.4,0,0,0-.26.14.41.41,0,0,0-.08.29.67.67,0,0,0,.16.47.58.58,0,0,0,.45.17,1.44,1.44,0,0,0,1-.61v-.77Z"/><path class="cls-4" d="M166.89,109.4l.07,2h-1l.07-1.94-.06-5,1-.08Z"/><path class="cls-4" d="M169.13,104.87a.53.53,0,0,1,.14.4.58.58,0,0,1-.15.43.53.53,0,0,1-.41.16.61.61,0,0,1-.41-.15.67.67,0,0,1,0-.83.58.58,0,0,1,.43-.16A.47.47,0,0,1,169.13,104.87Zm-.87,4.68v-2.61l1-.09v4.61h-1Z"/><path class="cls-4" d="M174.56,107.06a1.1,1.1,0,0,1,.4.92q0,.18-.06,1.2t-.06,1.17a.43.43,0,0,0,.06.27.32.32,0,0,0,.23.07,1.5,1.5,0,0,0,.3,0l.09.07-.1.56a1.44,1.44,0,0,1-.63.22.77.77,0,0,1-.5-.22.94.94,0,0,1-.23-.52H174a3.21,3.21,0,0,1-1,.75,1.6,1.6,0,0,1-1.09-.36,1.23,1.23,0,0,1-.39-1,1.07,1.07,0,0,1,1-1.11l1.58-.35v-.54a.75.75,0,0,0-.19-.56.74.74,0,0,0-.53-.19,1.45,1.45,0,0,0-.68.16,3,3,0,0,0-.75.48l-.08,0-.13-.71a3.13,3.13,0,0,1,1.8-.6A1.63,1.63,0,0,1,174.56,107.06Zm-1.84,2.58a.4.4,0,0,0-.26.14.41.41,0,0,0-.08.29.67.67,0,0,0,.16.47.58.58,0,0,0,.45.17,1.44,1.44,0,0,0,1-.61v-.77Z"/><path class="cls-4" d="M179.08,108.4a.78.78,0,0,0-.18-.59.6.6,0,0,0-.53-.22,1.76,1.76,0,0,0-1.2.6v1.22l.06,2h-1l.06-1.93v-2.61l1-.09v.67h.07a3.23,3.23,0,0,1,1.23-.71,1.67,1.67,0,0,1,1.16.35,1.21,1.21,0,0,1,.39,1v3.3h-1Z"/><path class="cls-4" d="M184.79,109.4v1a.58.58,0,0,0,.06.26s.1.07.2.07h.31l.09.07-.1.56a1.44,1.44,0,0,1-.63.22.78.78,0,0,1-.75-.7h-.08c-.17.14-.34.28-.52.41a3.15,3.15,0,0,1-.51.28,1.94,1.94,0,0,1-1.54-.61,2.61,2.61,0,0,1-.53-1.74,2.42,2.42,0,0,1,.6-1.77,2.17,2.17,0,0,1,1.67-.63,4.13,4.13,0,0,1,.78.08v-2.33l1-.08Zm-2.7-1.57a1.77,1.77,0,0,0-.32,1.16,2.18,2.18,0,0,0,.3,1.24,1,1,0,0,0,.84.43,1,1,0,0,0,.48-.12,1.94,1.94,0,0,0,.49-.41v-2.46a2.05,2.05,0,0,0-.88-.23,1.12,1.12,0,0,0-.91.43Z"/><path class="cls-4" d="M191,110.66l-.08.77h-3.3l.07-1.93-.07-4.49h1.06l-.06,4.4v1.16h2.29Z"/><path class="cls-4" d="M194.23,107.06a1.1,1.1,0,0,1,.4.92q0,.18-.06,1.2t-.06,1.17a.43.43,0,0,0,.06.27.32.32,0,0,0,.23.07,1.5,1.5,0,0,0,.3,0l.09.07-.1.56a1.44,1.44,0,0,1-.63.22.77.77,0,0,1-.5-.22.94.94,0,0,1-.23-.52h-.07a3.21,3.21,0,0,1-1,.75,1.6,1.6,0,0,1-1.09-.36,1.23,1.23,0,0,1-.39-1,1.07,1.07,0,0,1,1-1.11l1.58-.35v-.54a.75.75,0,0,0-.19-.56.74.74,0,0,0-.53-.19,1.45,1.45,0,0,0-.68.16,3,3,0,0,0-.75.48l-.08,0-.13-.71a3.13,3.13,0,0,1,1.8-.6A1.63,1.63,0,0,1,194.23,107.06Zm-1.84,2.58a.4.4,0,0,0-.26.14.41.41,0,0,0-.08.29.67.67,0,0,0,.16.47.58.58,0,0,0,.45.17,1.44,1.44,0,0,0,1-.61v-.77Z"/><path class="cls-4" d="M198.27,110.48l.1.07-.1.64a2.9,2.9,0,0,1-1,.3,1.45,1.45,0,0,1-.9-.41,1.38,1.38,0,0,1-.28-.92v-2.67h-.59v-.65h.61v-.73l.9-.34.09.08v1h1.28v.65h-1.29V110a.75.75,0,0,0,.12.52.68.68,0,0,0,.46.14A1.83,1.83,0,0,0,198.27,110.48Z"/><path class="cls-4" d="M199.91,104.87a.53.53,0,0,1,.14.4.58.58,0,0,1-.15.43.53.53,0,0,1-.41.16.61.61,0,0,1-.41-.15.67.67,0,0,1,0-.83.58.58,0,0,1,.43-.16A.47.47,0,0,1,199.91,104.87Zm-.87,4.68v-2.61l1-.09v4.61h-1Z"/><path class="cls-4" d="M204.12,108.4a.78.78,0,0,0-.18-.59.6.6,0,0,0-.53-.22,1.76,1.76,0,0,0-1.2.6v1.22l.06,2h-1l.06-1.93-.05-2.61,1-.09v.67h.07a3.23,3.23,0,0,1,1.23-.71,1.67,1.67,0,0,1,1.16.35,1.24,1.24,0,0,1,.39,1v1.3l.05,2h-1Z"/><path class="cls-4" d="M209.5,107.34a2.5,2.5,0,0,1,.53,1.71,2.71,2.71,0,0,1-.53,1.82,2,2,0,0,1-1.59.64,1.93,1.93,0,0,1-1.5-.6,2.56,2.56,0,0,1-.52-1.72,2.73,2.73,0,0,1,.56-1.83,2,2,0,0,1,1.59-.64A1.81,1.81,0,0,1,209.5,107.34ZM206.81,109a2.68,2.68,0,0,0,.28,1.39,1,1,0,0,0,.86.45,1,1,0,0,0,.85-.38,2,2,0,0,0,.28-1.16,2.68,2.68,0,0,0-.28-1.39.93.93,0,0,0-.85-.45C207.19,107.44,206.81,108,206.81,109Z"/><path class="cls-4" d="M212.74,107.44l.73,2.93h0l.85-2.88.17-.67h1l.11.62.74,2.93h.13l.85-2.88.15-.62h.87l-1.48,4.61h-1l-.85-3.32H215l-1,3.32h-1l-1.25-4.61.93-.05Z"/><path class="cls-4" d="M222,107.34a2.5,2.5,0,0,1,.53,1.71,2.75,2.75,0,0,1-.56,1.83,2,2,0,0,1-1.59.64,1.93,1.93,0,0,1-1.5-.6,2.55,2.55,0,0,1-.52-1.72,2.73,2.73,0,0,1,.56-1.83,2,2,0,0,1,1.59-.64A1.84,1.84,0,0,1,222,107.34ZM219.33,109a2.68,2.68,0,0,0,.28,1.39,1,1,0,0,0,.86.45,1,1,0,0,0,.85-.38,2,2,0,0,0,.28-1.16,2.68,2.68,0,0,0-.28-1.39.93.93,0,0,0-.85-.45C219.71,107.44,219.33,108,219.33,109Z"/><path class="cls-4" d="M225.88,106.87v1h-.11a1.14,1.14,0,0,0-.37-.05.85.85,0,0,0-.58.23,2.42,2.42,0,0,0-.52.74v.66l.06,2h-1l.07-1.93-.06-2.61,1-.09v.92h.07a1.82,1.82,0,0,1,.6-.69,1.11,1.11,0,0,1,.66-.22Z"/><path class="cls-4" d="M227.39,109.4l.07,2h-1l.07-1.94-.06-5,1-.08Zm1.14-.48c.47.68,1.07,1.45,1.79,2.33v.12a5,5,0,0,1-.56.11h-.48a23.39,23.39,0,0,1-1.74-2.47v-.07l1.31-1.68.25-.44h1.11Z"/><path class="cls-4" d="M234.11,109.17H231.3a1.74,1.74,0,0,0,.37,1.16,1.37,1.37,0,0,0,1,.39,2.58,2.58,0,0,0,1.35-.41l.1.06-.15.82a3.63,3.63,0,0,1-1.42.32,2.12,2.12,0,0,1-1.62-.63,2.47,2.47,0,0,1-.58-1.74,2.5,2.5,0,0,1,.58-1.76,2,2,0,0,1,1.57-.65,1.6,1.6,0,0,1,1.75,1.43,1.82,1.82,0,0,1,0,.33,5,5,0,0,1,0,.55Zm-.76-.79a1,1,0,0,0-.22-.71.77.77,0,0,0-.62-.24,1,1,0,0,0-.76.3,1.44,1.44,0,0,0-.4.83h2Z"/><path class="cls-4" d="M237.68,106.87v1h-.11a1.14,1.14,0,0,0-.37-.05.85.85,0,0,0-.58.23,2.26,2.26,0,0,0-.52.74v.66l.06,2h-1l.07-1.93-.06-2.61,1-.09v.92h.07a1.82,1.82,0,0,1,.6-.69,1.11,1.11,0,0,1,.66-.22Z"/><path class="cls-4" d="M240.78,107l-.14.8h-.13a1.81,1.81,0,0,0-1-.35.71.71,0,0,0-.48.16.52.52,0,0,0-.17.39.51.51,0,0,0,.2.4,3.87,3.87,0,0,0,.64.33,4.65,4.65,0,0,1,.63.32,1.24,1.24,0,0,1,.42.4,1,1,0,0,1,.18.62,1.42,1.42,0,0,1-.2.72,1.44,1.44,0,0,1-.59.53,2,2,0,0,1-.94.2,3.57,3.57,0,0,1-1.4-.31l.12-.85.11-.07a2.65,2.65,0,0,0,.64.4,2,2,0,0,0,.64.14.85.85,0,0,0,.51-.17.58.58,0,0,0,.2-.42.45.45,0,0,0-.2-.39,3.25,3.25,0,0,0-.63-.35c-.22-.1-.43-.2-.64-.32a1.4,1.4,0,0,1-.43-.41,1.14,1.14,0,0,1-.17-.64,1.26,1.26,0,0,1,.45-1,1.78,1.78,0,0,1,1.23-.39A3,3,0,0,1,240.78,107Z"/><path class="cls-4" d="M245.85,107.06a1.1,1.1,0,0,1,.4.92q0,.18-.06,1.2t-.06,1.17a.43.43,0,0,0,.06.27.32.32,0,0,0,.23.07,1.5,1.5,0,0,0,.3,0l.09.07-.1.56a1.58,1.58,0,0,1-.63.22.77.77,0,0,1-.5-.22.94.94,0,0,1-.23-.52h-.07a3.21,3.21,0,0,1-1,.75,1.6,1.6,0,0,1-1.09-.36,1.23,1.23,0,0,1-.39-1,1.07,1.07,0,0,1,1-1.11l1.58-.35v-.54a.75.75,0,0,0-.19-.56.74.74,0,0,0-.53-.19,1.45,1.45,0,0,0-.68.16,3,3,0,0,0-.75.48l-.08,0-.13-.71a3.13,3.13,0,0,1,1.8-.6A1.63,1.63,0,0,1,245.85,107.06ZM244,109.64a.4.4,0,0,0-.26.14.41.41,0,0,0-.08.29.67.67,0,0,0,.16.47.58.58,0,0,0,.45.17,1.49,1.49,0,0,0,1-.61v-.77Z"/><path class="cls-4" d="M249.89,110.48l.1.07-.1.64a2.9,2.9,0,0,1-1,.3,1.45,1.45,0,0,1-.9-.41,1.38,1.38,0,0,1-.28-.92v-2.67h-.63v-.06l0-.59h.61v-.73l.9-.34.09.08v1H250v.07l0,.58h-1.29l0,2.51a.75.75,0,0,0,.12.52.68.68,0,0,0,.46.14A1.66,1.66,0,0,0,249.89,110.48Z"/><path class="cls-4" d="M256.84,108.27V109a2.43,2.43,0,0,1-.64,1.83,2.56,2.56,0,0,1-1.87.65,2.46,2.46,0,0,1-1.83-.64,2.34,2.34,0,0,1-.6-1.78V105h1v4a1.73,1.73,0,0,0,.36,1.25,1.44,1.44,0,0,0,1.12.41c1,0,1.49-.52,1.49-1.56l-.05-4.06h1Z"/><path class="cls-4" d="M258.5,110.5a.53.53,0,0,1,.14.4.58.58,0,0,1-.15.43.53.53,0,0,1-.41.16.61.61,0,0,1-.41-.15.67.67,0,0,1,0-.83.58.58,0,0,1,.43-.16A.47.47,0,0,1,258.5,110.5Z"/><path class="cls-4" d="M263.3,105.26l-.17.94-.16.06a3,3,0,0,0-.66-.36,1.84,1.84,0,0,0-.65-.13,1.05,1.05,0,0,0-.78.27.79.79,0,0,0-.29.63.68.68,0,0,0,.29.58,5.06,5.06,0,0,0,.91.51c.36.18.65.33.87.47a1.82,1.82,0,0,1,.58.56,1.39,1.39,0,0,1,.24.82,1.72,1.72,0,0,1-.29,1,1.91,1.91,0,0,1-.8.69,2.65,2.65,0,0,1-1.17.25,4.15,4.15,0,0,1-1.8-.43l.13-1,.13-.06a2.42,2.42,0,0,0,.81.53,2.61,2.61,0,0,0,.83.17,1.24,1.24,0,0,0,.83-.27.9.9,0,0,0,.31-.66.73.73,0,0,0-.3-.61,5,5,0,0,0-.92-.53c-.3-.14-.58-.29-.86-.45a2.13,2.13,0,0,1-.57-.55,1.42,1.42,0,0,1-.23-.82,1.68,1.68,0,0,1,.28-1,1.75,1.75,0,0,1,.78-.67,2.37,2.37,0,0,1,1.14-.25A3.78,3.78,0,0,1,263.3,105.26Z"/><path class="cls-4" d="M264.65,110.5a.53.53,0,0,1,.14.4.58.58,0,0,1-.15.43.53.53,0,0,1-.41.16.56.56,0,0,1-.41-.15.67.67,0,0,1,0-.83.58.58,0,0,1,.43-.16A.51.51,0,0,1,264.65,110.5Z"/><path class="cls-4" d="M272.93,108.4a.78.78,0,0,0-.18-.59.6.6,0,0,0-.53-.22,1.76,1.76,0,0,0-1.18.58v1.24l0,2h-1l.07-3a.78.78,0,0,0-.18-.59.6.6,0,0,0-.53-.22,1.76,1.76,0,0,0-1.2.6v1.22l.06,2h-1l.06-1.93-.05-2.61,1-.09v.67h.07a3.23,3.23,0,0,1,1.23-.71,2,2,0,0,1,.92.2,1.07,1.07,0,0,1,.52.55h.06a3.54,3.54,0,0,1,1.32-.75,1.67,1.67,0,0,1,1.16.35,1.21,1.21,0,0,1,.39,1v1.3l.05,2h-1Z"/><path class="cls-4" d="M278.41,109.17H275.6a1.74,1.74,0,0,0,.37,1.16,1.37,1.37,0,0,0,1,.39,2.58,2.58,0,0,0,1.35-.41l.1.06-.15.82a3.63,3.63,0,0,1-1.42.32,2.12,2.12,0,0,1-1.62-.63,2.47,2.47,0,0,1-.58-1.74,2.5,2.5,0,0,1,.58-1.76,2,2,0,0,1,1.57-.65,1.6,1.6,0,0,1,1.75,1.43,1.82,1.82,0,0,1,0,.33,3.51,3.51,0,0,1-.05.55Zm-.76-.79a1,1,0,0,0-.22-.71.77.77,0,0,0-.62-.24,1,1,0,0,0-.76.3,1.41,1.41,0,0,0-.4.83h2Z"/><path class="cls-4" d="M282.17,107.06a1.14,1.14,0,0,1,.4.92q0,.18-.06,1.2t-.06,1.17a.43.43,0,0,0,.06.27.32.32,0,0,0,.23.07,1.5,1.5,0,0,0,.3,0l.09.07-.1.56a1.58,1.58,0,0,1-.63.22.77.77,0,0,1-.5-.22.8.8,0,0,1-.23-.52h-.07a3.21,3.21,0,0,1-1,.75,1.6,1.6,0,0,1-1.09-.36,1.23,1.23,0,0,1-.39-1,1.07,1.07,0,0,1,1-1.11l1.58-.35v-.54a.75.75,0,0,0-.19-.56.74.74,0,0,0-.53-.19,1.45,1.45,0,0,0-.68.16,3,3,0,0,0-.75.48l-.08,0-.13-.71a3.13,3.13,0,0,1,1.8-.6A1.63,1.63,0,0,1,282.17,107.06Zm-1.84,2.58a.4.4,0,0,0-.26.14.41.41,0,0,0-.08.29.67.67,0,0,0,.16.47.58.58,0,0,0,.45.17,1.44,1.44,0,0,0,1-.61v-.77Z"/><path class="cls-4" d="M286.21,110.48l.1.07-.1.64a2.9,2.9,0,0,1-1,.3,1.45,1.45,0,0,1-.9-.41,1.38,1.38,0,0,1-.28-.92v-2.67h-.63v-.06l.05-.59h.61v-.73l.9-.34.09.08v1h1.28v.07l-.05.58H285l-.05,2.51a.75.75,0,0,0,.12.52.68.68,0,0,0,.46.14A1.66,1.66,0,0,0,286.21,110.48Z"/><path class="cls-4" d="M291.84,107.35a2.51,2.51,0,0,1,.47,1.64,2.76,2.76,0,0,1-.59,1.87,2.16,2.16,0,0,1-1.68.66,4.13,4.13,0,0,1-.78-.08v1.84h-1l.07-3.78-.07-2.61,1-.09v.66h.07a3.07,3.07,0,0,1,.59-.43,3.61,3.61,0,0,1,.61-.26A1.58,1.58,0,0,1,291.84,107.35Zm-.8,3a2,2,0,0,0,.32-1.23,2.2,2.2,0,0,0-.26-1.16.85.85,0,0,0-.75-.41,1,1,0,0,0-.54.15,2.46,2.46,0,0,0-.57.45v2.41a2.19,2.19,0,0,0,.87.22,1.06,1.06,0,0,0,.93-.39Z"/><path class="cls-4" d="M295.91,107.06a1.14,1.14,0,0,1,.4.92q0,.18-.06,1.2t-.06,1.17a.43.43,0,0,0,.06.27.32.32,0,0,0,.23.07,1.5,1.5,0,0,0,.3,0l.09.07-.1.56a1.58,1.58,0,0,1-.63.22.77.77,0,0,1-.5-.22.8.8,0,0,1-.23-.52h-.07a3.21,3.21,0,0,1-1,.75,1.6,1.6,0,0,1-1.09-.36,1.23,1.23,0,0,1-.39-1,1.07,1.07,0,0,1,1-1.11l1.58-.35v-.54a.75.75,0,0,0-.19-.56.74.74,0,0,0-.53-.19,1.45,1.45,0,0,0-.68.16,3,3,0,0,0-.75.48l-.08,0-.13-.71a3.13,3.13,0,0,1,1.8-.6A1.63,1.63,0,0,1,295.91,107.06Zm-1.84,2.58a.4.4,0,0,0-.26.14.41.41,0,0,0-.08.29.67.67,0,0,0,.16.47.58.58,0,0,0,.45.17,1.49,1.49,0,0,0,1-.61v-.77Z"/><path class="cls-4" d="M300,106.8a2.46,2.46,0,0,1,.58.19l-.12.88h-.1a2,2,0,0,0-1-.31,1,1,0,0,0-.83.4,1.84,1.84,0,0,0-.3,1.12,2,2,0,0,0,.31,1.2,1,1,0,0,0,.88.42,2.49,2.49,0,0,0,1.07-.3l.09.06-.1.82a3.39,3.39,0,0,1-1.22.23,1.83,1.83,0,0,1-1.47-.62,3.14,3.14,0,0,1,0-3.52,1.94,1.94,0,0,1,1.55-.65A3,3,0,0,1,300,106.8Z"/><path class="cls-4" d="M302.21,109.4l.07,2h-1l.07-1.94-.06-5,1-.08Zm1.14-.48c.47.68,1.07,1.45,1.79,2.33v.12l-.56.11h-.48a23.39,23.39,0,0,1-1.74-2.47v-.07l1.31-1.68.25-.44H305Z"/><path class="cls-4" d="M306.63,104.87a.53.53,0,0,1,.14.4.58.58,0,0,1-.15.43.53.53,0,0,1-.41.16.56.56,0,0,1-.41-.15.67.67,0,0,1,0-.83.58.58,0,0,1,.43-.16A.51.51,0,0,1,306.63,104.87Zm-.87,4.68v-2.61l1-.09v4.61h-1Z"/><path class="cls-4" d="M310.84,108.4a.82.82,0,0,0-.18-.59.6.6,0,0,0-.53-.22,1.76,1.76,0,0,0-1.2.6v1.22l.06,2h-1l.06-1.93v-2.61l1-.09v.67h.07a3.23,3.23,0,0,1,1.23-.71,1.67,1.67,0,0,1,1.16.35,1.24,1.24,0,0,1,.39,1v1.3l.05,2h-1Z"/><path class="cls-4" d="M316.3,107.5h0a1.57,1.57,0,0,1,.19.77,1.49,1.49,0,0,1-.51,1.18,2.07,2.07,0,0,1-1.38.43,3.15,3.15,0,0,1-.61-.06,1,1,0,0,0-.17.18.38.38,0,0,0,0,.15c0,.14.08.23.25.28a5.53,5.53,0,0,0,.81.16c.38,0,.69.11.95.17a1.63,1.63,0,0,1,.65.34.82.82,0,0,1,.28.66,1.25,1.25,0,0,1-.29.8,2.06,2.06,0,0,1-.8.57,3.31,3.31,0,0,1-1.12.2,2,2,0,0,1-1.31-.37,1.18,1.18,0,0,1-.46-1,1.87,1.87,0,0,1,.36-.43,3.66,3.66,0,0,1,.5-.38h0a1.39,1.39,0,0,1-.54-.31.75.75,0,0,1-.19-.53,2.07,2.07,0,0,1,.64-.61h0a1.34,1.34,0,0,1-.52-.51,1.6,1.6,0,0,1-.17-.77,1.5,1.5,0,0,1,.5-1.19,2,2,0,0,1,1.37-.44,2.24,2.24,0,0,1,.92.17,10.61,10.61,0,0,0,1.48-.35l.09.06v.67A7.08,7.08,0,0,1,316.3,107.5Zm-.65,4.15a.88.88,0,0,0-.41-.17,7,7,0,0,1-.7-.13,1.61,1.61,0,0,1-.31,0,1.79,1.79,0,0,0-.48.39.55.55,0,0,0-.16.39.54.54,0,0,0,.26.45,1.54,1.54,0,0,0,.76.17,1.77,1.77,0,0,0,.87-.2.61.61,0,0,0,.34-.52A.4.4,0,0,0,315.65,111.65Zm-.33-2.63a1.1,1.1,0,0,0,0-1.37,1,1,0,0,0-.68-.23,1,1,0,0,0-.72.24.89.89,0,0,0-.24.68,1,1,0,0,0,.23.69,1,1,0,0,0,.69.24A1,1,0,0,0,315.32,109Z"/><path class="cls-4" d="M322.5,107.35A2.51,2.51,0,0,1,323,109a2.76,2.76,0,0,1-.59,1.87,2.2,2.2,0,0,1-1.68.66,4.13,4.13,0,0,1-.78-.08v1.84h-1l.07-3.78-.07-2.61,1-.09v.66H320a3.07,3.07,0,0,1,.59-.43,3.61,3.61,0,0,1,.61-.26A1.58,1.58,0,0,1,322.5,107.35Zm-.8,3a2,2,0,0,0,.32-1.23,2.2,2.2,0,0,0-.26-1.16.85.85,0,0,0-.75-.41,1,1,0,0,0-.54.15,2.46,2.46,0,0,0-.57.45v2.41a2.19,2.19,0,0,0,.87.22,1.09,1.09,0,0,0,1-.39Z"/><path class="cls-4" d="M324.85,109.4l.07,2h-1l.07-1.94-.06-5,1-.08Z"/><path class="cls-4" d="M328.9,107.06a1.14,1.14,0,0,1,.4.92q0,.18-.06,1.2t-.06,1.17a.43.43,0,0,0,.06.27.32.32,0,0,0,.23.07,1.5,1.5,0,0,0,.3,0l.09.07-.1.56a1.58,1.58,0,0,1-.63.22.77.77,0,0,1-.5-.22.8.8,0,0,1-.23-.52h-.07a3.21,3.21,0,0,1-1,.75,1.6,1.6,0,0,1-1.09-.36,1.23,1.23,0,0,1-.39-1,1.07,1.07,0,0,1,1-1.11l1.58-.35v-.54a.75.75,0,0,0-.19-.56.74.74,0,0,0-.53-.19,1.45,1.45,0,0,0-.68.16,3,3,0,0,0-.75.48l-.08,0-.13-.71a3.13,3.13,0,0,1,1.8-.6A1.63,1.63,0,0,1,328.9,107.06Zm-1.84,2.58a.4.4,0,0,0-.26.14.41.41,0,0,0-.08.29.67.67,0,0,0,.16.47.58.58,0,0,0,.45.17,1.49,1.49,0,0,0,1-.61v-.77Z"/><path class="cls-4" d="M333.42,108.4a.82.82,0,0,0-.18-.59.6.6,0,0,0-.53-.22,1.76,1.76,0,0,0-1.2.6v1.22l.06,2h-1l.06-1.93-.05-2.61,1-.09v.67h.07a3.23,3.23,0,0,1,1.23-.71,1.67,1.67,0,0,1,1.16.35,1.24,1.24,0,0,1,.39,1v1.3l.05,2h-1Z"/><path class="cls-4" d="M337.83,110.48l.1.07-.1.64a2.9,2.9,0,0,1-1,.3,1.45,1.45,0,0,1-.9-.41,1.38,1.38,0,0,1-.28-.92v-2.67H335v-.06l.05-.59h.61v-.73l.9-.34.09.08v1H338v.07l-.05.58h-1.3l-.05,2.51a.75.75,0,0,0,.12.52.68.68,0,0,0,.46.14A1.74,1.74,0,0,0,337.83,110.48Z"/><path class="cls-4" d="M341.09,107l-.14.8h-.13a1.81,1.81,0,0,0-1-.35.71.71,0,0,0-.48.16.52.52,0,0,0-.17.39.51.51,0,0,0,.2.4,3.87,3.87,0,0,0,.64.33,4.65,4.65,0,0,1,.63.32,1.24,1.24,0,0,1,.42.4,1,1,0,0,1,.18.62,1.42,1.42,0,0,1-.2.72,1.51,1.51,0,0,1-.59.53,2,2,0,0,1-.94.2,3.57,3.57,0,0,1-1.4-.31l.12-.85.11-.07a2.37,2.37,0,0,0,.64.4,2,2,0,0,0,.64.14.85.85,0,0,0,.51-.17.58.58,0,0,0,.2-.42.45.45,0,0,0-.2-.39,4.82,4.82,0,0,0-.63-.35,4.78,4.78,0,0,1-.64-.32,1.4,1.4,0,0,1-.43-.41,1.14,1.14,0,0,1-.17-.64,1.26,1.26,0,0,1,.45-1,1.78,1.78,0,0,1,1.23-.39A3,3,0,0,1,341.09,107Z"/><path class="cls-5" d="M148.89,90.07h-.53l-1.4-4h-.05l-1.5,4h-.53l-2.16-6.39h.53l.12.53,1.78,5.23h0l1.53-4.12-.57-1.64h.54l.14.57,1.78,5.19h.06l2-5.21.14-.55h.51Z"/><path class="cls-5" d="M152.55,83.68a.34.34,0,0,1,.09.24.38.38,0,0,1-.09.25.33.33,0,0,1-.25.1.38.38,0,0,1-.25-.09.37.37,0,0,1-.08-.24.39.39,0,0,1,.09-.26.3.3,0,0,1,.25-.09A.27.27,0,0,1,152.55,83.68Zm-.48,4.44V85.56l.5-.06v4.57h-.51Z"/><path class="cls-5" d="M154.66,88.09v2h-.51v-7h.52Zm.79-.47c.65.8,1.35,1.59,2.08,2.35V90a1,1,0,0,1-.25.07H157c-.78-.85-1.48-1.67-2.1-2.45V87.6l1.59-1.73.27-.37h.62Z"/><path class="cls-5" d="M158.78,83.68a.34.34,0,0,1,.09.24.38.38,0,0,1-.09.25.33.33,0,0,1-.25.1.38.38,0,0,1-.25-.09.37.37,0,0,1-.08-.24.39.39,0,0,1,.09-.26.3.3,0,0,1,.25-.09A.27.27,0,0,1,158.78,83.68Zm-.48,4.44V85.56l.5-.06v4.57h-.51Z"/><path class="cls-5" d="M163.26,86.92a1,1,0,0,0-.24-.75.85.85,0,0,0-.69-.26,1.38,1.38,0,0,0-.74.21,2.71,2.71,0,0,0-.73.62v3.35h-.52V85.53l.49-.06v.73h0a3,3,0,0,1,.7-.53,1.67,1.67,0,0,1,.71-.24,1.47,1.47,0,0,1,1.06.35,1.27,1.27,0,0,1,.36,1v3.28h-.52Z"/><path class="cls-5" d="M167.94,85.87a1.72,1.72,0,0,1,.42,1.25,2.8,2.8,0,0,1,0,.41l-.08.09h-3v.15a2.18,2.18,0,0,0,.4,1.39,1.41,1.41,0,0,0,1.14.5,2.16,2.16,0,0,0,.71-.12,2.4,2.4,0,0,0,.62-.31h.07l-.07.45a2.81,2.81,0,0,1-1.39.37,1.83,1.83,0,0,1-1.44-.62,2.49,2.49,0,0,1-.52-1.68,3,3,0,0,1,.24-1.26,1.8,1.8,0,0,1,1.73-1.12A1.5,1.5,0,0,1,167.94,85.87Zm-.06,1.18a1.29,1.29,0,0,0-.29-.91,1,1,0,0,0-.82-.32,1.25,1.25,0,0,0-1,.38,1.9,1.9,0,0,0-.49,1.06h2.53Z"/><path class="cls-5" d="M169.41,86l1,3.45h.05L171.57,86l.15-.52h.52l.11.5,1,3.45h0L174.47,86l.14-.52h.48l-1.54,4.55H173L172,86.23h-.06l-1.25,3.84h-.52l-1.32-4.53h.49Z"/><path class="cls-5" d="M177.94,85.68l-.08.43h-.09a1.82,1.82,0,0,0-.91-.27.92.92,0,0,0-.67.23.71.71,0,0,0-.26.56.59.59,0,0,0,.24.5,4,4,0,0,0,.73.41,3.69,3.69,0,0,1,.62.33,1.15,1.15,0,0,1,.39.37.86.86,0,0,1,.17.56,1.17,1.17,0,0,1-.19.65,1.36,1.36,0,0,1-.53.48,1.88,1.88,0,0,1-.81.18,2.59,2.59,0,0,1-1.25-.33l.07-.45h.07a2.33,2.33,0,0,0,.55.32,2,2,0,0,0,.59.11,1.11,1.11,0,0,0,.74-.25.76.76,0,0,0,.28-.59.63.63,0,0,0-.23-.5,2.85,2.85,0,0,0-.72-.41,6.25,6.25,0,0,1-.63-.33,1.52,1.52,0,0,1-.41-.39,1,1,0,0,1-.16-.58,1.1,1.1,0,0,1,.4-.88,1.57,1.57,0,0,1,1.06-.34A2.61,2.61,0,0,1,177.94,85.68Z"/><path class="cls-5" d="M179.5,89.51a.34.34,0,0,1,.09.24.38.38,0,0,1-.09.25.33.33,0,0,1-.25.1A.38.38,0,0,1,179,90a.37.37,0,0,1-.08-.24.39.39,0,0,1,.09-.26.3.3,0,0,1,.25-.09A.27.27,0,0,1,179.5,89.51Z"/><path class="cls-5" d="M183.5,86.05a2.55,2.55,0,0,1,.51,1.69,2.66,2.66,0,0,1-.53,1.76,1.84,1.84,0,0,1-1.47.63,1.7,1.7,0,0,1-1.4-.61,2.58,2.58,0,0,1-.5-1.67,2.72,2.72,0,0,1,.52-1.77,1.81,1.81,0,0,1,1.47-.63A1.72,1.72,0,0,1,183.5,86.05Zm-2.51.29a2.27,2.27,0,0,0-.39,1.41,2.54,2.54,0,0,0,.37,1.47,1.23,1.23,0,0,0,1.06.52,1.34,1.34,0,0,0,1.1-.5,2.26,2.26,0,0,0,.39-1.4,2.49,2.49,0,0,0-.38-1.48,1.21,1.21,0,0,0-1.06-.52,1.27,1.27,0,0,0-1.05.5Z"/><path class="cls-5" d="M187.2,85.53V86h-.39a.88.88,0,0,0-.64.28,3.26,3.26,0,0,0-.61.93V90.1H185V85.54l.49-.06v1h.05c.38-.68.82-1,1.32-1A1,1,0,0,1,187.2,85.53Z"/><path class="cls-5" d="M190.76,86h0a1.55,1.55,0,0,1,.29,1,1.49,1.49,0,0,1-.46,1.14,1.74,1.74,0,0,1-1.23.43,2.38,2.38,0,0,1-.7-.11,1.31,1.31,0,0,0-.31.27.32.32,0,0,0-.08.21c0,.14.09.25.28.31a5.33,5.33,0,0,0,.9.19,6.78,6.78,0,0,1,1,.19,1.47,1.47,0,0,1,.65.32.71.71,0,0,1,.27.6,1.09,1.09,0,0,1-.28.72,2,2,0,0,1-.76.52,2.87,2.87,0,0,1-1,.2,1.9,1.9,0,0,1-1.2-.35,1.07,1.07,0,0,1-.43-.88,1.43,1.43,0,0,1,.33-.54,2.77,2.77,0,0,1,.62-.46h0a1.83,1.83,0,0,1-.6-.28.58.58,0,0,1-.21-.47,1.51,1.51,0,0,1,.6-.6h0a1.4,1.4,0,0,1-.64-1.28,1.47,1.47,0,0,1,.45-1.16,1.71,1.71,0,0,1,1.24-.42,1.83,1.83,0,0,1,.92.21c.56-.11,1-.21,1.37-.31h.06v.38C191.5,85.87,191.12,85.94,190.76,86Zm-.1,4.2a1.18,1.18,0,0,0-.5-.22,5.22,5.22,0,0,0-.79-.14H189a2.69,2.69,0,0,0-.71.5.66.66,0,0,0,.08,1.08,1.65,1.65,0,0,0,.89.23,2.29,2.29,0,0,0,.78-.14,1.54,1.54,0,0,0,.57-.36.75.75,0,0,0,.21-.49.46.46,0,0,0-.2-.46Zm-.41-2.34a1.18,1.18,0,0,0,.32-.87,1.1,1.1,0,0,0-.31-.85,1.13,1.13,0,0,0-.86-.3,1.2,1.2,0,0,0-.89.31,1.33,1.33,0,0,0,0,1.72,1.26,1.26,0,0,0,.87.31,1.22,1.22,0,0,0,.87-.32Z"/><path class="cls-5" d="M193.21,90q0,.52-.81,1.14l-.19-.18h0a1.14,1.14,0,0,0,.55-.83.48.48,0,0,0-.31-.41v-.06a1.07,1.07,0,0,1,.36-.2A.67.67,0,0,1,193.21,90Z"/><path class="cls-5" d="M196.69,84.14v2.53h2.17v.06l-.06.4h-2.18v3h-.52V83.74h3.2v.06l-.06.42h-1.43Z"/><path class="cls-5" d="M201.73,85.53V86h-.39a.88.88,0,0,0-.64.28,3.26,3.26,0,0,0-.61.93V90.1h-.52V85.54l.49-.06v1h.05c.38-.68.82-1,1.32-1A1,1,0,0,1,201.73,85.53Z"/><path class="cls-5" d="M203,83.68a.34.34,0,0,1,.09.24.38.38,0,0,1-.09.25.33.33,0,0,1-.25.1.38.38,0,0,1-.25-.09.37.37,0,0,1-.08-.24.39.39,0,0,1,.09-.26.3.3,0,0,1,.25-.09A.27.27,0,0,1,203,83.68Zm-.48,4.44V85.56l.5-.06v4.57h-.5Z"/><path class="cls-5" d="M207.77,88.09V89.2a.65.65,0,0,0,.07.36.3.3,0,0,0,.25.11,1,1,0,0,0,.37-.1h.07l-.06.33a1.13,1.13,0,0,1-.51.16c-.38,0-.59-.25-.62-.71h-.05a3.51,3.51,0,0,1-.6.48,2.41,2.41,0,0,1-.65.24,1.75,1.75,0,0,1-1.4-.6,3.06,3.06,0,0,1,.07-3.45,2,2,0,0,1,1.6-.62,3.76,3.76,0,0,1,1,.13V83.05h.51Zm-2.69-1.75a2.08,2.08,0,0,0-.43,1.43,2.33,2.33,0,0,0,.37,1.4,1.23,1.23,0,0,0,1,.5,1.39,1.39,0,0,0,.66-.18,2,2,0,0,0,.61-.55V86.06a2.5,2.5,0,0,0-1-.22A1.46,1.46,0,0,0,205.08,86.34Z"/><path class="cls-5" d="M211.75,85.76a1.06,1.06,0,0,1,.34.86v1.29Q212,89.05,212,89.2a.65.65,0,0,0,.07.36.31.31,0,0,0,.26.11,1,1,0,0,0,.38-.1h.07l-.06.33a1.13,1.13,0,0,1-.51.16q-.6,0-.63-.75h-.11a2.19,2.19,0,0,1-1.18.77,1.4,1.4,0,0,1-.94-.32,1.14,1.14,0,0,1-.34-.87,1,1,0,0,1,.88-1l1.66-.39v-.81a.88.88,0,0,0-.23-.66.86.86,0,0,0-.65-.22,2.18,2.18,0,0,0-1.4.65h-.06l-.08-.37a2.54,2.54,0,0,1,1.61-.65A1.3,1.3,0,0,1,211.75,85.76ZM210,88.28a.57.57,0,0,0-.51.6.81.81,0,0,0,.21.59.77.77,0,0,0,.58.22,1.12,1.12,0,0,0,.61-.21,2.72,2.72,0,0,0,.62-.6v-1Z"/><path class="cls-5" d="M213.5,86l1.24,3.42h.06l1.29-3.39.15-.53h.49L215,90a4.42,4.42,0,0,1-.54,1.06,1.94,1.94,0,0,1-.66.58,4.4,4.4,0,0,1-1,.35h-.06a1,1,0,0,1-.21-.3v-.08a4.55,4.55,0,0,0,.89-.26,1.89,1.89,0,0,0,.59-.45,3.72,3.72,0,0,0,.49-.81l-1.67-4.53h.49Z"/><path class="cls-5" d="M217.5,90q0,.52-.81,1.14L216.5,91h0a1.14,1.14,0,0,0,.55-.83.48.48,0,0,0-.31-.41v-.06a1.07,1.07,0,0,1,.36-.2A.67.67,0,0,1,217.5,90Z"/><path class="cls-5" d="M224.64,84.43a3.47,3.47,0,0,1,.69,2.33,3.8,3.8,0,0,1-.73,2.5,2.6,2.6,0,0,1-2.08.87,2.42,2.42,0,0,1-2-.84,3.62,3.62,0,0,1-.69-2.38,3.67,3.67,0,0,1,.72-2.44,2.55,2.55,0,0,1,2.07-.85A2.46,2.46,0,0,1,224.64,84.43Zm-3.68.34a3.3,3.3,0,0,0-.57,2.09,3.48,3.48,0,0,0,.55,2.13,1.91,1.91,0,0,0,1.62.72,2,2,0,0,0,1.67-.73,3.46,3.46,0,0,0,.57-2.14,3.32,3.32,0,0,0-.55-2.08,1.92,1.92,0,0,0-1.62-.7A2,2,0,0,0,221,84.77Z"/><path class="cls-5" d="M228.56,85.54a2.63,2.63,0,0,1,.6.25l-.1.45H229a1.5,1.5,0,0,0-.52-.26,1.59,1.59,0,0,0-.57-.1,1.18,1.18,0,0,0-1,.51,2.78,2.78,0,0,0,0,2.79,1.23,1.23,0,0,0,1,.51,2.18,2.18,0,0,0,.62-.11,3.06,3.06,0,0,0,.58-.27h.07l0,.44a3.22,3.22,0,0,1-.61.24,2.44,2.44,0,0,1-.66.09,1.66,1.66,0,0,1-1.36-.62,2.66,2.66,0,0,1-.5-1.68A2.76,2.76,0,0,1,226.5,86a1.64,1.64,0,0,1,1.39-.64A2.23,2.23,0,0,1,228.56,85.54Z"/><path class="cls-5" d="M232,89.44l.06,0,0,.36a2.35,2.35,0,0,1-.9.27,1.13,1.13,0,0,1-.77-.37,1.35,1.35,0,0,1-.25-.87v-3h-.6v-.32h.62v-.91l.44-.18.06.05v1h1.45v.32H230.6v2.93a1,1,0,0,0,.17.63.67.67,0,0,0,.52.21A1.61,1.61,0,0,0,232,89.44Z"/><path class="cls-5" d="M235.69,86.05a2.55,2.55,0,0,1,.51,1.69,2.66,2.66,0,0,1-.53,1.76,1.84,1.84,0,0,1-1.47.63,1.7,1.7,0,0,1-1.4-.61,2.58,2.58,0,0,1-.5-1.67,2.72,2.72,0,0,1,.52-1.77,1.81,1.81,0,0,1,1.47-.63A1.72,1.72,0,0,1,235.69,86.05Zm-2.51.29a2.27,2.27,0,0,0-.39,1.41,2.47,2.47,0,0,0,.37,1.47,1.23,1.23,0,0,0,1.06.52,1.34,1.34,0,0,0,1.1-.5,2.26,2.26,0,0,0,.39-1.4,2.49,2.49,0,0,0-.38-1.48,1.21,1.21,0,0,0-1.06-.52A1.26,1.26,0,0,0,233.18,86.34Z"/><path class="cls-5" d="M240.59,86.05a2.46,2.46,0,0,1,.46,1.62,2.68,2.68,0,0,1-.57,1.82,2,2,0,0,1-1.59.65,3.11,3.11,0,0,1-1-.19l-.37.18-.1-.06V83.14h.52v3.12H238a2.3,2.3,0,0,1,1.36-.7A1.5,1.5,0,0,1,240.59,86.05Zm-.47,3.17a2.25,2.25,0,0,0,.44-1.48,2.27,2.27,0,0,0-.34-1.35,1.07,1.07,0,0,0-1-.48,1.8,1.8,0,0,0-1.37.76v2.79a2.5,2.5,0,0,0,1,.28A1.5,1.5,0,0,0,240.12,89.22Z"/><path class="cls-5" d="M244.93,85.87a1.72,1.72,0,0,1,.42,1.25,2.8,2.8,0,0,1,0,.41l-.08.09h-3v.15a2.18,2.18,0,0,0,.4,1.39,1.41,1.41,0,0,0,1.14.5,2.16,2.16,0,0,0,.71-.12,2.4,2.4,0,0,0,.62-.31h.07l-.07.45a2.81,2.81,0,0,1-1.39.37,1.83,1.83,0,0,1-1.44-.62,2.49,2.49,0,0,1-.52-1.68,3,3,0,0,1,.24-1.26,1.8,1.8,0,0,1,1.73-1.12A1.5,1.5,0,0,1,244.93,85.87Zm-.06,1.18a1.29,1.29,0,0,0-.29-.91,1,1,0,0,0-.82-.32,1.29,1.29,0,0,0-.95.38,1.9,1.9,0,0,0-.49,1.06h2.53Z"/><path class="cls-5" d="M248.63,85.53V86h-.39a.88.88,0,0,0-.64.28,3.26,3.26,0,0,0-.61.93V90.1h-.49V85.54l.49-.06v1h0c.38-.68.82-1,1.32-1A.86.86,0,0,1,248.63,85.53Z"/><path class="cls-5" d="M252,85.16v4.91h-.53V85.69l-1.36.41h-.07v-.41l1.85-.57Z"/><path class="cls-5" d="M254.16,85.12h2.73v.39l-2.08,4.57-.4,1L254,91v-.09l2.44-5.32h-3l0-.07V85Z"/><path class="cls-5" d="M258.55,90q0,.52-.81,1.14l-.19-.18h0a1.14,1.14,0,0,0,.55-.83.48.48,0,0,0-.31-.41v-.06a1,1,0,0,1,.36-.2A.67.67,0,0,1,258.55,90Z"/><path class="cls-5" d="M263.63,85.39a.93.93,0,0,1,.36.76,2,2,0,0,1-.29.91,9.68,9.68,0,0,1-.9,1.23l-1.13,1.32h2.91v0l-.07.43H261v-.34l1.39-1.61a8.63,8.63,0,0,0,.82-1.09,1.52,1.52,0,0,0,.27-.76.65.65,0,0,0-.23-.51.83.83,0,0,0-.62-.2,1.42,1.42,0,0,0-.73.19,2.12,2.12,0,0,0-.66.53h-.06l-.09-.4a2.61,2.61,0,0,1,.76-.57,2,2,0,0,1,.87-.2A1.38,1.38,0,0,1,263.63,85.39Z"/><path class="cls-5" d="M269,85.72a2.83,2.83,0,0,1,.55,1.87,2.76,2.76,0,0,1-.57,1.87,2.28,2.28,0,0,1-3.18,0,2.71,2.71,0,0,1-.55-1.82,2.86,2.86,0,0,1,.56-1.92,2,2,0,0,1,1.62-.67A2,2,0,0,1,269,85.72Zm-2.89.36a2.87,2.87,0,0,0,0,3.06,1.63,1.63,0,0,0,1.3.52,1.57,1.57,0,0,0,1.27-.52,2.28,2.28,0,0,0,.44-1.49,2.38,2.38,0,0,0-.45-1.57,1.52,1.52,0,0,0-1.28-.53,1.55,1.55,0,0,0-1.28.53Z"/><path class="cls-5" d="M274.06,85.72a2.85,2.85,0,0,1,.55,1.87,2.76,2.76,0,0,1-.57,1.87,2.28,2.28,0,0,1-3.18,0,2.71,2.71,0,0,1-.55-1.82,2.86,2.86,0,0,1,.56-1.92,2,2,0,0,1,1.62-.67A2,2,0,0,1,274.06,85.72Zm-2.89.36a2.87,2.87,0,0,0,0,3.06,1.63,1.63,0,0,0,1.3.52,1.57,1.57,0,0,0,1.27-.52,2.28,2.28,0,0,0,.44-1.49,2.38,2.38,0,0,0-.45-1.57,1.52,1.52,0,0,0-1.28-.53,1.55,1.55,0,0,0-1.28.53Z"/><path class="cls-5" d="M278.34,84.53a1.24,1.24,0,0,1,.4,1,1.29,1.29,0,0,1-.3.88,2.53,2.53,0,0,1-.79.58h0a3.09,3.09,0,0,1,.65.34,1.29,1.29,0,0,1,.45.45,1.22,1.22,0,0,1,.18.7,1.52,1.52,0,0,1-.5,1.16,2,2,0,0,1-1.34.44,1.88,1.88,0,0,1-1.25-.41,1.39,1.39,0,0,1-.46-1.08,1.27,1.27,0,0,1,.36-1,2.92,2.92,0,0,1,.92-.6h0a2.74,2.74,0,0,1-.75-.55,1.29,1.29,0,0,1-.28-.84,1.37,1.37,0,0,1,.45-1.08,1.74,1.74,0,0,1,1.18-.39A1.48,1.48,0,0,1,278.34,84.53Zm-2.16,3.23a1.17,1.17,0,0,0,0,1.65h0a1.62,1.62,0,0,0,1.92,0,1,1,0,0,0,.37-.84.92.92,0,0,0-.19-.6,1.33,1.33,0,0,0-.44-.38c-.17-.09-.41-.2-.74-.34A2.94,2.94,0,0,0,276.18,87.76Zm.22-2.91a1,1,0,0,0-.32.78.89.89,0,0,0,.28.72,3.27,3.27,0,0,0,.83.48,2.56,2.56,0,0,0,.81-.48,1,1,0,0,0,.31-.79,1,1,0,0,0-.29-.73,1.05,1.05,0,0,0-.78-.27,1.14,1.14,0,0,0-.84.31Z"/><path class="cls-5" d="M118.38,45.07V30.76c.14-1.06,1.1-2,2.87-2.72h-4.89a3,3,0,0,0-2.74,2l-.91-.4,4.51-7.28,10-.05.18.54-4.75,5h-.08L122.5,50a5,5,0,0,1-2.33,3c3,.41,4.88.3,5.74-.35l.65.48-4.33,5.21c-4.28-.3-6.88-.09-7.81.65l-.7-.11a18.28,18.28,0,0,0,4.14-5L104.65,32.31l.06,17.84a6.23,6.23,0,0,1-3.25,3c3.76.34,6.07.19,6.93-.43l.64.45-4.32,5.11c-4.68-.31-7.49-.1-8.44.61l-.67-.1c2.44-2.65,4-4.93,4.54-6.82V33.65q-.17-1.32,2.25-4.35-2.23-3.23-5.85-.08l-.86-.56q5.55-6,7.42-6.4T118.38,45.07Z"/><path class="cls-5" d="M138.62,34.14a6.17,6.17,0,0,1,4.43,1.21q2,1.45,1.53,5.1l-2.2,1.91-6.74,5.4-.78-1.13,2-1.51a5.93,5.93,0,0,0,2.38-2.83,3.11,3.11,0,0,0-.64-2.93,2.93,2.93,0,0,0-3.31-.92q-2.19.54-1.77,4a17.59,17.59,0,0,0,3,7.45c1.75,2.66,3.48,3.8,5.17,3.42a18.85,18.85,0,0,0,4.14-3.73l.67.59a35.8,35.8,0,0,1-7.28,7.47c-1.52,1.28-3.27,1-5.25-.86A19.7,19.7,0,0,1,129.21,49q-1.8-5,4.43-11A13.64,13.64,0,0,1,138.62,34.14Z"/><path class="cls-5" d="M164.86,40.53l-.49-1q4.38-5.43,6.86-5.67c1.65-.16,3.41,1,5.27,3.5a10,10,0,0,1,2.24,7.51q-.51,3.74-8.3,11.57-2.85,4.44-4.86-.61l-7.79-15c-.61-1.25-1.81-1.09-3.62.48Q159.5,55.17,161,53.42l2.06-1.55.65,1.07-3.49,3.28q-3.83,4.8-5.83-.68L147.29,40.8q-.91-1.87-2.82.48l-.7-.51,4.54-5.64c1-1.34,2.06-1.36,3.06-.08l2.37,5.21,5.07-5q1.51-1.86,3.06-.16l2.21,4.77.48.94q5.16,12.06,7.06,12.52A7,7,0,0,0,174,48c.07-2.24-.86-4.61-2.78-7.09S167.16,38.28,164.86,40.53Z"/><path class="cls-5" d="M191.87,34a5.78,5.78,0,0,1,2.63,2.59l-4.06,4.32-.42-.08c1.12-1.59.94-2.73-.57-3.41a6.41,6.41,0,0,0-4.26-.53c-1.33.32-1.85,1-1.55,2.16s2.07,2.06,5.33,2.83,5.36,1.71,6.3,2.82a5.9,5.9,0,0,1,1.49,3.59A8.64,8.64,0,0,1,195.14,53a19,19,0,0,1-3.27,4.14,5.44,5.44,0,0,1-4,1.29,10.86,10.86,0,0,1-4.4-1.13,9.89,9.89,0,0,1-3.41-3,3.8,3.8,0,0,1-1-3.37l3.63-3.68.32.43a2.09,2.09,0,0,0,0,2.65,9,9,0,0,0,2.81,2.11,12.27,12.27,0,0,0,3.82,1.26,5.77,5.77,0,0,0,2.86-.06,2,2,0,0,0,1.16-1.44,2.29,2.29,0,0,0-.66-2.15q-.94-1.08-5.42-2.21t-6-2.82a4.9,4.9,0,0,1-1.25-4,6.42,6.42,0,0,1,1.28-3.5,12.89,12.89,0,0,1,2.76-2.29,11.05,11.05,0,0,1,3.76-1.59A5.56,5.56,0,0,1,191.87,34Z"/><path class="cls-5" d="M208.89,22.7h10.28l2.88.21a6.63,6.63,0,0,1,5.82,5.17q1.29,4.53-.82,7.63A9,9,0,0,1,221,39.54a5,5,0,0,1,4.47,1.26A12.37,12.37,0,0,1,228.28,45q1.07,2.52,2,4.68a13.28,13.28,0,0,0,2.58,3.88c.62.61,1.42.42,2.39-.59l.67.65-6.42,5.23a16.66,16.66,0,0,1-4.3-5.32A48,48,0,0,1,222.65,48a25.57,25.57,0,0,0-1.79-4,6.89,6.89,0,0,0-2.15-2.46,5.94,5.94,0,0,0-3.5-.77v8.65a11.11,11.11,0,0,1-3.51,3.92q6.09.24,7.41-.72l.64.51-4.43,5.21q-7.23-.16-9.48.91l-.29-.83a14.71,14.71,0,0,0,4.08-6.29V31.44q.83-2.19,4.29-3.14h-6a3.24,3.24,0,0,0-2.74,2.07l-.92-.38Zm6.23,5.56V38.87c3.86,0,6.19-.54,7-1.6A6.07,6.07,0,0,0,223,33a4.91,4.91,0,0,0-2.18-3.84Q218.94,27.93,215.12,28.26Z"/><path class="cls-5" d="M245.08,34.14a6.21,6.21,0,0,1,4.42,1.21q2,1.45,1.53,5.1l-2.2,1.91-6.74,5.4-.78-1.13,2-1.51a5.93,5.93,0,0,0,2.38-2.83,3.11,3.11,0,0,0-.64-2.93,2.93,2.93,0,0,0-3.31-.92q-2.19.54-1.77,4a17.59,17.59,0,0,0,3,7.45q2.61,4,5.16,3.42a18.85,18.85,0,0,0,4.14-3.73l.67.59a35.8,35.8,0,0,1-7.28,7.47c-1.52,1.28-3.27,1-5.25-.86A19.7,19.7,0,0,1,235.65,49q-1.8-5,4.43-11A13.7,13.7,0,0,1,245.08,34.14Z"/><path class="cls-5" d="M255.61,62.69q4.69,3.16,7.62,1.45l.73.21-4.11,5.13a5.9,5.9,0,0,1-4.53-1.23,4.07,4.07,0,0,0-3.93-.92l-.38-.4a12,12,0,0,0,3.82-8.35V45.37c-.1-4.32-.68-6.49-1.74-6.53l-1.88,2-.81-.91,1.32-1.48,3.76-4.7q2.93.57,4,4.36L264.05,34q1.4-1.2,5.16,1.77c2.5,2,3.8,4.22,3.88,6.77a12.59,12.59,0,0,1-2.77,7.78A25.23,25.23,0,0,1,265,56a4.53,4.53,0,0,1-5.39,0v5A5.77,5.77,0,0,1,255.61,62.69Zm4.94-13.56c1.9,2.34,3.83,3.25,5.8,2.71s2.71-2.24,2.23-5.1a11.53,11.53,0,0,0-3-6.54c-1.54-1.5-2.9-2.08-4.08-1.76l-2,1.66V50.6Z"/><path class="cls-5" d="M285.16,34.17a11.6,11.6,0,0,1,7.58,9.26,12.73,12.73,0,0,1-2,7.87,25.18,25.18,0,0,1-4.24,5.86,5.2,5.2,0,0,1-4.28,1.39c-1.62-.2-3.51-1.58-5.67-4.12a10.89,10.89,0,0,1-2.67-8.56,12.63,12.63,0,0,1,3.56-7.76,20.57,20.57,0,0,1,4.37-3.69A5,5,0,0,1,285.16,34.17ZM277.5,42c-.27,2,.31,4.28,1.76,7s3.05,4.19,4.8,4.4A4.13,4.13,0,0,0,288,52q1.33-1.65,1-4.86a10.37,10.37,0,0,0-3.12-6.1c-1.86-1.92-3.64-2.74-5.36-2.46A3.48,3.48,0,0,0,277.5,42Z"/><path class="cls-5" d="M296.85,34.17a4.26,4.26,0,0,1,4.11,4,9.93,9.93,0,0,1,2.32-3.3,3.5,3.5,0,0,1,3.37-.79,6.51,6.51,0,0,1,3.73,3.15l-4.54,3.52c-1-1.93-2-2.86-2.92-2.77s-1.46,1.18-1.59,3.25v10.5c0,1.72,1,2,2.8.86l.4.54-5.29,5.15c-1.86-.39-3-1.88-3.33-4.45V42.92c.11-2-.18-3.17-.86-3.5s-1.59.26-2.74,1.78l-.73-.53Z"/><path class="cls-5" d="M319.05,23.87l.54.54c-1.34,1.34-2,2.53-1.93,3.57v6h8l.27.75-3.76,4h-4.24V50.52q2.18,5.43,6.12.73l.94,1.26-7,6.12a8.58,8.58,0,0,1-5.08-6.31V39.06a3.6,3.6,0,0,0-4.3,2.2l-.91-.62,3.84-6.58h1.26l-.05-2.56a7.85,7.85,0,0,1,2.68-4.94A12.75,12.75,0,0,1,319.05,23.87Z"/></g></svg>