<?xml version="1.0" encoding="utf-8"?>
<!-- Generator: Adobe Illustrator 22.0.1, SVG Export Plug-In . SVG Version: 6.00 Build 0)  -->
<svg version="1.1" id="Capa_1" xmlns="http://www.w3.org/2000/svg" xmlns:xlink="http://www.w3.org/1999/xlink" x="0px" y="0px"
	 viewBox="0 0 550.6 88.1" style="enable-background:new 0 0 550.6 88.1;" xml:space="preserve">
<style type="text/css">
	.st0{fill:#F5AD15;}
	.st1{fill:#E35818;}
	.st2{fill:#336C82;}
	.st3{fill:#2E5B6A;}
	.st4{fill:#A5A7AA;}
	.st5{enable-background:new    ;}
	.st6{fill:#666766;}
	.st7{fill:#D8782C;}
	.st8{fill:#005880;}
	.st9{fill:#E0B33A;}
	.st10{fill:#005880;stroke:#005880;stroke-width:0.187;stroke-miterlimit:22.9256;}
	.st11{fill:#D8782C;stroke:#D8782C;stroke-width:0.187;stroke-miterlimit:22.9256;}
	.st12{fill:none;stroke:#909193;stroke-width:0.3393;stroke-miterlimit:10;}
</style>
<g>
	<path class="st0" d="M479.2,56.1V24.5c0-1.6,0.4-2.9,1.1-3.7c0.7-0.8,1.7-1.2,2.9-1.2c1.2,0,2.2,0.4,3,1.2c0.8,0.8,1.1,2,1.1,3.7
		v31.6c0,1.7-0.4,2.9-1.1,3.7c-0.8,0.8-1.7,1.2-3,1.2c-1.2,0-2.1-0.4-2.9-1.2C479.6,59,479.2,57.8,479.2,56.1"/>
	<path class="st1" d="M500.4,52.9h19c1.6,0,2.9,0.4,3.7,1.1c0.8,0.7,1.2,1.7,1.2,2.9s-0.4,2.2-1.2,3s-2,1.1-3.7,1.1h-19
		c-1.7,0-2.9-0.4-3.7-1.1c-0.8-0.8-1.2-1.7-1.2-3c0-1.2,0.4-2.1,1.2-2.9C497.5,53.3,498.7,52.9,500.4,52.9"/>
	<path class="st0" d="M495.1,56.1V24.5c0-1.6,0.4-2.9,1.1-3.7c0.7-0.8,1.7-1.2,2.9-1.2s2.2,0.4,3,1.2c0.8,0.8,1.1,2,1.1,3.7v31.6
		c0,1.7-0.4,2.9-1.1,3.7c-0.8,0.8-1.7,1.2-3,1.2c-1.2,0-2.1-0.4-2.9-1.2C495.5,59,495.1,57.8,495.1,56.1"/>
	<path class="st1" d="M452.5,56.9l-11-31.2c-0.6-1.6-0.7-3-0.3-4s1.1-1.8,2.2-2.1c1.1-0.4,2.1-0.3,3.1,0.2c1,0.6,1.7,1.7,2.3,3.3
		l11,31.2c0.6,1.6,0.7,3,0.3,4c-0.4,1.1-1.2,1.8-2.3,2.2s-2.1,0.3-3.1-0.3C453.8,59.6,453.1,58.5,452.5,56.9"/>
	<path class="st0" d="M458.3,60.2c-1,0.6-2,0.7-3.1,0.3s-1.9-1.1-2.3-2.2c-0.4-1.1-0.3-2.4,0.3-4l11-31.2c0.6-1.6,1.4-2.7,2.3-3.3
		c1-0.6,2-0.6,3.1-0.2s1.8,1.1,2.2,2.1c0.4,1.1,0.3,2.4-0.3,4l-11,31.2C460.1,58.5,459.3,59.6,458.3,60.2"/>
	<path class="st2" d="M382.3,56.1V24.5c0-1.6,0.4-2.9,1.1-3.7c0.7-0.8,1.7-1.2,2.9-1.2c1.2,0,2.2,0.4,3,1.2c0.8,0.8,1.1,2,1.1,3.7
		v31.6c0,1.7-0.4,2.9-1.1,3.7c-0.8,0.8-1.7,1.2-3,1.2c-1.2,0-2.1-0.4-2.9-1.2S382.3,57.8,382.3,56.1"/>
	<path class="st3" d="M398.6,56.1V24.5c0-1.6,0.4-2.9,1.1-3.7c0.7-0.8,1.7-1.2,2.9-1.2c1.2,0,2.2,0.4,3,1.2c0.8,0.8,1.1,2,1.1,3.7
		v31.6c0,1.7-0.4,2.9-1.1,3.7c-0.8,0.8-1.7,1.2-3,1.2c-1.2,0-2.1-0.4-2.9-1.2C399,59,398.6,57.8,398.6,56.1"/>
	<path class="st3" d="M424.6,56.1V24.5c0-1.6,0.4-2.9,1.1-3.7c0.7-0.8,1.7-1.2,2.9-1.2c1.2,0,2.2,0.4,3,1.2c0.8,0.8,1.1,2,1.1,3.7
		v31.6c0,1.7-0.4,2.9-1.1,3.7c-0.8,0.8-1.7,1.2-3,1.2c-1.2,0-2.1-0.4-2.9-1.2C425,59,424.6,57.8,424.6,56.1"/>
	<path class="st2" d="M424.5,58.7l-24.9-32.3c-0.9-1.4-1.3-2.6-1.1-3.7c0.2-1.1,0.7-2,1.7-2.6c1-0.7,2.1-0.9,3.1-0.6
		c1.1,0.3,2.1,1.1,3,2.5l24.9,32.3c0.9,1.4,1.3,2.6,1.1,3.7c-0.2,1.1-0.8,2-1.8,2.7c-1,0.6-2,0.8-3.1,0.6
		C426.4,60.9,425.4,60,424.5,58.7"/>
	<rect x="382.3" y="70.4" class="st4" width="91.8" height="0.4"/>
	<g class="st5">
		<path class="st6" d="M486.6,70.2l-0.4,2.2c-0.2,1-0.1,1,1.1,1c0.3,0,1.1,0,1.6-0.1c0.1,0,0.2,0,0.3-0.1c0.2-0.1,0.4,0.1,0.3,0.3
			c-0.1,0.4-0.4,0.6-0.8,0.6c-0.5,0-1.1,0-1.8,0c-0.6,0-1.2,0-1.8,0c-0.3,0-0.5-0.3-0.4-0.6c0.1-0.3,0.2-0.9,0.4-1.9l0.3-1.8
			c0.3-1.7,0.4-2.7,0.5-3.2c0-0.4,0.3-0.7,0.7-0.7c0.5,0,1.1,0,1.6,0c0.7,0,1.3,0,1.8,0c0.2,0,0.4,0.2,0.4,0.5
			c-0.1,0.3-0.3,0.4-0.6,0.4c-0.2,0-0.5-0.1-1.1-0.1c-0.7,0-1.4,0-1.6,0l-0.5,2.6h0.5c0.3,0,0.6,0,0.8,0c0.3,0,0.6,0.2,0.5,0.4
			c-0.1,0.3-0.4,0.5-0.8,0.5C487.4,70.1,486.6,70.2,486.6,70.2z"/>
		<path class="st6" d="M491.3,69.9c0.1-0.5,0.2-1.1,0.2-1.5c0,0,0,0,0-0.1c0-0.3,0.1-0.6,0.4-0.6c0.1,0,0.3,0,0.4-0.1
			c0.3-0.1,0.5,0.2,0.5,0.5c0,0.2-0.2,1-0.3,1.4c0.2-0.3,0.5-1.1,0.8-1.4c0.5-0.4,1-0.6,1.6-0.6s1.5,0.3,1.5,1.2c0,0.2,0,0.5-0.1,1
			l-0.3,1.6c-0.1,0.5-0.3,1.4-0.3,2c0,0.3-0.3,0.6-0.7,0.6h-0.1c-0.3,0-0.5-0.2-0.4-0.5c0.1-0.4,0.2-0.9,0.4-2.1l0.1-0.8
			c0.3-1.6,0.4-2.2-0.8-2.2c-0.5,0-1.2,0.4-1.5,0.8c-0.4,0.6-0.6,1.3-0.7,2l-0.2,1.4c-0.1,0.4-0.1,0.6-0.1,0.9s-0.3,0.5-0.7,0.5
			h-0.1c-0.3,0-0.5-0.2-0.5-0.5c0.1-0.4,0.2-0.9,0.3-1.4L491.3,69.9z"/>
		<path class="st6" d="M502,73.1c-0.3,1.7-0.5,3-2.2,3.6c-0.6,0.2-1.3,0.3-1.9,0.3c-0.3,0-0.6,0-0.9-0.1c-0.3,0-0.4-0.4-0.3-0.6
			c0.1-0.3,0.4-0.4,0.7-0.3c0.2,0.1,0.4,0.1,0.8,0.1c0.7,0,1.3-0.2,1.8-0.7c0.6-0.5,0.8-1.7,1.1-3.4c-0.3,0.5-1.1,2.1-2.2,2.1
			c-0.7,0-1.2-0.3-1.4-0.8c-0.3-0.4-0.3-1-0.3-1.2c0-1.9,1.3-4.6,3.8-4.6c0.6,0,1,0.2,1.3,0.3c0.1,0,0.2-0.1,0.2-0.1
			c0.3-0.1,0.5,0.2,0.4,0.5c-0.1,0.4-0.2,0.8-0.4,1.8L502,73.1z M500.7,68.3c-2.1,0-2.5,2.5-2.5,3.5c0,0.3,0,0.7,0.2,1
			s0.5,0.5,0.8,0.5c0.5,0,1-0.4,1.3-0.8c0.4-0.7,0.6-1.6,1.1-3.8C501.5,68.5,501.2,68.3,500.7,68.3z"/>
		<path class="st6" d="M504.9,74.1c-1.1,0-1.2-0.8-1.2-1.4c0-0.4,0.1-0.9,0.1-1c0.1-0.6,0-0.2,0.5-2.8c0.2-1.3,0.3-2,0.3-2.4
			c0-0.3,0.1-0.6,0.4-0.6c0.1,0,0.3,0,0.4-0.1c0.3-0.1,0.5,0.2,0.5,0.5c-0.1,0.4-0.2,1-0.4,2l-0.5,3.2c-0.1,0.6-0.3,1.3-0.2,1.6
			c0,0,0.1,0.4,0.5,0.4c0.3,0,0.4,0,0.6-0.1s0.3,0.2,0.2,0.3c-0.1,0.3-0.4,0.5-0.7,0.5C505.3,74.1,505.1,74.1,504.9,74.1z"/>
		<path class="st6" d="M508.3,71.2c-0.2,1.2-0.3,1.9-0.3,2.3c0,0.3-0.3,0.5-0.7,0.5h-0.1c-0.3,0-0.5-0.3-0.4-0.6
			c0.1-0.3,0.1-0.6,0.2-1.1l0.2-1.1c0.3-1.6,0.4-2.3,0.4-2.7c0-0.3,0.1-0.6,0.4-0.6c0.2,0,0.3,0,0.4-0.1c0.3-0.1,0.5,0.2,0.4,0.5
			c0,0.2-0.1,0.5-0.2,1.1L508.3,71.2z M509.3,66.1c0,0.4-0.3,1-0.8,1c-0.3,0-0.6-0.2-0.6-0.6s0.3-0.9,0.8-0.9
			C509,65.5,509.3,65.7,509.3,66.1z"/>
		<path class="st6" d="M510.6,71.1c-0.3-0.2-0.9-0.6-0.9-1.4c0-0.7,0.4-1.2,0.9-1.7c0.6-0.4,1.4-0.5,1.9-0.5c0.3,0,0.5,0,0.7,0.1
			c0.3,0.1,0.4,0.4,0.3,0.7c-0.1,0.2-0.4,0.3-0.7,0.2c-0.2-0.1-0.4-0.1-0.7-0.1c-0.9,0-1.4,0.6-1.4,1c0,0.5,0.4,0.8,0.9,1l0.6,0.4
			c0.3,0.2,0.8,0.5,0.8,1.2c0,0.5-0.2,1.2-0.9,1.7s-1.5,0.5-2,0.5c-0.3,0-0.6,0-0.8-0.1c-0.3-0.1-0.5-0.4-0.4-0.8
			c0.1-0.3,0.4-0.3,0.6-0.2s0.5,0.2,1,0.2c0.9,0,1.4-0.5,1.4-1c0-0.4-0.3-0.6-0.7-0.8L510.6,71.1z"/>
		<path class="st6" d="M514.8,68.6c0.2-1.2,0.3-1.9,0.3-2.2c0-0.3,0.1-0.6,0.3-0.6c0.1,0,0.3,0,0.4,0c0.3-0.1,0.6,0.2,0.5,0.5
			s-0.1,0.6-0.2,1.2l-0.4,2.1c0.2-0.3,0.6-1.3,1.2-1.6c0.5-0.3,1-0.4,1.3-0.4c0.7,0,1.5,0.4,1.5,1.3c0,0.3,0,0.6-0.2,1.2l-0.5,2.6
			c0,0.3-0.1,0.6-0.1,0.9s-0.3,0.6-0.7,0.6c-0.3,0-0.6-0.3-0.5-0.6c0.1-0.2,0.1-0.5,0.2-1l0.5-2.6c0.1-0.7,0.2-1.4-0.8-1.4
			c-0.5,0-1,0.2-1.3,0.6c-0.2,0.2-0.6,0.7-0.8,1.9c0,0.2-0.3,1.7-0.4,2.5c-0.1,0.4-0.4,0.6-0.7,0.6s-0.5-0.3-0.4-0.5
			c0.1-0.3,0.2-0.7,0.4-1.6L514.8,68.6z"/>
	</g>
</g>
<g>
	<g>
		<path class="st7" d="M193.7,20.7c0,2.2-1.7,3.9-3.9,3.9c-2.1,0-3.9-1.7-3.9-3.9c0-2.1,1.8-3.9,3.9-3.9
			C191.9,16.8,193.7,18.6,193.7,20.7L193.7,20.7z"/>
		<path class="st7" d="M202.5,12c0,2.1-1.7,3.9-3.9,3.9c-2.1,0-3.9-1.8-3.9-3.9c0-2.2,1.8-3.9,3.9-3.9C200.8,8.1,202.5,9.8,202.5,12
			L202.5,12z"/>
		<path class="st7" d="M215.8,8.1c0,2.1-1.7,3.9-3.9,3.9s-3.9-1.8-3.9-3.9c0-2.2,1.7-3.9,3.9-3.9C214,4.2,215.8,5.9,215.8,8.1
			L215.8,8.1z"/>
		<path class="st7" d="M229.1,12c0,2.1-1.7,3.9-3.9,3.9s-3.9-1.7-3.9-3.9s1.7-3.9,3.9-3.9C227.3,8.1,229.1,9.8,229.1,12L229.1,12z"
			/>
		<path class="st7" d="M237.9,20.7c0,2.2-1.8,3.9-3.9,3.9c-2.2,0-3.9-1.7-3.9-3.9c0-2.1,1.7-3.9,3.9-3.9
			C236.2,16.8,237.9,18.6,237.9,20.7L237.9,20.7z"/>
		<path class="st7" d="M278.3,66.9c0-2.2-1.7-3.9-3.9-3.9c-2.1,0-3.9,1.7-3.9,3.9c0,2.1,1.8,3.9,3.9,3.9
			C276.6,70.8,278.3,69,278.3,66.9L278.3,66.9z"/>
		<path class="st7" d="M287.2,75.6c0-2.1-1.7-3.9-3.9-3.9c-2.1,0-3.9,1.8-3.9,3.9c0,2.2,1.8,3.9,3.9,3.9
			C285.5,79.5,287.2,77.8,287.2,75.6L287.2,75.6z"/>
		<path class="st7" d="M300.5,79.5c0-2.1-1.8-3.9-3.9-3.9c-2.2,0-3.9,1.8-3.9,3.9c0,2.2,1.7,3.9,3.9,3.9
			C298.7,83.4,300.5,81.7,300.5,79.5L300.5,79.5z"/>
		<path class="st7" d="M313.8,75.6c0-2.1-1.8-3.9-3.9-3.9c-2.2,0-3.9,1.7-3.9,3.9c0,2.2,1.8,3.9,3.9,3.9S313.8,77.8,313.8,75.6
			L313.8,75.6z"/>
		<path class="st7" d="M322.6,66.9c0-2.2-1.8-3.9-3.9-3.9c-2.2,0-3.9,1.7-3.9,3.9c0,2.1,1.7,3.9,3.9,3.9S322.6,69,322.6,66.9
			L322.6,66.9z"/>
		<path class="st8" d="M241,29.3h-2c-2.1,0-3.5,0.6-4.4,1.9c-0.9,1.3-1.4,3.5-1.4,6.5v22c0,4.6-0.4,8.6-1.3,12
			c-0.9,3.4-3,6.1-6.3,8.3c-3.3,2.2-7.7,3.3-13.3,3.3c-5.4,0-9.7-1-13.1-2.9c-3.4-1.9-5.6-4.5-6.6-7.6c-1.1-3.1-1.6-7.8-1.6-14.3
			V37.4c0-2.8-0.4-4.8-1.1-6.1c-0.7-1.3-2.3-2-4.7-2h-2v-1.5h23.4v1.5h-2.1c-1.7,0-3.1,0.5-4.2,1.4c-1.1,0.9-1.6,3.2-1.6,6.7v23.7
			c0,4.5,0.4,8,1.3,10.7c0.9,2.6,2.4,4.7,4.6,6.1c2.2,1.4,4.9,2.1,8.3,2.1c3.2,0,6.2-0.7,9-2c2.8-1.4,4.8-3.2,6-5.6
			s1.8-6.7,1.8-12.9v-22c0-3.6-0.5-5.8-1.5-6.7c-1-0.9-2.4-1.4-4.2-1.4h-2v-1.5h19V29.3z"/>
		<path class="st8" d="M272.3,28.7h-1.1c-1.3,0-2.2,0.3-2.7,1c-0.4,0.7-0.7,1.9-0.7,3.7v26.5H267l-20.8-25.3v19.7
			c0,2.1,0.3,3.4,0.9,3.9c0.6,0.5,1.4,0.8,2.5,0.8h1.1v0.9h-11V59h1.1c1,0,1.8-0.2,2.4-0.7c0.6-0.5,0.9-1.8,0.9-3.9V32
			c-1.1-1.2-2-2.1-3-2.6c-0.9-0.5-2-0.7-3.2-0.7v-0.9h8.6l19.3,24V33.4c0-2.1-0.3-3.4-0.9-3.9s-1.4-0.8-2.5-0.8h-1.1v-0.9h11V28.7z"
			/>
		<path class="st9" d="M307.7,52.6h2.6c1.6,0,3-0.8,4.1-2.4c1.1-1.6,1.7-3.7,1.7-6.5c0-2.3-0.5-4.4-1.5-6.1c-1-1.7-2.4-2.5-4.3-2.5
			h-2.6L307.7,52.6L307.7,52.6z M297.8,60V27.8h12.4c5.4,0,9.4,1.6,12.1,4.8s4,6.9,4,11.1c0,4.8-1.4,8.7-4.3,11.7s-6.6,4.5-11.2,4.5
			h-13V60z M278.6,46.6h5.2l-2.6-9.3L278.6,46.6z M287.7,60l-1.8-6.3h-8.7l-2,6.3H267l10.1-32.2h10.6L297.9,60H287.7z"/>
	</g>
	<g>
		<path class="st10" d="M175.8,51.1h-1.3V40.2h1.3V51.1z M170.8,47.1c-0.5,0-0.9,0-1.2,0c-1,0-1.8,0.2-2.3,0.5s-0.8,0.8-0.8,1.4
			c0,0.4,0.1,0.7,0.4,1c0.3,0.3,0.7,0.4,1.3,0.4c0.8,0,1.4-0.3,1.9-0.8s0.7-1.2,0.7-1.9C170.8,47.5,170.8,47.3,170.8,47.1z
			 M172.2,51.1H171c0-0.3-0.1-0.7-0.1-1.5c-0.6,1.1-1.5,1.7-2.8,1.7c-0.9,0-1.6-0.2-2.1-0.7s-0.7-1.1-0.7-1.7c0-0.8,0.3-1.5,1-2
			s1.9-0.8,3.5-0.8c0.2,0,0.6,0,1.1,0c0-0.6,0-1.1-0.1-1.4c-0.1-0.3-0.3-0.5-0.6-0.7s-0.7-0.3-1.3-0.3c-1.3,0-2,0.5-2.2,1.5
			l-1.2-0.2c0.3-1.5,1.5-2.2,3.6-2.2c1.1,0,1.9,0.2,2.4,0.7s0.7,1.3,0.7,2.6v3.4C172,50.1,172.1,50.6,172.2,51.1z M163.3,51.1h-1.2
			v-5.2c0-0.7-0.2-1.3-0.5-1.6s-0.7-0.5-1.2-0.5c-0.6,0-1.2,0.3-1.6,0.8c-0.4,0.5-0.7,1.2-0.7,2V51H157v-8h1.2v1.5
			c0.7-1.1,1.5-1.7,2.5-1.7c0.6,0,1.1,0.2,1.5,0.5s0.7,0.7,0.9,1.1c0.2,0.4,0.2,1.1,0.2,2.1L163.3,51.1L163.3,51.1z M151.5,50.3
			c0.6,0,1.2-0.3,1.6-0.8c0.4-0.5,0.6-1.3,0.6-2.5c0-1.1-0.2-1.9-0.7-2.4s-1-0.8-1.6-0.8s-1.2,0.3-1.6,0.8c-0.4,0.5-0.6,1.3-0.6,2.4
			c0,1.2,0.2,2,0.6,2.5C150.3,50,150.8,50.3,151.5,50.3z M151.4,51.3c-1.1,0-2-0.4-2.6-1.2s-0.9-1.8-0.9-3.1s0.3-2.3,1-3.1
			s1.6-1.2,2.6-1.2c1.1,0,2,0.4,2.6,1.2s1,1.8,1,3c0,1.3-0.3,2.3-1,3.1C153.4,50.9,152.5,51.3,151.4,51.3z M146,43v8.1h-1.3V43H146z
			 M146,40.2v1.4h-1.3v-1.4H146z M141.9,48.3l1.1,0.2c-0.2,0.9-0.5,1.6-1.1,2.1c-0.5,0.5-1.2,0.8-2.1,0.8c-1.1,0-2-0.4-2.5-1.2
			c-0.6-0.8-0.9-1.8-0.9-3s0.3-2.2,0.9-3.1c0.6-0.8,1.5-1.2,2.5-1.2c0.9,0,1.6,0.3,2.1,0.8s0.9,1.2,1,2l-1.1,0.2
			c-0.2-1.3-0.9-2-1.9-2c-0.7,0-1.2,0.3-1.6,0.9c-0.4,0.6-0.6,1.4-0.6,2.3c0,1,0.2,1.8,0.6,2.4c0.4,0.6,0.9,0.9,1.6,0.9
			C141,50.3,141.6,49.6,141.9,48.3z M133.4,47.1c-0.5,0-0.9,0-1.2,0c-1,0-1.8,0.2-2.3,0.5s-0.8,0.8-0.8,1.4c0,0.4,0.1,0.7,0.4,1
			c0.3,0.3,0.7,0.4,1.3,0.4c0.8,0,1.4-0.3,1.9-0.8s0.7-1.2,0.7-1.9C133.4,47.5,133.4,47.3,133.4,47.1z M134.8,51.1h-1.2
			c0-0.3-0.1-0.7-0.1-1.5c-0.6,1.1-1.5,1.7-2.8,1.7c-0.9,0-1.6-0.2-2.1-0.7s-0.7-1.1-0.7-1.7c0-0.8,0.3-1.5,1-2s1.9-0.8,3.5-0.8
			c0.2,0,0.6,0,1.1,0c0-0.6,0-1.1-0.2-1.4c-0.1-0.3-0.3-0.5-0.6-0.7s-0.7-0.3-1.3-0.3c-1.3,0-2,0.5-2.2,1.5L128,45
			c0.3-1.5,1.5-2.2,3.6-2.2c1.1,0,1.9,0.2,2.4,0.7s0.7,1.3,0.7,2.6v3.4C134.6,50.1,134.7,50.6,134.8,51.1z M125.9,51.1h-1.3
			l-5.6-9.5v0.7c0,0.3,0,0.5,0,0.7v8.1h-1.1V40.2h1.7l5.3,8.9v-0.8c0-0.3,0-0.6,0-0.8v-7.3h1.1L125.9,51.1L125.9,51.1z M109.9,46.2
			c0-0.7-0.2-1.3-0.6-1.7s-0.9-0.6-1.5-0.6s-1.1,0.3-1.5,0.8c-0.4,0.6-0.6,1.3-0.6,2.3c0,1.1,0.2,1.9,0.6,2.5s0.9,0.8,1.5,0.8
			s1.1-0.2,1.6-0.7c0.4-0.5,0.7-1.1,0.7-1.7v-1.7H109.9z M111.1,40.2v10.9H110v-1.4c-0.6,1.1-1.4,1.6-2.5,1.6
			c-0.9,0-1.7-0.4-2.3-1.2c-0.6-0.8-0.9-1.8-0.9-3s0.3-2.3,0.9-3.1s1.4-1.2,2.4-1.2s1.8,0.4,2.4,1.3v-3.9
			C110,40.2,111.1,40.2,111.1,40.2z M101.1,47.1c-0.5,0-0.9,0-1.2,0c-1,0-1.8,0.2-2.3,0.5s-0.8,0.8-0.8,1.4c0,0.4,0.2,0.7,0.4,1
			c0.3,0.3,0.7,0.4,1.3,0.4c0.8,0,1.4-0.3,1.9-0.8s0.7-1.2,0.7-1.9C101.1,47.5,101.1,47.3,101.1,47.1z M102.5,51.1h-1.2
			c0-0.3-0.1-0.7-0.1-1.5c-0.6,1.1-1.5,1.7-2.8,1.7c-0.9,0-1.6-0.2-2.1-0.7s-0.7-1.1-0.7-1.7c0-0.8,0.3-1.5,1-2s1.9-0.8,3.5-0.8
			c0.2,0,0.6,0,1.1,0c0-0.6,0-1.1-0.1-1.4c-0.1-0.3-0.3-0.5-0.6-0.7c-0.3-0.2-0.7-0.3-1.3-0.3c-1.3,0-2,0.5-2.2,1.5L95.7,45
			c0.3-1.5,1.5-2.2,3.6-2.2c1.1,0,1.9,0.2,2.4,0.7s0.7,1.3,0.7,2.6v3.4C102.3,50.1,102.4,50.6,102.5,51.1z M92.4,46.2
			c0-0.7-0.2-1.3-0.6-1.7s-0.9-0.6-1.5-0.6s-1.1,0.3-1.5,0.8c-0.4,0.6-0.6,1.3-0.6,2.3c0,1.1,0.2,1.9,0.6,2.5s0.9,0.8,1.5,0.8
			s1.1-0.2,1.5-0.7s0.7-1.1,0.7-1.7L92.4,46.2L92.4,46.2z M93.7,40.2v10.9h-1.1v-1.4c-0.6,1.1-1.4,1.6-2.5,1.6
			c-0.9,0-1.7-0.4-2.3-1.2c-0.6-0.8-0.9-1.8-0.9-3s0.3-2.3,0.9-3.1s1.4-1.2,2.4-1.2s1.8,0.4,2.4,1.3v-3.9
			C92.6,40.2,93.7,40.2,93.7,40.2z M84.9,43v8.1h-1.3V43H84.9z M84.9,40.2v1.4h-1.4v-1.4H84.9z M75,49l1.2-0.2
			c0.3,1,1.1,1.5,2.5,1.5c0.5,0,1-0.1,1.3-0.4c0.4-0.2,0.5-0.6,0.5-1c0-0.6-0.5-1-1.4-1.2l-1.7-0.3c-0.7-0.1-1.2-0.4-1.6-0.7
			c-0.4-0.4-0.6-0.9-0.6-1.5c0-0.7,0.3-1.2,0.8-1.7s1.3-0.7,2.2-0.7c1.8,0,2.8,0.7,3.2,2.1l-1.2,0.2c-0.3-0.8-1-1.3-2-1.3
			c-0.5,0-0.9,0.1-1.3,0.3c-0.3,0.2-0.5,0.5-0.5,0.9c0,0.6,0.4,1,1.3,1.1l1.6,0.3c1.6,0.3,2.5,1.1,2.5,2.4c0,0.7-0.3,1.3-0.9,1.8
			s-1.4,0.7-2.4,0.7C76.6,51.3,75.4,50.6,75,49z M71.8,51.1h-1.3V43h1.1v1.9c0.4-0.9,0.8-1.5,1.2-1.7c0.4-0.3,0.8-0.4,1.2-0.4
			c0.1,0,0.3,0,0.5,0V44h-0.3c-0.7,0-1.3,0.3-1.7,0.8c-0.5,0.5-0.7,1.2-0.7,2C71.8,46.8,71.8,51.1,71.8,51.1z M67.3,46.3
			c0-0.5-0.1-0.9-0.2-1.2c-0.1-0.4-0.4-0.6-0.7-0.9c-0.3-0.2-0.7-0.4-1.2-0.4c-0.6,0-1.1,0.2-1.6,0.7c-0.4,0.4-0.7,1-0.7,1.8
			C62.9,46.3,67.3,46.3,67.3,46.3z M67.4,48.7l1.2,0.2c-0.2,0.7-0.6,1.3-1.2,1.7s-1.3,0.7-2.2,0.7c-1.1,0-2-0.4-2.7-1.2s-1-1.8-1-3
			c0-1.3,0.4-2.3,1.1-3.1c0.7-0.8,1.6-1.2,2.7-1.2s1.9,0.4,2.5,1.1c0.6,0.7,1,1.8,1,3.3h-5.9c0,1.2,0.3,2,0.8,2.5
			c0.5,0.4,1.1,0.6,1.6,0.6C66.2,50.3,67,49.8,67.4,48.7z M60.9,43l-2.8,8.1h-1.3L53.9,43h1.4l2.2,6.6l2.2-6.6H60.9z M52.4,43v8.1
			h-1.3V43H52.4z M52.5,40.2v1.4h-1.4v-1.4H52.5z M48.7,51.1h-1.2v-5.2c0-0.7-0.2-1.3-0.5-1.6s-0.7-0.5-1.2-0.5
			c-0.6,0-1.2,0.3-1.6,0.8c-0.4,0.5-0.6,1.2-0.6,2V51h-1.3v-8h1.2v1.5c0.7-1.1,1.5-1.7,2.5-1.7c0.6,0,1.1,0.2,1.5,0.5
			s0.7,0.7,0.9,1.1c0.2,0.4,0.2,1.1,0.2,2.1L48.7,51.1L48.7,51.1z M38.8,40.2H40v7.1c0,1.4-0.3,2.5-1,3.1s-1.6,0.9-2.8,0.9
			c-1.3,0-2.2-0.3-2.8-1c-0.6-0.6-0.9-1.7-0.9-3v-7.1h1.4v7.1c0,0.8,0.1,1.4,0.3,1.8c0.2,0.3,0.5,0.6,0.9,0.8s0.8,0.2,1.3,0.2
			c0.8,0,1.5-0.2,1.9-0.7c0.4-0.4,0.7-1.2,0.7-2.1v-7.1H38.8z"/>
		<path class="st11" d="M174.4,62.9c-0.5,0-0.9,0-1.2,0c-1,0-1.7,0.2-2.3,0.5c-0.5,0.3-0.8,0.8-0.8,1.4c0,0.4,0.2,0.7,0.4,1
			c0.3,0.3,0.7,0.4,1.3,0.4c0.7,0,1.4-0.3,1.8-0.8c0.5-0.6,0.7-1.2,0.7-2C174.4,63.3,174.4,63.2,174.4,62.9z M175.7,67h-1.2
			c0-0.3-0.1-0.7-0.1-1.5c-0.6,1.1-1.5,1.7-2.8,1.7c-0.9,0-1.6-0.2-2.1-0.7s-0.7-1.1-0.7-1.7c0-0.8,0.3-1.5,1-2s1.9-0.8,3.5-0.8
			c0.2,0,0.6,0,1.1,0c0-0.6,0-1.1-0.1-1.4c-0.1-0.3-0.3-0.5-0.6-0.7s-0.7-0.3-1.2-0.3c-1.3,0-2,0.5-2.2,1.5l-1.1-0.2
			c0.3-1.5,1.5-2.3,3.5-2.3c1.1,0,1.9,0.3,2.3,0.7c0.5,0.5,0.7,1.4,0.7,2.6v3.5C175.6,66,175.6,66.5,175.7,67z M167,58.9V67h-1.2
			v-8.2h1.2V58.9z M167,56v1.4h-1.3V56H167z M162.9,64.2l1.1,0.2c-0.2,0.9-0.5,1.6-1.1,2.1c-0.5,0.5-1.2,0.8-2,0.8
			c-1.1,0-1.9-0.4-2.5-1.2c-0.6-0.8-0.9-1.8-0.9-3c0-1.2,0.3-2.3,0.9-3.1c0.6-0.8,1.4-1.2,2.5-1.2c0.9,0,1.6,0.3,2.1,0.8
			s0.8,1.2,1,2.1l-1.1,0.2c-0.2-1.3-0.8-2-1.9-2c-0.7,0-1.2,0.3-1.6,0.9c-0.4,0.6-0.6,1.4-0.6,2.3c0,1,0.2,1.9,0.5,2.4
			c0.4,0.6,0.9,0.9,1.5,0.9C162,66.2,162.7,65.5,162.9,64.2z M155.7,67h-1.2v-5.2c0-0.8-0.2-1.3-0.5-1.6s-0.7-0.5-1.2-0.5
			c-0.6,0-1.2,0.3-1.6,0.8c-0.4,0.5-0.6,1.2-0.6,2V67h-1.2v-8.2h1.2v1.5c0.7-1.2,1.5-1.7,2.5-1.7c0.6,0,1.1,0.2,1.5,0.5
			s0.7,0.7,0.9,1.1c0.2,0.4,0.2,1.1,0.2,2.1L155.7,67L155.7,67z M145.7,62.9c-0.5,0-0.9,0-1.2,0c-1,0-1.7,0.2-2.3,0.5
			c-0.5,0.3-0.8,0.8-0.8,1.4c0,0.4,0.1,0.7,0.4,1c0.3,0.3,0.7,0.4,1.3,0.4c0.8,0,1.4-0.3,1.8-0.8c0.5-0.6,0.7-1.2,0.7-2
			C145.8,63.3,145.8,63.2,145.7,62.9z M147.1,67h-1.2c0-0.3-0.1-0.7-0.1-1.5c-0.5,1.1-1.5,1.7-2.8,1.7c-0.9,0-1.6-0.2-2.1-0.7
			s-0.7-1.1-0.7-1.7c0-0.8,0.3-1.5,1-2s1.9-0.8,3.5-0.8c0.2,0,0.6,0,1.1,0c0-0.6,0-1.1-0.1-1.4c-0.1-0.3-0.3-0.5-0.6-0.7
			s-0.7-0.3-1.2-0.3c-1.3,0-2,0.5-2.2,1.5l-1.1-0.2c0.3-1.5,1.5-2.3,3.5-2.3c1.1,0,1.9,0.3,2.3,0.7c0.5,0.5,0.7,1.4,0.7,2.6v3.5
			C146.9,66,147,66.5,147.1,67z M139.5,66.2v1c-0.4,0.1-0.8,0.1-1.1,0.1c-1.5,0-2.3-0.8-2.3-2.5v-4.9h-1.4v-1h1.4l0.1-2.1l1.2-0.1
			v2.2h1.8v1h-1.8V65c0,0.8,0.4,1.3,1.3,1.3C138.8,66.2,139.1,66.2,139.5,66.2z M127.3,64.9l1.2-0.2c0.3,1,1.1,1.5,2.5,1.5
			c0.5,0,1-0.1,1.3-0.4c0.4-0.2,0.5-0.6,0.5-1c0-0.6-0.5-1-1.4-1.2l-1.7-0.3c-0.7-0.1-1.2-0.4-1.6-0.8c-0.4-0.4-0.6-0.9-0.6-1.5
			c0-0.7,0.3-1.3,0.8-1.7c0.5-0.5,1.2-0.7,2.2-0.7c1.7,0,2.8,0.7,3.2,2.1l-1.1,0.3c-0.3-0.9-1-1.3-2-1.3c-0.5,0-0.9,0.1-1.2,0.3
			s-0.5,0.5-0.5,0.9c0,0.6,0.4,1,1.2,1.1l1.6,0.3c1.6,0.3,2.4,1.1,2.4,2.4c0,0.7-0.3,1.4-0.9,1.8c-0.6,0.5-1.4,0.7-2.4,0.7
			C128.9,67.2,127.7,66.5,127.3,64.9z M125.9,58.9V67h-1.2v-8.2h1.2V58.9z M125.9,56v1.4h-1.3V56H125.9z M115.6,65.9h2.2
			c1.2,0,2-0.4,2.6-1.2c0.6-0.8,0.9-1.9,0.9-3.2c0-1.1-0.3-2.1-0.9-2.9c-0.6-0.9-1.5-1.3-2.7-1.3h-2.2L115.6,65.9L115.6,65.9z
			 M114.3,67V56h3.6c1.5,0,2.7,0.5,3.6,1.6c0.8,1.1,1.3,2.4,1.3,3.9c0,1.6-0.4,2.9-1.2,3.9c-0.8,1.1-1.9,1.6-3.2,1.6H114.3z
			 M105,62.9c-0.5,0-0.9,0-1.2,0c-1,0-1.7,0.2-2.3,0.5c-0.5,0.3-0.8,0.8-0.8,1.4c0,0.4,0.2,0.7,0.4,1c0.3,0.3,0.7,0.4,1.3,0.4
			c0.8,0,1.4-0.3,1.8-0.8c0.5-0.6,0.7-1.2,0.7-2C105,63.3,105,63.2,105,62.9z M106.4,67h-1.2c0-0.3-0.1-0.7-0.1-1.5
			c-0.6,1.1-1.5,1.7-2.8,1.7c-0.9,0-1.6-0.2-2.1-0.7s-0.7-1.1-0.7-1.7c0-0.8,0.3-1.5,1-2s1.8-0.8,3.5-0.8c0.2,0,0.6,0,1.1,0
			c0-0.6,0-1.1-0.2-1.4c-0.1-0.3-0.3-0.5-0.6-0.7c-0.3-0.2-0.7-0.3-1.2-0.3c-1.3,0-2,0.5-2.2,1.5l-1.1-0.2c0.3-1.5,1.5-2.3,3.5-2.3
			c1.1,0,1.9,0.3,2.3,0.7c0.5,0.5,0.7,1.4,0.7,2.6v3.5C106.2,66,106.3,66.5,106.4,67z M93.4,58.9L90.2,68c-0.5,1.3-1.2,2-2.2,2
			c-0.3,0-0.7-0.1-1.1-0.2v-1c0.3,0.1,0.6,0.1,0.8,0.1c0.4,0,0.7-0.1,1-0.3c0.3-0.2,0.5-0.8,0.8-1.7l-2.8-8H88l2.1,6.1l2.2-6.1H93.4
			z M78.8,62.9c-0.5,0-0.9,0-1.2,0c-1,0-1.7,0.2-2.3,0.5c-0.5,0.3-0.8,0.8-0.8,1.4c0,0.4,0.1,0.7,0.4,1s0.7,0.4,1.3,0.4
			c0.8,0,1.4-0.3,1.8-0.8c0.5-0.6,0.7-1.2,0.7-2C78.8,63.3,78.8,63.2,78.8,62.9z M80.1,67h-1.2c0-0.3-0.1-0.7-0.1-1.5
			c-0.6,1.1-1.5,1.7-2.8,1.7c-0.9,0-1.6-0.2-2.1-0.7s-0.7-1.1-0.7-1.7c0-0.8,0.3-1.5,1-2s1.9-0.8,3.5-0.8c0.2,0,0.6,0,1.1,0
			c0-0.6-0.1-1.1-0.1-1.4c-0.1-0.3-0.3-0.5-0.6-0.7c-0.3-0.2-0.7-0.3-1.2-0.3c-1.3,0-2,0.5-2.2,1.5l-1.1-0.2
			c0.3-1.5,1.5-2.3,3.5-2.3c1.1,0,1.9,0.3,2.3,0.7c0.5,0.5,0.7,1.4,0.7,2.6v3.5C80,66,80,66.5,80.1,67z M72.5,66.2v1
			c-0.4,0.1-0.8,0.1-1.1,0.1c-1.5,0-2.3-0.8-2.3-2.5v-4.9h-1.4v-1h1.4l0.1-2.1l1.2-0.1v2.2h1.8v1h-1.8V65c0,0.8,0.4,1.3,1.3,1.3
			C71.8,66.2,72.2,66.2,72.5,66.2z M64.3,67H63v-8.2h1.1v1.9c0.4-0.9,0.8-1.5,1.2-1.7c0.4-0.3,0.8-0.4,1.2-0.4c0.1,0,0.3,0,0.5,0
			v1.2h-0.2c-0.7,0-1.3,0.3-1.7,0.8c-0.5,0.5-0.7,1.2-0.7,2.1L64.3,67L64.3,67z M59.8,62.1c0-0.5-0.1-0.9-0.2-1.2
			c-0.1-0.4-0.4-0.7-0.7-0.9c-0.3-0.3-0.7-0.4-1.2-0.4c-0.6,0-1.1,0.2-1.6,0.7c-0.4,0.5-0.7,1.1-0.7,1.8
			C55.4,62.1,59.8,62.1,59.8,62.1z M59.9,64.6l1.2,0.2c-0.2,0.7-0.6,1.3-1.2,1.7c-0.6,0.5-1.3,0.7-2.2,0.7c-1.1,0-2-0.4-2.6-1.2
			c-0.7-0.8-1-1.8-1-3.1c0-1.3,0.3-2.3,1-3.1s1.6-1.2,2.6-1.2s1.9,0.4,2.5,1.1c0.6,0.7,1,1.8,1,3.3h-5.8c0,1.2,0.3,2.1,0.8,2.5
			s1,0.6,1.6,0.6C58.7,66.2,59.4,65.7,59.9,64.6z M52.1,58.9V67h-1.2v-8.2h1.2V58.9z M52.1,56v1.4h-1.3V56H52.1z M43.4,63.8
			c0.1,0.8,0.3,1.4,0.8,1.8c0.4,0.4,0.9,0.6,1.4,0.6c0.6,0,1.1-0.3,1.5-0.8c0.4-0.6,0.6-1.3,0.6-2.3c0-1-0.2-1.9-0.6-2.5
			c-0.4-0.6-0.9-0.9-1.6-0.9c-0.5,0-1,0.2-1.4,0.6c-0.4,0.4-0.7,1-0.7,1.7V63.8z M42.8,67h-0.6V56h1.2v4.2c0.6-1.1,1.4-1.6,2.4-1.6
			c0.9,0,1.7,0.4,2.3,1.1c0.6,0.7,0.9,1.8,0.9,3.2c0,1.2-0.3,2.2-0.9,3.1c-0.6,0.8-1.4,1.2-2.4,1.2c-1.1,0-1.9-0.5-2.5-1.6L42.8,67z
			 M38.2,62.8l-1.7-5.3l-1.7,5.3H38.2z M41,67h-1.4l-1.1-3.2h-4l-1,3.2h-1.1l3.5-11h1.5L41,67z"/>
	</g>
</g>
<line class="st12" x1="354.5" y1="76.4" x2="354.5" y2="12"/>
</svg>
