<?xml version="1.0" encoding="utf-8"?>
<!-- Generator: Adobe Illustrator 22.1.0, SVG Export Plug-In . SVG Version: 6.00 Build 0)  -->
<svg version="1.1" id="Capa_1" xmlns="http://www.w3.org/2000/svg" xmlns:xlink="http://www.w3.org/1999/xlink" x="0px" y="0px"
	 viewBox="0 0 148.5 60.5" style="enable-background:new 0 0 148.5 60.5;" xml:space="preserve">
<style type="text/css">
	.st0{fill:#F5AD15;}
	.st1{fill:#E35818;}
	.st2{fill:#336C82;}
	.st3{fill:#2E5B6A;}
	.st4{fill:#A5A7AA;}
	.st5{enable-background:new    ;}
	.st6{fill:#666766;}
</style>
<g>
	<path class="st0" d="M100.2,38.1V6.5c0-1.6,0.4-2.9,1.1-3.7s1.7-1.2,2.9-1.2c1.2,0,2.2,0.4,3,1.2s1.1,2,1.1,3.7v31.6
		c0,1.7-0.4,2.9-1.1,3.7c-0.8,0.8-1.7,1.2-3,1.2c-1.2,0-2.1-0.4-2.9-1.2C100.6,41,100.2,39.8,100.2,38.1"/>
	<path class="st1" d="M121.4,34.9h19c1.6,0,2.9,0.4,3.7,1.1c0.8,0.7,1.2,1.7,1.2,2.9s-0.4,2.2-1.2,3s-2,1.1-3.7,1.1h-19
		c-1.7,0-2.9-0.4-3.7-1.1c-0.8-0.8-1.2-1.7-1.2-3c0-1.2,0.4-2.1,1.2-2.9C118.5,35.3,119.7,34.9,121.4,34.9"/>
	<path class="st0" d="M116.1,38.1V6.5c0-1.6,0.4-2.9,1.1-3.7s1.7-1.2,2.9-1.2c1.2,0,2.2,0.4,3,1.2s1.1,2,1.1,3.7v31.6
		c0,1.7-0.4,2.9-1.1,3.7c-0.8,0.8-1.7,1.2-3,1.2c-1.2,0-2.1-0.4-2.9-1.2C116.5,41,116.1,39.8,116.1,38.1"/>
	<path class="st1" d="M73.5,38.9l-11-31.2c-0.6-1.6-0.7-3-0.3-4s1.1-1.8,2.2-2.1c1.1-0.4,2.1-0.3,3.1,0.2c1,0.6,1.7,1.7,2.3,3.3
		l11,31.2c0.6,1.6,0.7,3,0.3,4c-0.4,1.1-1.2,1.8-2.3,2.2c-1.1,0.4-2.1,0.3-3.1-0.3C74.8,41.6,74.1,40.5,73.5,38.9"/>
	<path class="st0" d="M79.3,42.2c-1,0.6-2,0.7-3.1,0.3s-1.9-1.1-2.3-2.2c-0.4-1.1-0.3-2.4,0.3-4l11-31.2c0.6-1.6,1.4-2.7,2.3-3.3
		c1-0.6,2-0.6,3.1-0.2s1.8,1.1,2.2,2.1c0.4,1.1,0.3,2.4-0.3,4l-11,31.2C81.1,40.5,80.3,41.6,79.3,42.2"/>
	<path class="st2" d="M3.3,38.1V6.5c0-1.6,0.4-2.9,1.1-3.7s1.7-1.2,2.9-1.2s2.2,0.4,3,1.2s1.1,2,1.1,3.7v31.6c0,1.7-0.4,2.9-1.1,3.7
		c-0.8,0.8-1.7,1.2-3,1.2c-1.2,0-2.1-0.4-2.9-1.2S3.3,39.8,3.3,38.1"/>
	<path class="st3" d="M19.6,38.1V6.5c0-1.6,0.4-2.9,1.1-3.7s1.7-1.2,2.9-1.2c1.2,0,2.2,0.4,3,1.2s1.1,2,1.1,3.7v31.6
		c0,1.7-0.4,2.9-1.1,3.7c-0.8,0.8-1.7,1.2-3,1.2c-1.2,0-2.1-0.4-2.9-1.2C20,41,19.6,39.8,19.6,38.1"/>
	<path class="st3" d="M45.6,38.1V6.5c0-1.6,0.4-2.9,1.1-3.7c0.7-0.8,1.7-1.2,2.9-1.2s2.2,0.4,3,1.2s1.1,2,1.1,3.7v31.6
		c0,1.7-0.4,2.9-1.1,3.7c-0.8,0.8-1.7,1.2-3,1.2c-1.2,0-2.1-0.4-2.9-1.2C46,41,45.6,39.8,45.6,38.1"/>
	<path class="st2" d="M45.5,40.7L20.6,8.4c-0.9-1.4-1.3-2.6-1.1-3.7c0.2-1.1,0.7-2,1.7-2.6c1-0.7,2.1-0.9,3.1-0.6
		c1.1,0.3,2.1,1.1,3,2.5l24.9,32.3c0.9,1.4,1.3,2.6,1.1,3.7c-0.2,1.1-0.8,2-1.8,2.7c-1,0.6-2,0.8-3.1,0.6
		C47.4,42.9,46.4,42,45.5,40.7"/>
	<rect x="3.3" y="52.4" class="st4" width="91.8" height="0.4"/>
	<g class="st5">
		<path class="st6" d="M107.6,52.2l-0.4,2.2c-0.2,1-0.1,1,1.1,1c0.3,0,1.1,0,1.6-0.1c0.1,0,0.2,0,0.3-0.1c0.2-0.1,0.4,0.1,0.3,0.3
			c-0.1,0.4-0.4,0.6-0.8,0.6c-0.5,0-1.1,0-1.8,0c-0.6,0-1.2,0-1.8,0c-0.3,0-0.5-0.3-0.4-0.6c0.1-0.3,0.2-0.9,0.4-1.9l0.3-1.8
			c0.3-1.7,0.4-2.7,0.5-3.2c0-0.4,0.3-0.7,0.7-0.7c0.5,0,1.1,0,1.6,0c0.7,0,1.3,0,1.8,0c0.2,0,0.4,0.2,0.4,0.5
			c-0.1,0.3-0.3,0.4-0.6,0.4c-0.2,0-0.5-0.1-1.1-0.1c-0.7,0-1.4,0-1.6,0l-0.5,2.6h0.5c0.3,0,0.6,0,0.8,0c0.3,0,0.6,0.2,0.5,0.4
			c-0.1,0.3-0.4,0.5-0.8,0.5C108.4,52.1,107.6,52.2,107.6,52.2z"/>
		<path class="st6" d="M112.3,51.9c0.1-0.5,0.2-1.1,0.2-1.5c0,0,0,0,0-0.1c0-0.3,0.1-0.6,0.4-0.6c0.1,0,0.3,0,0.4-0.1
			c0.3-0.1,0.5,0.2,0.5,0.5c0,0.2-0.2,1-0.3,1.4c0.2-0.3,0.5-1.1,0.8-1.4c0.5-0.4,1-0.6,1.6-0.6c0.6,0,1.5,0.3,1.5,1.2
			c0,0.2,0,0.5-0.1,1l-0.3,1.6c-0.1,0.5-0.3,1.4-0.3,2c0,0.3-0.3,0.6-0.7,0.6c0,0-0.1,0-0.1,0c-0.3,0-0.5-0.2-0.4-0.5
			c0.1-0.4,0.2-0.9,0.4-2.1l0.1-0.8c0.3-1.6,0.4-2.2-0.8-2.2c-0.5,0-1.2,0.4-1.5,0.8c-0.4,0.6-0.6,1.3-0.7,2l-0.2,1.4
			c-0.1,0.4-0.1,0.6-0.1,0.9c0,0.3-0.3,0.5-0.7,0.5c0,0-0.1,0-0.1,0c-0.3,0-0.5-0.2-0.5-0.5c0.1-0.4,0.2-0.9,0.3-1.4L112.3,51.9z"/>
		<path class="st6" d="M123,55.1c-0.3,1.7-0.5,3-2.2,3.6c-0.6,0.2-1.3,0.3-1.9,0.3c-0.3,0-0.6,0-0.9-0.1c-0.3,0-0.4-0.4-0.3-0.6
			c0.1-0.3,0.4-0.4,0.7-0.3c0.2,0.1,0.4,0.1,0.8,0.1c0.7,0,1.3-0.2,1.8-0.7c0.6-0.5,0.8-1.7,1.1-3.4c-0.3,0.5-1.1,2.1-2.2,2.1
			c-0.7,0-1.2-0.3-1.4-0.8c-0.3-0.4-0.3-1-0.3-1.2c0-1.9,1.3-4.6,3.8-4.6c0.6,0,1,0.2,1.3,0.3c0.1,0,0.2-0.1,0.2-0.1
			c0.3-0.1,0.5,0.2,0.4,0.5c-0.1,0.4-0.2,0.8-0.4,1.8L123,55.1z M121.7,50.3c-2.1,0-2.5,2.5-2.5,3.5c0,0.3,0,0.7,0.2,1
			c0.2,0.3,0.5,0.5,0.8,0.5c0.5,0,1-0.4,1.3-0.8c0.4-0.7,0.6-1.6,1.1-3.8C122.5,50.5,122.2,50.3,121.7,50.3z"/>
		<path class="st6" d="M125.9,56.1c-1.1,0-1.2-0.8-1.2-1.4c0-0.4,0.1-0.9,0.1-1c0.1-0.6,0-0.2,0.5-2.8c0.2-1.3,0.3-2,0.3-2.4
			c0-0.3,0.1-0.6,0.4-0.6c0.1,0,0.3,0,0.4-0.1c0.3-0.1,0.5,0.2,0.5,0.5c-0.1,0.4-0.2,1-0.4,2l-0.5,3.2c-0.1,0.6-0.3,1.3-0.2,1.6
			c0,0,0.1,0.4,0.5,0.4c0.3,0,0.4,0,0.6-0.1c0.2-0.1,0.3,0.2,0.2,0.3c-0.1,0.3-0.4,0.5-0.7,0.5C126.3,56.1,126.1,56.1,125.9,56.1z"
			/>
		<path class="st6" d="M129.3,53.2c-0.2,1.2-0.3,1.9-0.3,2.3c0,0.3-0.3,0.5-0.7,0.5c0,0-0.1,0-0.1,0c-0.3,0-0.5-0.3-0.4-0.6
			c0.1-0.3,0.1-0.6,0.2-1.1l0.2-1.1c0.3-1.6,0.4-2.3,0.4-2.7c0-0.3,0.1-0.6,0.4-0.6c0.2,0,0.3,0,0.4-0.1c0.3-0.1,0.5,0.2,0.4,0.5
			c0,0.2-0.1,0.5-0.2,1.1L129.3,53.2z M130.3,48.1c0,0.4-0.3,1-0.8,1c-0.3,0-0.6-0.2-0.6-0.6c0-0.4,0.3-0.9,0.8-0.9
			C130,47.5,130.3,47.7,130.3,48.1z"/>
		<path class="st6" d="M131.6,53.1c-0.3-0.2-0.9-0.6-0.9-1.4c0-0.7,0.4-1.2,0.9-1.7c0.6-0.4,1.4-0.5,1.9-0.5c0.3,0,0.5,0,0.7,0.1
			c0.3,0.1,0.4,0.4,0.3,0.7c-0.1,0.2-0.4,0.3-0.7,0.2c-0.2-0.1-0.4-0.1-0.7-0.1c-0.9,0-1.4,0.6-1.4,1c0,0.5,0.4,0.8,0.9,1l0.6,0.4
			c0.3,0.2,0.8,0.5,0.8,1.2c0,0.5-0.2,1.2-0.9,1.7c-0.7,0.5-1.5,0.5-2,0.5c-0.3,0-0.6,0-0.8-0.1c-0.3-0.1-0.5-0.4-0.4-0.8
			c0.1-0.3,0.4-0.3,0.6-0.2c0.2,0.1,0.5,0.2,1,0.2c0.9,0,1.4-0.5,1.4-1c0-0.4-0.3-0.6-0.7-0.8L131.6,53.1z"/>
		<path class="st6" d="M135.8,50.6c0.2-1.2,0.3-1.9,0.3-2.2c0-0.3,0.1-0.6,0.3-0.6c0.1,0,0.3,0,0.4,0c0.3-0.1,0.6,0.2,0.5,0.5
			c-0.1,0.3-0.1,0.6-0.2,1.2l-0.4,2.1c0.2-0.3,0.6-1.3,1.2-1.6c0.5-0.3,1-0.4,1.3-0.4c0.7,0,1.5,0.4,1.5,1.3c0,0.3,0,0.6-0.2,1.2
			l-0.5,2.6c0,0.3-0.1,0.6-0.1,0.9c0,0.3-0.3,0.6-0.7,0.6c-0.3,0-0.6-0.3-0.5-0.6c0.1-0.2,0.1-0.5,0.2-1l0.5-2.6
			c0.1-0.7,0.2-1.4-0.8-1.4c-0.5,0-1,0.2-1.3,0.6c-0.2,0.2-0.6,0.7-0.8,1.9c0,0.2-0.3,1.7-0.4,2.5c-0.1,0.4-0.4,0.6-0.7,0.6
			c-0.3,0-0.5-0.3-0.4-0.5c0.1-0.3,0.2-0.7,0.4-1.6L135.8,50.6z"/>
	</g>
</g>
</svg>
