<svg id="Capa_1" data-name="Capa 1" xmlns="http://www.w3.org/2000/svg" viewBox="0 0 40 45"><defs><style>.cls-1{fill:#6c938d;}</style></defs><title>act-recording</title><path class="cls-1" d="M28.92,18.21a.73.73,0,0,0-.73-.73H25.33V8A5.33,5.33,0,0,0,14.67,8v9.45H11.82a.73.73,0,0,0-.73.73,8.92,8.92,0,0,0,8.18,8.88v4.66H15.68a.73.73,0,0,0,0,1.46h8.63a.73.73,0,1,0,0-1.46H20.73V27.1a8.92,8.92,0,0,0,8.18-8.88ZM16.13,17.6h7.74v.75a3.87,3.87,0,1,1-7.74,0ZM20,4.16A3.88,3.88,0,0,1,23.87,8v8.11H16.13V8A3.88,3.88,0,0,1,20,4.16ZM12.58,18.94H14.7a5.33,5.33,0,0,0,10.6,0h2.12a7.45,7.45,0,0,1-14.83,0Zm0,0"/><path class="cls-1" d="M2.94,40.62v1.62H1.74V37.79H3.2Q5,37.79,5,39.11a1.31,1.31,0,0,1-.75,1.2l1.3,1.94H4.19l-.94-1.62Zm0-.9h.23q.63,0,.63-.56t-.62-.46H2.94Z"/><path class="cls-1" d="M8.6,42.24H6V37.79H8.6v1H7.16v.7H8.49v1H7.16v.84H8.6Z"/><path class="cls-1" d="M11.36,38.71a.77.77,0,0,0-.67.35,1.7,1.7,0,0,0-.24,1q0,1.28,1,1.28a2,2,0,0,0,.57-.08,5.71,5.71,0,0,0,.56-.2v1a3.09,3.09,0,0,1-1.26.25,2,2,0,0,1-1.54-.58A2.41,2.41,0,0,1,9.22,40a2.69,2.69,0,0,1,.26-1.21,1.86,1.86,0,0,1,.75-.8,2.26,2.26,0,0,1,1.15-.28,3.17,3.17,0,0,1,1.38.31l-.37.95a4.06,4.06,0,0,0-.49-.19A1.72,1.72,0,0,0,11.36,38.71Z"/><path class="cls-1" d="M17.59,40A2.4,2.4,0,0,1,17,41.72a2.11,2.11,0,0,1-1.61.58,2.11,2.11,0,0,1-1.61-.59,2.88,2.88,0,0,1,0-3.41,2.12,2.12,0,0,1,1.61-.59A2.11,2.11,0,0,1,17,38.3,2.4,2.4,0,0,1,17.59,40Zm-3.06,0q0,1.29.9,1.29A.77.77,0,0,0,16.1,41a2.28,2.28,0,0,0,0-2,.76.76,0,0,0-.67-.32Q14.53,38.71,14.53,40Z"/><path class="cls-1" d="M19.59,40.62v1.62h-1.2V37.79h1.46q1.81,0,1.81,1.31a1.31,1.31,0,0,1-.75,1.2l1.3,1.94H20.84l-.94-1.62Zm0-.9h.23q.63,0,.63-.56t-.62-.46h-.24Z"/><path class="cls-1" d="M26.39,39.92a2.3,2.3,0,0,1-.61,1.72,2.36,2.36,0,0,1-1.72.6H22.61V37.79h1.54a2.32,2.32,0,0,1,1.65.55A2.07,2.07,0,0,1,26.39,39.92Zm-1.25,0a1.42,1.42,0,0,0-.24-.91.9.9,0,0,0-.74-.3h-.35v2.49h.27a1,1,0,0,0,.8-.32A1.54,1.54,0,0,0,25.14,40Z"/><path class="cls-1" d="M27.18,42.24V37.79h1.21v4.45Z"/><path class="cls-1" d="M33.59,42.24H32l-1.63-3.13h0q.06.74.06,1.13v2H29.35V37.79h1.57l1.62,3.09h0q0-.67,0-1.08v-2h1.07Z"/><path class="cls-1" d="M36.34,39.64h1.92V42a5.28,5.28,0,0,1-1.72.27,2.08,2.08,0,0,1-1.59-.6,2.39,2.39,0,0,1-.56-1.7A2.23,2.23,0,0,1,35,38.33a2.36,2.36,0,0,1,1.72-.6,3.8,3.8,0,0,1,.79.08,3.33,3.33,0,0,1,.65.2l-.38.94a2.35,2.35,0,0,0-1.06-.24,1,1,0,0,0-.81.34,1.48,1.48,0,0,0-.29,1,1.5,1.5,0,0,0,.26,1,.9.9,0,0,0,.75.33,2.19,2.19,0,0,0,.49-.05v-.7h-.79Z"/></svg>