<svg id="Capa_1" data-name="Capa 1" xmlns="http://www.w3.org/2000/svg" viewBox="0 0 40 45"><defs><style>.cls-1{fill:#6c938d;}</style></defs><title>act-game</title><path class="cls-1" d="M28.88,31.71V26.94a.63.63,0,0,0,0-.09v0l0-.08h0l0-.08h0l0-.07h0L27.07,24l-.58-10.52L28.3,11h0v0l0,0v-.07l0,0v-.14s0,0,0-.06V5.13a.65.65,0,0,0-.64-.64H24.42a.65.65,0,0,0-.64.64V6.91H22.32V5.13a.65.65,0,0,0-.64-.64H18.32a.65.65,0,0,0-.64.64V6.91H16.22V5.13a.65.65,0,0,0-.64-.64H12.22a.65.65,0,0,0-.64.64v5.45s0,0,0,.06v.14l0,.05v.07l0,0v0h0l1.81,2.54L12.93,24l-1.71,2.57h0l0,.07h0l0,.08h0l0,.08v0a.63.63,0,0,0,0,.09v4.77a.64.64,0,0,0,0,1.29H28.88a.64.64,0,0,0,0-1.29ZM14.78,13.95H25.22l.53,9.63H14.25Zm-1.3-2.72h8.33a.64.64,0,1,0,0-1.29H12.87V5.78h2.06V7.56a.65.65,0,0,0,.64.64h2.74A.65.65,0,0,0,19,7.56V5.78H21V7.56a.65.65,0,0,0,.64.64h2.74a.65.65,0,0,0,.64-.64V5.78h2.06V9.93H23.74a.64.64,0,0,0,0,1.29h2.78l-1,1.43h-11ZM12.41,27.58h1.93a.64.64,0,1,0,0-1.29H13l.95-1.43H26.09L27,26.29H16.28a.64.64,0,1,0,0,1.29H27.59v4.12H12.41Zm0,0"/><path class="cls-1" d="M13.91,39.3a1.28,1.28,0,0,0-.32-.17,1.12,1.12,0,0,0-.37-.06,1.06,1.06,0,0,0-.8.34,1.18,1.18,0,0,0-.23.37,1.29,1.29,0,0,0,0,.91,1.16,1.16,0,0,0,.23.37,1.06,1.06,0,0,0,.35.25,1.08,1.08,0,0,0,.45.09h.21l.22,0v-.77a.14.14,0,0,1,0-.09.12.12,0,0,1,.1,0h.8a.17.17,0,0,1,.09,0,.11.11,0,0,1,.05.09V42a.15.15,0,0,1-.09.13,1.6,1.6,0,0,1-.31.16l-.35.11-.37.07-.36,0a2.23,2.23,0,0,1-1.14-.31,2.28,2.28,0,0,1-.81-.81,2.21,2.21,0,0,1-.23-.54,2.27,2.27,0,0,1,.58-2.2,2.21,2.21,0,0,1,.46-.35,2.32,2.32,0,0,1,.54-.23,2.29,2.29,0,0,1,1.27,0,2.29,2.29,0,0,1,.59.28.2.2,0,0,1,.08.08.11.11,0,0,1,0,.11l-.48.69a.21.21,0,0,1-.08.06A.12.12,0,0,1,13.91,39.3Z"/><path class="cls-1" d="M16.83,38.18l0,0,0,0,.05,0h.81a.12.12,0,0,1,.09,0l.05.05.07.17,1.55,4a.09.09,0,0,1,0,.1.14.14,0,0,1-.11,0h-.85a.18.18,0,0,1-.1,0,.16.16,0,0,1-.06-.08l-.12-.3-.11-.3H16.58l-.11.3-.11.3a.15.15,0,0,1-.15.11h-.87a.14.14,0,0,1-.09,0,.07.07,0,0,1,0-.09Zm.54,1.26-.11.32-.11.35-.11.35-.11.32h.91Z"/><path class="cls-1" d="M20.33,38.2a.16.16,0,0,1,0-.09.13.13,0,0,1,.1,0h1a.14.14,0,0,1,.14.11l.8,2.68.81-2.68a.15.15,0,0,1,.15-.11h1a.14.14,0,0,1,.1,0,.14.14,0,0,1,0,.09q.1,1,.21,2.06T25,42.32h0c0,.08,0,.12-.13.12H24a.12.12,0,0,1-.14-.13L23.61,40l-.66,2.3a.17.17,0,0,1,0,.07.1.1,0,0,1-.07,0h-.78a.11.11,0,0,1-.07,0,.13.13,0,0,1,0-.07L21.28,40,21,42.32c0,.09-.05.13-.15.13H20a.11.11,0,0,1-.13-.13Z"/><path class="cls-1" d="M25.76,38.2a.14.14,0,0,1,0-.1.12.12,0,0,1,.1,0h2.93a.13.13,0,0,1,.1,0,.15.15,0,0,1,0,.1v.73a.16.16,0,0,1,0,.1.12.12,0,0,1-.1,0H26.9v.73h1.48a.15.15,0,0,1,.09,0,.1.1,0,0,1,0,.09v.64a.12.12,0,0,1,0,.08.12.12,0,0,1-.09,0H26.9v.76h2a.12.12,0,0,1,.13.13v.74a.07.07,0,0,1,0,.05c0,.06,0,.08-.12.08h-3a.14.14,0,0,1-.09,0,.12.12,0,0,1,0-.1Z"/></svg>