<svg id="Capa_1" data-name="Capa 1" xmlns="http://www.w3.org/2000/svg" viewBox="0 0 40 45"><defs><style>.cls-1{fill:#6c938d;}</style></defs><title>act-activity</title><path class="cls-1" d="M20.22,5.1h-.64A.62.62,0,0,1,19,4.48v0A1.45,1.45,0,0,0,17.51,3h0A1.45,1.45,0,0,0,16,4.46v0a.62.62,0,0,1-.62.62h-.64a1.24,1.24,0,0,0-1.24,1.24v0a1.24,1.24,0,0,0,1.24,1.24h5.46a1.24,1.24,0,0,0,1.24-1.24v0A1.24,1.24,0,0,0,20.22,5.1Zm-2.73,0a.63.63,0,1,1,.63-.63.63.63,0,0,1-.63.63Zm2.79,24.24H9.76a1.67,1.67,0,0,1-1.67-1.67V7.61A1.67,1.67,0,0,1,9.34,5.94h3.39a2.16,2.16,0,0,0,0,.43,2.08,2.08,0,0,0,2.08,2.08h5.46a2.1,2.1,0,0,0,2-2.51h2.55c1.34,0,2.09.75,2.09,1.67V20.17l-.42,0a6.65,6.65,0,0,0-1.67.22V10.54H10.18V27.25h9.63a6.64,6.64,0,0,0,.47,2.09Zm6.19-7.94a5.43,5.43,0,1,0,5.43,5.43,5.43,5.43,0,0,0-5.43-5.43ZM30,25.72l-3.34,3.76a.84.84,0,0,1-1.15.1L23.45,27.9a.84.84,0,0,1,1-1.31L26,27.77l2.82-3.17A.84.84,0,1,1,30,25.72Zm-7.31-8.08H16a.42.42,0,0,1-.42-.42V16.8a.42.42,0,0,1,.42-.42h6.69a.42.42,0,0,1,.42.42v.42a.42.42,0,0,1-.42.42Zm0-3.76H16a.42.42,0,0,1-.42-.42V13a.42.42,0,0,1,.42-.42h6.69a.42.42,0,0,1,.42.42v.42a.42.42,0,0,1-.42.42ZM20.63,21H16a.42.42,0,0,1-.42-.42v-.42a.42.42,0,0,1,.42-.42h4.6a.42.42,0,0,1,.42.42v.42a.42.42,0,0,1-.42.42Zm-.84,3.76H16a.42.42,0,0,1-.42-.42v-.42a.42.42,0,0,1,.42-.42h3.76a.42.42,0,0,1,.42.42v.42a.42.42,0,0,1-.42.42Zm-5-12.41-1.54,1.73a.38.38,0,0,1-.53,0l-1-.77a.38.38,0,1,1,.48-.6l.68.54,1.3-1.46a.38.38,0,1,1,.58.51Zm0,3.72-1.54,1.73a.38.38,0,0,1-.53,0l-1-.77a.38.38,0,1,1,.48-.6l.68.54,1.3-1.46a.38.38,0,1,1,.58.51Zm0,3.56-1.54,1.73a.39.39,0,0,1-.53,0l-1-.77a.38.38,0,1,1,.48-.6l.68.54,1.3-1.46a.38.38,0,1,1,.58.51Zm0,3.58-1.54,1.73a.38.38,0,0,1-.53,0l-1-.77a.38.38,0,1,1,.48-.6l.68.54,1.3-1.46a.38.38,0,1,1,.58.51Zm0,0"/><path class="cls-1" d="M8.84,41.92l-.22-.83H7.18L7,41.92H5.63l1.45-4.47h1.6l1.47,4.47ZM8.37,40.1l-.19-.73L8,38.74q-.1-.39-.13-.55c0,.1-.05.27-.11.51s-.17.71-.36,1.4Z"/><path class="cls-1" d="M12.62,38.4a.77.77,0,0,0-.67.35,1.7,1.7,0,0,0-.24,1q0,1.28,1,1.28a2,2,0,0,0,.57-.08,5.71,5.71,0,0,0,.56-.2v1a3.09,3.09,0,0,1-1.26.25A2,2,0,0,1,11,41.4a2.41,2.41,0,0,1-.54-1.69,2.69,2.69,0,0,1,.26-1.21,1.86,1.86,0,0,1,.75-.8,2.26,2.26,0,0,1,1.15-.28,3.17,3.17,0,0,1,1.38.31l-.37.95a4.06,4.06,0,0,0-.49-.19A1.72,1.72,0,0,0,12.62,38.4Z"/><path class="cls-1" d="M16.64,41.92h-1.2V38.46H14.36v-1h3.37v1H16.64Z"/><path class="cls-1" d="M18.36,41.92V37.48h1.21v4.45Z"/><path class="cls-1" d="M23,37.48h1.34l-1.46,4.45H21.51l-1.45-4.45H21.4L22,39.73a6.91,6.91,0,0,1,.21,1q0-.21.09-.53c0-.21.08-.38.11-.5Z"/><path class="cls-1" d="M24.86,41.92V37.48h1.21v4.45Z"/><path class="cls-1" d="M29,41.92h-1.2V38.46H26.7v-1h3.37v1H29Z"/><path class="cls-1" d="M32.3,39.12l.77-1.65h1.3l-1.46,2.71v1.74H31.69v-1.7l-1.46-2.75h1.31Z"/></svg>