<svg id="Capa_1" data-name="Capa 1" xmlns="http://www.w3.org/2000/svg" viewBox="0 0 40 45"><defs><style>.cls-1{fill:#6c938d;}</style></defs><title>act-writing</title><path class="cls-1" d="M34.3,7.6a4.74,4.74,0,0,0-1.36-3l-.19-.19a4.37,4.37,0,0,0-3.11-1.31,4.07,4.07,0,0,0-2.89,1.19L8.8,22.18c-1.38,1.38-2.81,7-3.08,8.12a.89.89,0,0,0,.24.84l.19.19a.89.89,0,0,0,.63.26l.19,0c1.13-.25,6.87-1.57,8.26-3L33.18,10.69A4,4,0,0,0,34.3,7.6ZM26.22,9.73a.45.45,0,0,0,.63,0L28.2,8.38l.85.85L13.4,24.87,12.56,24l13-13a.45.45,0,0,0-.63-.63l-13,13-.9-.9L26.66,6.84l.9.9L26.22,9.09A.45.45,0,0,0,26.22,9.73Zm4.36,1L14.94,26.4l-.9-.9L29.68,9.86ZM8.5,27l1.83,1.83c-.85.25-1.74.49-2.57.7C8,28.75,8.23,27.87,8.5,27Zm2.79,1.53L8.82,26.09a9,9,0,0,1,1.24-2.64l.33-.33,2.7,2.7h0L14.3,27l-.33.33A8.69,8.69,0,0,1,11.29,28.57ZM31.91,9.43l-.7.7L30,8.91h0L28.51,7.43h0L27.3,6.21l.7-.7a2.29,2.29,0,0,1,1.63-.66,2.61,2.61,0,0,1,1.85.78l.19.19a2.94,2.94,0,0,1,.84,1.88A2.21,2.21,0,0,1,31.91,9.43Z"/><path class="cls-1" d="M11.37,41.88H9.94l-.43-1.94q0-.12-.1-.48t-.1-.61q0,.2-.08.49t-.11.54l-.44,2H7.27l-1.1-4.45H7.33l.48,2.23Q8,40.4,8,40.84q0-.31.14-.84t.19-.88l.39-1.68H9.88l.38,1.68q.1.4.2.93t.13.79q0-.34.22-1.17l.49-2.24h1.16Z"/><path class="cls-1" d="M14.24,40.26v1.62H13V37.43h1.46q1.81,0,1.81,1.31a1.31,1.31,0,0,1-.75,1.2l1.3,1.94H15.49l-.94-1.62Zm0-.9h.23q.63,0,.63-.56t-.62-.46h-.24Z"/><path class="cls-1" d="M17.25,41.88V37.43h1.21v4.45Z"/><path class="cls-1" d="M21.39,41.88h-1.2V38.41H19.1v-1h3.37v1H21.39Z"/><path class="cls-1" d="M23.11,41.88V37.43h1.21v4.45Z"/><path class="cls-1" d="M29.51,41.88H27.94l-1.63-3.13h0q.06.74.06,1.13v2H25.28V37.43h1.57l1.62,3.09h0q0-.67,0-1.08v-2h1.07Z"/><path class="cls-1" d="M32.26,39.27h1.92v2.4a5.28,5.28,0,0,1-1.72.27,2.08,2.08,0,0,1-1.59-.6,2.39,2.39,0,0,1-.56-1.7A2.23,2.23,0,0,1,30.93,38a2.36,2.36,0,0,1,1.72-.6,3.8,3.8,0,0,1,.79.08,3.33,3.33,0,0,1,.65.2l-.38.94a2.35,2.35,0,0,0-1.06-.24,1,1,0,0,0-.81.34,1.48,1.48,0,0,0-.29,1,1.5,1.5,0,0,0,.26,1,.9.9,0,0,0,.75.33,2.19,2.19,0,0,0,.49-.05v-.7h-.79Z"/></svg>