<svg id="Layer_1" data-name="Layer 1" xmlns="http://www.w3.org/2000/svg" viewBox="0 0 300 300"><defs><style>.cls-1{fill:#ed1c24;}</style></defs><title>Avatar</title><path class="cls-1" d="M224.29,258.75a3.5,3.5,0,0,1-3.5-3.5,57.49,57.49,0,0,0-25.36-47.69,3.5,3.5,0,1,1,3.92-5.8,64.48,64.48,0,0,1,28.44,53.49A3.5,3.5,0,0,1,224.29,258.75Z"/><path d="M246.16,258.75a3.5,3.5,0,0,1-3.5-3.5,90.5,90.5,0,0,0-181,0,3.5,3.5,0,0,1-7,0,97.5,97.5,0,0,1,195,0A3.5,3.5,0,0,1,246.16,258.75Z"/><path d="M152.16,151.16A53.83,53.83,0,1,1,206,97.33,53.89,53.89,0,0,1,152.16,151.16Zm0-100.66A46.83,46.83,0,1,0,199,97.33,46.88,46.88,0,0,0,152.16,50.5Z"/></svg>