<?xml version="1.0" encoding="utf-8"?>
<!-- Generator: Adobe Illustrator 22.0.1, SVG Export Plug-In . SVG Version: 6.00 Build 0)  -->
<svg version="1.1" id="Capa_1" xmlns="http://www.w3.org/2000/svg" xmlns:xlink="http://www.w3.org/1999/xlink" x="0px" y="0px"
	 viewBox="0 0 45 45" style="enable-background:new 0 0 45 45;" xml:space="preserve">
<style type="text/css">
	.st0{fill:#2E2F2C;}
	.st1{fill:#828282;}
	.st2{fill:#222222;}
	.st3{opacity:0.5;}
	.st4{fill:#262626;}
	.st5{fill:#9BC7C2;}
	.st6{fill:#F1F4EA;}
</style>
<title>logo-english</title>
<g>
	<g>
		<path class="st0" d="M19.2,40.7L4.1,25.6c-1.7-1.7-1.7-4.5,0-6.2L19.2,4.3c1.7-1.7,4.5-1.7,6.2,0l15.1,15.1c1.7,1.7,1.7,4.5,0,6.2
			L25.4,40.7C23.7,42.4,20.9,42.4,19.2,40.7z"/>
	</g>
	<g>
		<path class="st1" d="M18.6,41.8c-1.5,0-2.9-0.7-3.7-2l0,0L3,22.1c-0.7-1-0.9-2.2-0.7-3.4c0.2-1.2,0.9-2.2,1.9-2.9L21.9,4
			c2.1-1.4,4.9-0.8,6.3,1.2L40,22.9c0.7,1,0.9,2.2,0.7,3.4c-0.2,1.2-0.9,2.2-1.9,2.9L21.1,41C20.3,41.5,19.5,41.8,18.6,41.8z
			 M15,39.7c1.3,2,4,2.5,6,1.2L38.7,29c1-0.6,1.6-1.6,1.8-2.8c0.2-1.1,0-2.3-0.6-3.2L28,5.3c-1.3-2-4-2.5-6-1.2L4.3,16
			c-1,0.6-1.6,1.6-1.8,2.8c-0.2,1.1,0,2.3,0.6,3.2L15,39.7z"/>
	</g>
	<g>
		<path class="st2" d="M26.6,41.9c-0.2,0-0.4,0-0.6,0c-0.1,0-0.2-0.1-0.2-0.2c0-0.1,0.1-0.2,0.2-0.2c0.2,0,0.5,0,0.7,0
			c0.1,0,0.2,0.1,0.2,0.2c0,0.1-0.1,0.2-0.2,0.2C26.7,41.9,26.6,41.9,26.6,41.9z M27.4,41.8c-0.1,0-0.2-0.1-0.2-0.1
			c0-0.1,0-0.2,0.1-0.2c0.2,0,0.5-0.1,0.7-0.2c0.1,0,0.2,0,0.2,0.1c0,0.1,0,0.2-0.1,0.2C28,41.7,27.7,41.8,27.4,41.8
			C27.5,41.8,27.5,41.8,27.4,41.8z M25.3,41.7C25.2,41.7,25.2,41.7,25.3,41.7c-0.3-0.1-0.5-0.2-0.8-0.3c-0.1,0-0.1-0.2-0.1-0.2
			c0-0.1,0.2-0.1,0.2-0.1c0.2,0.1,0.4,0.2,0.7,0.3c0.1,0,0.2,0.1,0.1,0.2C25.4,41.6,25.3,41.7,25.3,41.7z M28.8,41.3
			c-0.1,0-0.1,0-0.2-0.1c-0.1-0.1,0-0.2,0.1-0.3c0.2-0.1,0.4-0.3,0.6-0.4c0.1-0.1,0.2-0.1,0.3,0c0.1,0.1,0.1,0.2,0,0.3
			C29.3,41,29.1,41.1,28.8,41.3C28.9,41.3,28.8,41.3,28.8,41.3z M24.2,41.2c0,0-0.1,0-0.1,0l-0.6-0.4c-0.1-0.1-0.1-0.2-0.1-0.3
			c0.1-0.1,0.2-0.1,0.3-0.1l0.6,0.4c0.1,0.1,0.1,0.2,0.1,0.3C24.3,41.2,24.2,41.2,24.2,41.2z M22.9,40.4c0,0-0.1,0-0.1,0L22.2,40
			c-0.1-0.1-0.1-0.2-0.1-0.3c0.1-0.1,0.2-0.1,0.3-0.1l0.6,0.4c0.1,0.1,0.1,0.2,0.1,0.3C23.1,40.4,23,40.4,22.9,40.4z M29.9,40.4
			c0,0-0.1,0-0.1,0c-0.1-0.1-0.1-0.2,0-0.3c0.1-0.1,0.2-0.3,0.3-0.4l0.1-0.1c0.1-0.1,0.2-0.1,0.3-0.1c0.1,0.1,0.1,0.2,0.1,0.3
			l-0.1,0.1c-0.1,0.2-0.2,0.3-0.4,0.5C30,40.3,30,40.4,29.9,40.4z M21.7,39.6c0,0-0.1,0-0.1,0L21,39.2c-0.1-0.1-0.1-0.2-0.1-0.3
			c0.1-0.1,0.2-0.1,0.3-0.1l0.6,0.4c0.1,0.1,0.1,0.2,0.1,0.3C21.8,39.6,21.8,39.6,21.7,39.6z M30.8,39.1c0,0-0.1,0-0.1,0
			c-0.1-0.1-0.1-0.2-0.1-0.3l0.4-0.6c0.1-0.1,0.2-0.1,0.3-0.1c0.1,0.1,0.1,0.2,0.1,0.3l-0.4,0.6C30.9,39.1,30.8,39.1,30.8,39.1z
			 M20.5,38.8c0,0-0.1,0-0.1,0l-0.6-0.4c-0.1-0.1-0.1-0.2-0.1-0.3C19.8,38,19.9,38,20,38l0.6,0.4c0.1,0.1,0.1,0.2,0.1,0.3
			C20.6,38.8,20.5,38.8,20.5,38.8z M19.2,38c0,0-0.1,0-0.1,0l-0.6-0.4c-0.1-0.1-0.1-0.2-0.1-0.3c0.1-0.1,0.2-0.1,0.3-0.1l0.6,0.4
			c0.1,0.1,0.1,0.2,0.1,0.3C19.4,38,19.3,38,19.2,38z M31.6,37.9c0,0-0.1,0-0.1,0c-0.1-0.1-0.1-0.2-0.1-0.3l0.4-0.6
			c0.1-0.1,0.2-0.1,0.3-0.1c0.1,0.1,0.1,0.2,0.1,0.3l-0.4,0.6C31.7,37.9,31.6,37.9,31.6,37.9z M18,37.2c0,0-0.1,0-0.1,0l-0.6-0.4
			c-0.1-0.1-0.1-0.2-0.1-0.3c0.1-0.1,0.2-0.1,0.3-0.1l0.6,0.4c0.1,0.1,0.1,0.2,0.1,0.3C18.1,37.2,18.1,37.2,18,37.2z M32.4,36.7
			c0,0-0.1,0-0.1,0c-0.1-0.1-0.1-0.2-0.1-0.3l0.4-0.6c0.1-0.1,0.2-0.1,0.3-0.1c0.1,0.1,0.1,0.2,0.1,0.3l-0.4,0.6
			C32.5,36.6,32.4,36.7,32.4,36.7z M16.8,36.4c0,0-0.1,0-0.1,0L16.1,36c-0.1-0.1-0.1-0.2-0.1-0.3c0.1-0.1,0.2-0.1,0.3-0.1l0.6,0.4
			c0.1,0.1,0.1,0.2,0.1,0.3C16.9,36.4,16.8,36.4,16.8,36.4z M15.5,35.6c0,0-0.1,0-0.1,0l-0.6-0.4c-0.1-0.1-0.1-0.2-0.1-0.3
			c0.1-0.1,0.2-0.1,0.3-0.1l0.6,0.4c0.1,0.1,0.1,0.2,0.1,0.3C15.7,35.6,15.6,35.6,15.5,35.6z M33.2,35.4c0,0-0.1,0-0.1,0
			C33,35.4,33,35.2,33,35.2l0.4-0.6c0.1-0.1,0.2-0.1,0.3-0.1c0.1,0.1,0.1,0.2,0.1,0.3l-0.4,0.6C33.3,35.4,33.2,35.4,33.2,35.4z
			 M14.3,34.8c0,0-0.1,0-0.1,0l-0.6-0.4c-0.1-0.1-0.1-0.2-0.1-0.3c0.1-0.1,0.2-0.1,0.3-0.1l0.6,0.4c0.1,0.1,0.1,0.2,0.1,0.3
			C14.4,34.8,14.4,34.8,14.3,34.8z M34,34.2c0,0-0.1,0-0.1,0c-0.1-0.1-0.1-0.2-0.1-0.3l0.4-0.6c0.1-0.1,0.2-0.1,0.3-0.1
			c0.1,0.1,0.1,0.2,0.1,0.3l-0.4,0.6C34.1,34.2,34,34.2,34,34.2z M13.1,34c0,0-0.1,0-0.1,0l-0.6-0.4c-0.1-0.1-0.1-0.2-0.1-0.3
			c0.1-0.1,0.2-0.1,0.3-0.1l0.6,0.4c0.1,0.1,0.1,0.2,0.1,0.3C13.2,34,13.1,34,13.1,34z M11.8,33.2c0,0-0.1,0-0.1,0l-0.6-0.4
			c-0.1-0.1-0.1-0.2-0.1-0.3c0.1-0.1,0.2-0.1,0.3-0.1l0.6,0.4C12,32.9,12,33,12,33.1C12,33.2,11.9,33.2,11.8,33.2z M34.8,33
			c0,0-0.1,0-0.1,0c-0.1-0.1-0.1-0.2-0.1-0.3l0.4-0.6c0.1-0.1,0.2-0.1,0.3-0.1c0.1,0.1,0.1,0.2,0.1,0.3l-0.4,0.6
			C34.9,32.9,34.8,33,34.8,33z M10.6,32.4c0,0-0.1,0-0.1,0L9.9,32c-0.1-0.1-0.1-0.2-0.1-0.3c0.1-0.1,0.2-0.1,0.3-0.1l0.6,0.4
			c0.1,0.1,0.1,0.2,0.1,0.3C10.7,32.4,10.7,32.4,10.6,32.4z M35.6,31.7c0,0-0.1,0-0.1,0c-0.1-0.1-0.1-0.2-0.1-0.3l0.4-0.6
			c0.1-0.1,0.2-0.1,0.3-0.1c0.1,0.1,0.1,0.2,0.1,0.3l-0.4,0.6C35.7,31.7,35.6,31.7,35.6,31.7z M9.4,31.6c0,0-0.1,0-0.1,0l-0.6-0.4
			c-0.1-0.1-0.1-0.2-0.1-0.3c0.1-0.1,0.2-0.1,0.3-0.1l0.6,0.4c0.1,0.1,0.1,0.2,0.1,0.3C9.5,31.6,9.4,31.6,9.4,31.6z M8.1,30.8
			c0,0-0.1,0-0.1,0l-0.6-0.4c-0.1-0.1-0.1-0.2-0.1-0.3C7.4,30,7.5,30,7.6,30l0.6,0.4c0.1,0.1,0.1,0.2,0.1,0.3
			C8.3,30.8,8.2,30.8,8.1,30.8z M36.4,30.5c0,0-0.1,0-0.1,0c-0.1-0.1-0.1-0.2-0.1-0.3l0.4-0.6c0.1-0.1,0.2-0.1,0.3-0.1
			c0.1,0.1,0.1,0.2,0.1,0.3l-0.4,0.6C36.5,30.5,36.4,30.5,36.4,30.5z M6.9,30c0,0-0.1,0-0.1,0l-0.6-0.4l0.2-0.3L7,29.6
			c0.1,0.1,0.1,0.2,0.1,0.3C7,30,7,30,6.9,30z M37.2,29.3c0,0-0.1,0-0.1,0C37,29.2,37,29.1,37,29l0.4-0.6c0.1-0.1,0.2-0.1,0.3-0.1
			c0.1,0.1,0.1,0.2,0.1,0.3l-0.4,0.6C37.3,29.2,37.2,29.3,37.2,29.3z M5.7,29.1c0,0-0.1,0-0.1,0c-0.2-0.2-0.4-0.4-0.5-0.6
			c-0.1-0.1,0-0.2,0-0.3c0.1-0.1,0.2,0,0.3,0c0.1,0.2,0.3,0.4,0.5,0.5c0.1,0.1,0.1,0.2,0,0.3C5.8,29.1,5.8,29.1,5.7,29.1z M38,28
			c0,0-0.1,0-0.1,0c-0.1-0.1-0.1-0.2-0.1-0.3l0.4-0.6c0.1-0.1,0.2-0.1,0.3-0.1c0.1,0.1,0.1,0.2,0.1,0.3L38.1,28C38.1,28,38,28,38,28
			z M4.8,28c-0.1,0-0.1,0-0.2-0.1c-0.1-0.2-0.2-0.5-0.3-0.7c0-0.1,0-0.2,0.1-0.2c0.1,0,0.2,0,0.2,0.1c0.1,0.2,0.2,0.4,0.3,0.6
			C5,27.8,5,27.9,4.8,28C4.9,28,4.8,28,4.8,28z M38.8,26.8c0,0-0.1,0-0.1,0c-0.1-0.1-0.1-0.2-0.1-0.3l0.4-0.6
			c0.1-0.1,0.2-0.1,0.3-0.1c0.1,0.1,0.1,0.2,0.1,0.3l-0.4,0.6C38.9,26.8,38.8,26.8,38.8,26.8z M4.3,26.6c-0.1,0-0.2-0.1-0.2-0.2
			c0-0.2-0.1-0.5-0.1-0.7l0.2,0h0.2c0,0.3,0,0.5,0.1,0.7C4.5,26.5,4.5,26.6,4.3,26.6C4.4,26.6,4.4,26.6,4.3,26.6z M39.6,25.6
			c0,0-0.1,0-0.1,0c-0.1-0.1-0.1-0.2-0.1-0.3l0.4-0.6c0.1-0.1,0.2-0.1,0.3-0.1c0.1,0.1,0.1,0.2,0.1,0.3l-0.4,0.6
			C39.7,25.5,39.6,25.6,39.6,25.6z M4.4,25.1C4.3,25.1,4.3,25.1,4.4,25.1c-0.1,0-0.2-0.1-0.2-0.2c0-0.3,0.1-0.5,0.2-0.7
			c0-0.1,0.1-0.1,0.2-0.1c0.1,0,0.1,0.1,0.1,0.2c-0.1,0.2-0.1,0.4-0.2,0.7C4.5,25.1,4.4,25.1,4.4,25.1z M40.4,24.3c0,0-0.1,0-0.1,0
			c-0.1-0.1-0.1-0.2-0.1-0.3l0.4-0.6c0.1-0.1,0.2-0.1,0.3-0.1c0.1,0.1,0.1,0.2,0.1,0.3l-0.4,0.6C40.5,24.3,40.4,24.3,40.4,24.3z
			 M4.8,23.7C4.8,23.7,4.8,23.7,4.8,23.7c-0.2-0.1-0.2-0.2-0.2-0.3c0-0.1,0.1-0.2,0.2-0.3l0.2-0.4c0.1-0.1,0.2-0.1,0.3-0.1
			c0.1,0.1,0.1,0.2,0.1,0.3l-0.2,0.4C5.1,23.5,5,23.6,5,23.6C5,23.7,4.9,23.7,4.8,23.7z M41.2,23.1c0,0-0.1,0-0.1,0
			C41,23,41,22.9,41,22.8l0.4-0.6c0.1-0.1,0.2-0.1,0.3-0.1c0.1,0.1,0.1,0.2,0.1,0.3L41.3,23C41.3,23.1,41.2,23.1,41.2,23.1z
			 M5.6,22.5c0,0-0.1,0-0.1,0c-0.1-0.1-0.1-0.2-0.1-0.3l0.4-0.6c0.1-0.1,0.2-0.1,0.3-0.1s0.1,0.2,0.1,0.3l-0.4,0.6
			C5.8,22.5,5.7,22.5,5.6,22.5z M42,21.9C41.9,21.9,41.9,21.9,42,21.9c-0.2-0.1-0.2-0.2-0.2-0.3c0.1-0.2,0.2-0.4,0.3-0.6
			c0-0.1,0.1-0.1,0.2-0.1c0.1,0,0.1,0.1,0.1,0.2c-0.1,0.2-0.2,0.5-0.3,0.7C42.1,21.8,42,21.9,42,21.9z M6.4,21.3
			C6.4,21.3,6.4,21.3,6.4,21.3c-0.2-0.1-0.2-0.2-0.2-0.3l0.4-0.6c0.1-0.1,0.2-0.1,0.3-0.1C7,20.4,7,20.5,7,20.6l-0.4,0.6
			C6.6,21.2,6.5,21.3,6.4,21.3z M42.5,20.5C42.5,20.5,42.5,20.5,42.5,20.5c-0.1,0-0.2-0.1-0.2-0.2c0-0.2,0.1-0.5,0.1-0.7
			c0-0.1,0.1-0.2,0.2-0.2c0.1,0,0.2,0.1,0.2,0.2c0,0.3,0,0.5-0.1,0.8C42.7,20.4,42.6,20.5,42.5,20.5z M7.2,20c0,0-0.1,0-0.1,0
			C7,19.9,7,19.8,7.1,19.7l0.4-0.6C7.5,19,7.6,19,7.7,19.1c0.1,0.1,0.1,0.2,0.1,0.3l-0.4,0.6C7.4,20,7.3,20,7.2,20z M42.6,19
			c-0.1,0-0.2-0.1-0.2-0.2c0-0.2-0.1-0.5-0.1-0.7c0-0.1,0-0.2,0.1-0.2c0.1,0,0.2,0,0.2,0.1c0.1,0.2,0.1,0.5,0.2,0.7
			C42.7,18.9,42.7,19,42.6,19C42.6,19,42.6,19,42.6,19z M8,18.8c0,0-0.1,0-0.1,0c-0.1-0.1-0.1-0.2-0.1-0.3l0.4-0.6
			c0.1-0.1,0.2-0.1,0.3-0.1c0.1,0.1,0.1,0.2,0.1,0.3l-0.4,0.6C8.2,18.8,8.1,18.8,8,18.8z M42.1,17.6c-0.1,0-0.1,0-0.2-0.1
			c-0.1-0.2-0.2-0.4-0.4-0.6c-0.1-0.1,0-0.2,0-0.3c0.1-0.1,0.2,0,0.3,0c0.1,0.2,0.3,0.4,0.4,0.7C42.3,17.5,42.3,17.6,42.1,17.6
			C42.2,17.6,42.2,17.6,42.1,17.6z M8.8,17.6C8.8,17.6,8.8,17.6,8.8,17.6c-0.2-0.1-0.2-0.2-0.2-0.3l0.4-0.6c0.1-0.1,0.2-0.1,0.3-0.1
			c0.1,0.1,0.1,0.2,0.1,0.3L9,17.5C9,17.5,8.9,17.6,8.8,17.6z M41.3,16.5c0,0-0.1,0-0.1-0.1c-0.2-0.2-0.3-0.3-0.5-0.4
			c-0.1-0.1-0.1-0.2,0-0.3c0.1-0.1,0.2-0.1,0.3,0c0.2,0.1,0.4,0.3,0.6,0.5c0.1,0.1,0.1,0.2,0,0.3C41.4,16.4,41.3,16.5,41.3,16.5z
			 M9.6,16.3c0,0-0.1,0-0.1,0c-0.1-0.1-0.1-0.2-0.1-0.3l0.4-0.6c0.1-0.1,0.2-0.1,0.3-0.1c0.1,0.1,0.1,0.2,0.1,0.3l-0.4,0.6
			C9.8,16.3,9.7,16.3,9.6,16.3z M40.1,15.6c0,0-0.1,0-0.1,0l-0.6-0.4c-0.1-0.1-0.1-0.2-0.1-0.3c0.1-0.1,0.2-0.1,0.3-0.1l0.6,0.4
			c0.1,0.1,0.1,0.2,0.1,0.3C40.2,15.6,40.1,15.6,40.1,15.6z M10.4,15.1c0,0-0.1,0-0.1,0c-0.1-0.1-0.1-0.2-0.1-0.3l0.4-0.6
			c0.1-0.1,0.2-0.1,0.3-0.1c0.1,0.1,0.1,0.2,0.1,0.3L10.6,15C10.6,15.1,10.5,15.1,10.4,15.1z M38.9,14.8c0,0-0.1,0-0.1,0l-0.6-0.4
			c-0.1-0.1-0.1-0.2-0.1-0.3c0.1-0.1,0.2-0.1,0.3-0.1l0.6,0.4c0.1,0.1,0.1,0.2,0.1,0.3C39,14.8,38.9,14.8,38.9,14.8z M37.6,14
			c0,0-0.1,0-0.1,0l-0.6-0.4c-0.1-0.1-0.1-0.2-0.1-0.3c0.1-0.1,0.2-0.1,0.3-0.1l0.6,0.4c0.1,0.1,0.1,0.2,0.1,0.3
			C37.7,14,37.7,14,37.6,14z M11.2,13.9c0,0-0.1,0-0.1,0c-0.1-0.1-0.1-0.2-0.1-0.3l0.4-0.6c0.1-0.1,0.2-0.1,0.3-0.1
			c0.1,0.1,0.1,0.2,0.1,0.3l-0.4,0.6C11.4,13.8,11.3,13.9,11.2,13.9z M36.4,13.2c0,0-0.1,0-0.1,0l-0.6-0.4c-0.1-0.1-0.1-0.2-0.1-0.3
			c0.1-0.1,0.2-0.1,0.3-0.1l0.6,0.4c0.1,0.1,0.1,0.2,0.1,0.3C36.5,13.2,36.4,13.2,36.4,13.2z M12,12.6c0,0-0.1,0-0.1,0
			c-0.1-0.1-0.1-0.2-0.1-0.3l0.4-0.6c0.1-0.1,0.2-0.1,0.3-0.1c0.1,0.1,0.1,0.2,0.1,0.3l-0.4,0.6C12.2,12.6,12.1,12.6,12,12.6z
			 M35.2,12.4c0,0-0.1,0-0.1,0l-0.6-0.4c-0.1-0.1-0.1-0.2-0.1-0.3c0.1-0.1,0.2-0.1,0.3-0.1l0.6,0.4c0.1,0.1,0.1,0.2,0.1,0.3
			C35.3,12.3,35.2,12.4,35.2,12.4z M33.9,11.6c0,0-0.1,0-0.1,0l-0.6-0.4c-0.1-0.1-0.1-0.2-0.1-0.3c0.1-0.1,0.2-0.1,0.3-0.1l0.6,0.4
			c0.1,0.1,0.1,0.2,0.1,0.3C34,11.5,34,11.6,33.9,11.6z M12.8,11.4c0,0-0.1,0-0.1,0c-0.1-0.1-0.1-0.2-0.1-0.3l0.4-0.6
			c0.1-0.1,0.2-0.1,0.3-0.1c0.1,0.1,0.1,0.2,0.1,0.3L13,11.3C13,11.4,12.9,11.4,12.8,11.4z M32.7,10.8c0,0-0.1,0-0.1,0L32,10.3
			c-0.1-0.1-0.1-0.2-0.1-0.3C32,10,32.1,10,32.2,10l0.6,0.4c0.1,0.1,0.1,0.2,0.1,0.3C32.8,10.7,32.7,10.8,32.7,10.8z M13.6,10.2
			c0,0-0.1,0-0.1,0c-0.1-0.1-0.1-0.2-0.1-0.3l0.4-0.6c0.1-0.1,0.2-0.1,0.3-0.1c0.1,0.1,0.1,0.2,0.1,0.3l-0.4,0.6
			C13.8,10.1,13.7,10.2,13.6,10.2z M31.5,10c0,0-0.1,0-0.1,0l-0.6-0.4c-0.1-0.1-0.1-0.2-0.1-0.3c0.1-0.1,0.2-0.1,0.3-0.1l0.6,0.4
			c0.1,0.1,0.1,0.2,0.1,0.3C31.6,9.9,31.5,10,31.5,10z M30.2,9.2c0,0-0.1,0-0.1,0l-0.6-0.4c-0.1-0.1-0.1-0.2-0.1-0.3
			c0.1-0.1,0.2-0.1,0.3-0.1l0.6,0.4c0.1,0.1,0.1,0.2,0.1,0.3C30.3,9.1,30.3,9.2,30.2,9.2z M14.4,8.9c0,0-0.1,0-0.1,0
			c-0.1-0.1-0.1-0.2-0.1-0.3L14.7,8c0.1-0.1,0.2-0.1,0.3-0.1C15,8,15,8.1,15,8.2l-0.4,0.6C14.6,8.9,14.5,8.9,14.4,8.9z M29,8.4
			c0,0-0.1,0-0.1,0l-0.6-0.4c-0.1-0.1-0.1-0.2-0.1-0.3c0.1-0.1,0.2-0.1,0.3-0.1L29.1,8c0.1,0.1,0.1,0.2,0.1,0.3
			C29.1,8.3,29,8.4,29,8.4z M15.2,7.7c0,0-0.1,0-0.1,0c-0.1-0.1-0.1-0.2-0.1-0.3l0.4-0.6c0.1-0.1,0.2-0.1,0.3-0.1
			c0.1,0.1,0.1,0.2,0.1,0.3l-0.4,0.6C15.4,7.7,15.3,7.7,15.2,7.7z M27.8,7.6c0,0-0.1,0-0.1,0L27,7.1C26.9,7.1,26.9,7,27,6.9
			c0.1-0.1,0.2-0.1,0.3-0.1l0.6,0.4c0.1,0.1,0.1,0.2,0.1,0.3C27.9,7.5,27.8,7.6,27.8,7.6z M26.5,6.8c0,0-0.1,0-0.1,0l-0.6-0.4
			c-0.1-0.1-0.1-0.2-0.1-0.3C25.8,6,25.9,6,26,6l0.6,0.4c0.1,0.1,0.1,0.2,0.1,0.3C26.6,6.7,26.6,6.8,26.5,6.8z M16,6.5
			c0,0-0.1,0-0.1,0c-0.1-0.1-0.1-0.2-0.1-0.3l0.4-0.6c0.1-0.1,0.2-0.1,0.3-0.1c0.1,0.1,0.1,0.2,0.1,0.3l-0.4,0.6
			C16.2,6.4,16.1,6.5,16,6.5z M25.3,6c0,0-0.1,0-0.1,0l-0.6-0.4c-0.1-0.1-0.1-0.2-0.1-0.3c0.1-0.1,0.2-0.1,0.3-0.1l0.6,0.4
			c0.1,0.1,0.1,0.2,0.1,0.3C25.4,5.9,25.3,6,25.3,6z M16.9,5.2c0,0-0.1,0-0.1,0c-0.1-0.1-0.1-0.2,0-0.3c0.2-0.2,0.3-0.4,0.5-0.6
			c0.1-0.1,0.2-0.1,0.3,0c0.1,0.1,0.1,0.2,0,0.3C17.3,4.8,17.1,5,17,5.2C17,5.2,16.9,5.2,16.9,5.2z M24,5.2c0,0-0.1,0-0.1,0
			l-0.6-0.4c-0.1-0.1-0.1-0.2-0.1-0.3c0.1-0.1,0.2-0.1,0.3-0.1l0.6,0.4c0.1,0.1,0.1,0.2,0.1,0.3C24.2,5.1,24.1,5.2,24,5.2z
			 M22.8,4.4c0,0-0.1,0-0.1,0l-0.1-0.1c-0.2-0.1-0.3-0.2-0.5-0.3C22,3.9,22,3.8,22,3.7c0-0.1,0.2-0.1,0.2-0.1
			c0.2,0.1,0.4,0.2,0.5,0.3L22.9,4C23,4.1,23,4.2,23,4.3C22.9,4.3,22.9,4.4,22.8,4.4z M18,4.3c-0.1,0-0.1,0-0.2-0.1
			c-0.1-0.1,0-0.2,0.1-0.3c0.2-0.1,0.4-0.3,0.7-0.3c0.1,0,0.2,0,0.2,0.1c0,0.1,0,0.2-0.1,0.2C18.5,4,18.2,4.1,18,4.3
			C18,4.3,18,4.3,18,4.3z M21.5,3.8C21.5,3.8,21.5,3.8,21.5,3.8c-0.3-0.1-0.5-0.1-0.7-0.1c-0.1,0-0.2-0.1-0.2-0.2
			c0-0.1,0.1-0.2,0.2-0.2c0.3,0,0.5,0.1,0.8,0.1c0.1,0,0.2,0.1,0.1,0.2C21.6,3.7,21.6,3.8,21.5,3.8z M19.3,3.7
			c-0.1,0-0.2-0.1-0.2-0.1c0-0.1,0-0.2,0.1-0.2c0.2-0.1,0.5-0.1,0.8-0.1c0.1,0,0.2,0.1,0.2,0.2c0,0.1-0.1,0.2-0.2,0.2
			C19.8,3.6,19.6,3.7,19.3,3.7C19.3,3.7,19.3,3.7,19.3,3.7z"/>
	</g>
	<g class="st3">
		<g>
			<path class="st4" d="M9.8,30.5L9.8,30.5C9.9,30.5,9.9,30.6,9.8,30.5C9.8,30.6,9.8,30.6,9.8,30.5L9.8,30.5z M9.8,28.9
				C9.9,28.8,9.9,28.8,9.8,28.9C10,28.8,10,28.9,9.8,28.9C9.9,28.9,9.9,28.9,9.8,28.9C9.8,28.9,9.8,28.9,9.8,28.9z M10.4,19.7
				c0,0.2-0.1,0.2-0.3,0.2c-0.2,0-0.2-0.1-0.2-0.3c0-0.1,0.1-0.2,0.3-0.2C10.4,19.4,10.5,19.5,10.4,19.7z M10.2,28.9
				c0,0.1,0,0.2,0,0.3c0,0.2,0,0.2-0.1,0.3c-0.1,0-0.1,0,0-0.2C10.1,29.1,10.1,29,10.2,28.9z M10.1,32C10.1,32.1,10.1,32.1,10.1,32
				C10,32,10,32,10,31.9c0.1-0.1,0.1-0.1,0.1,0C10.1,31.9,10.1,32,10.1,32z M10.3,32.1c0-0.2,0.1-0.2,0.2-0.2c0.1,0,0.2,0.1,0.2,0.2
				c0,0.2-0.1,0.3-0.2,0.3C10.4,32.4,10.3,32.3,10.3,32.1z M32.7,11.3c0.1,0.4,0.2,0.9,0.2,1.5c0,0.6,0,1.1-0.1,1.5
				c-0.1,0.8-0.2,1.5-0.3,2.1c-0.1,0.6-0.3,0.9-0.5,0.9c-0.1,0.1-0.2,0.2-0.4,0.2c-0.2,0-0.4-0.1-0.5-0.2l-0.1,0
				c-0.2,0.1-0.3,0.1-0.4,0c-0.1,0-0.2-0.1-0.3-0.2c-0.1,0-0.1,0-0.2-0.1c0,0-0.1-0.1-0.2-0.2l-0.3-0.1c-0.2,0-0.4-0.1-0.6-0.2
				c-0.1-0.1-0.2-0.2-0.3-0.3c-0.3,0-0.6-0.1-0.8-0.3c-0.2-0.2-0.3-0.4-0.4-0.6c-0.1-0.1-0.1-0.1-0.1-0.1c-0.2,0-0.3-0.1-0.3-0.3
				c0-0.2,0.1-0.3,0.1-0.3c0.2-1.4,0.3-2.7,0.2-3.7c-0.1-1-0.3-1.6-0.5-1.8c0.2,0,0.4,0.1,0.5,0.3c0.2,0.2,0.3,0.5,0.3,0.8
				c-0.2-1.2-0.6-2-1.3-2.3C26,7.5,25.2,7.5,24.2,8c0,0.1-0.1,0.3-0.3,0.4c-0.2,0.1-0.3,0.2-0.4,0.2c0,0.1-0.1,0.2-0.3,0.4
				c-0.2,0.1-0.3,0.2-0.5,0.3c-0.2,0.1-0.4,0.2-0.5,0.3C22.1,9.5,22,9.6,22,9.6c0,0.1-0.1,0.2-0.1,0.4c-0.1,0.1-0.1,0.2-0.1,0.3
				c0,0-0.1,0.1-0.2,0.2c-0.1,0.1-0.3,0.3-0.4,0.4c-0.2,0.1-0.3,0.3-0.5,0.4c-0.2,0.1-0.3,0.2-0.3,0.2c0,0.2-0.1,0.5-0.3,0.7
				c-0.2,0.2-0.4,0.3-0.4,0.4c0,0.1-0.1,0.1-0.1,0.2c-0.1,0.1-0.1,0.2-0.2,0.3c-0.8,1.3-1.5,2.9-2.2,4.6c-0.7,1.7-1.2,3.7-1.6,5.8
				c-0.2,0.9-0.3,1.7-0.4,2.5c-0.1,0.8-0.2,1.5-0.2,2.2c0,0.3,0,0.7,0,1.2c0,0.5,0,1.1,0.1,1.7c0.1,0.6,0.2,1.3,0.5,2
				c0.2,0.7,0.5,1.4,1,2.1c-0.4-0.3-0.8-0.8-1.1-1.5c0.5,1.6,1.2,2.6,2.2,2.9c1,0.3,2,0.1,3.1-0.8c0.2-0.2,0.3-0.3,0.3-0.4
				c0.1-0.1,0.1-0.2,0.2-0.3c0-0.1,0.1-0.1,0.2-0.1c0.1,0,0.2,0,0.2,0c0,0,0.1-0.1,0.1-0.2c0-0.1,0.1-0.2,0.1-0.3
				c0,0,0.1-0.1,0.2-0.3c0.1-0.1,0.2-0.3,0.3-0.5c0.1-0.2,0.2-0.3,0.3-0.5c0.1-0.2,0.2-0.3,0.2-0.5c0-0.1,0.1-0.2,0.1-0.4
				c0-0.2,0.1-0.2,0.4-0.2c0-0.2,0.1-0.3,0.1-0.4c0-0.1,0.1-0.2,0.2-0.2c0-0.1,0.1-0.4,0.2-0.8c0.1-0.4,0.3-0.7,0.4-1
				c0.1-0.2,0.1-0.4,0.1-0.6s0-0.2,0.1-0.3c0,0,0.1,0,0.1-0.1c0.1-0.1,0.1-0.2,0.1-0.3v-0.1c0-0.1,0-0.3,0-0.6
				c0-0.2,0.1-0.3,0.2-0.3l0.3-1.1c0.3-1.3,0.4-2.3,0.2-3c-0.1-0.7-0.4-1-0.7-1c0.1-0.1,0.3-0.1,0.6,0c0.3,0.1,0.5,0.3,0.7,0.7
				c0.1,0.3,0.2,0.6,0.2,0.9c0,0.4,0,0.6,0,0.7c0.2-0.5,0.2-1.1,0-1.9c-0.2-0.7-0.5-1.3-1-1.7c0.1,0,0.3,0.1,0.6,0.2
				c0.3,0.1,0.6,0.3,0.8,0.6c0.3,0.3,0.5,0.7,0.7,1.2c0.2,0.5,0.3,1.1,0.3,1.8c0.2-0.7,0.2-1.3,0-1.8c-0.2-0.5-0.4-0.9-0.7-1.2
				c-0.3-0.3-0.5-0.6-0.7-0.9c-0.2-0.3-0.2-0.7,0-1.1c0,0.3,0.2,0.5,0.5,0.6c0.3,0.2,0.6,0.3,0.9,0.5c0.4,0.2,0.7,0.5,1,0.8
				c0.3,0.3,0.5,0.8,0.6,1.4c0.1-0.3,0-0.6-0.1-0.8c-0.1-0.3-0.2-0.5-0.4-0.7c-0.2-0.2-0.4-0.4-0.6-0.5c-0.2-0.1-0.4-0.2-0.6-0.3
				c0.5-0.1,1,0,1.4,0.2c0.4,0.2,0.7,0.5,0.8,0.9c0-0.1,0-0.2,0-0.4c0-0.2,0-0.4-0.1-0.6c0.2,0.2,0.4,0.5,0.5,1.1
				c0.1,0.5,0.1,1.1,0,1.7c0.1-0.2,0.2-0.4,0.3-0.5c0.1-0.2,0.3-0.3,0.4-0.3c-0.2,0.2-0.3,0.5-0.2,1.1c0.1,0.6,0,1.2-0.2,2.1
				c-0.1,0.4-0.2,0.7-0.3,1.1c-0.1,0.3-0.2,0.7-0.3,1c0,0.2,0,0.3,0,0.4c0,0.1-0.1,0.2-0.3,0.4v0c0,0,0,0,0,0c0,0,0,0,0,0
				c-0.1,0.2-0.1,0.4-0.2,0.6c-0.1,0.2-0.1,0.5-0.2,0.7c0,0.2-0.2,0.5-0.5,0.8l-0.7,1.4l-0.1,0.4c0,0.1-0.1,0.3-0.3,0.5
				c-0.2,0.2-0.3,0.4-0.5,0.7c-0.2,0.2-0.3,0.4-0.5,0.6c-0.2,0.2-0.2,0.3-0.3,0.4c-0.1,0.1-0.1,0.2-0.1,0.3c0,0.1-0.1,0.2-0.2,0.1
				c0,0.3-0.2,0.6-0.5,0.8c-0.3,0.2-0.5,0.4-0.7,0.4c-0.3,0.3-0.6,0.6-0.9,0.8c-0.3,0.2-0.6,0.5-0.9,0.7c-0.1,0.2-0.2,0.3-0.5,0.4
				c-0.2,0.1-0.4,0.1-0.6,0.2c0,0-0.1,0.1-0.1,0.1c-0.1,0-0.2,0.1-0.3,0.2c-0.2,0.2-0.5,0.2-0.9,0.2c-0.1,0.1-0.2,0.1-0.3,0.1
				c-0.1,0.1-0.1,0.1-0.2,0.2c0,0-0.1,0.1-0.2,0.2c0,0-0.1,0-0.3,0s-0.4,0-0.6,0c-0.2,0-0.4,0-0.6,0c-0.2,0-0.4,0-0.5,0
				c-0.2,0-0.4,0-0.6,0c-1.7-0.2-3.1-0.9-4.4-2.3c-1.3-1.4-2-3.5-2.4-6.3c0-0.1,0-0.2-0.1-0.5c-0.1-0.3-0.1-0.6-0.2-1
				c0-0.4-0.1-0.7-0.1-1.1c0-0.4,0.1-0.6,0.2-0.8c-0.1-0.2-0.1-0.3-0.1-0.4s0.1-0.3,0.2-0.4c0-0.2,0-0.4,0-0.8c0-0.3,0.1-0.7,0.2-1
				c-0.1-0.3-0.1-0.5-0.1-0.7c0-0.2,0-0.4,0-0.5c0-0.1,0-0.1,0-0.2c0,0,0-0.1,0.1-0.2c0,0,0-0.1,0-0.3c0-0.2,0.1-0.4,0.1-0.6
				c0-0.2,0.1-0.4,0.1-0.6c0-0.2,0.1-0.3,0.1-0.4c0.1-0.2,0.2-0.5,0.2-0.7c0-0.3,0.1-0.4,0.2-0.5l0.1-0.6c0-0.3,0.1-0.6,0.1-0.9
				c0-0.3,0.1-0.5,0.3-0.6c0.4-1.5,0.9-2.9,1.5-4.2c-0.3,0.7-0.7,1.4-1,2.2c-0.3,0.8-0.5,1.4-0.7,1.9c0-0.6,0-1.2,0.1-1.6
				c0.1-0.4,0.2-0.9,0.4-1.2c0.2-0.4,0.3-0.8,0.5-1.1c0.2-0.4,0.4-0.7,0.6-1.2c0.2-0.4,0.4-0.8,0.7-1.2c0.3-0.4,0.5-0.6,0.8-0.6
				l0.8-1.4c0-0.2,0.1-0.4,0.2-0.5c0.1-0.2,0.2-0.2,0.3-0.2c0-0.3,0.1-0.5,0.2-0.7c0.1-0.2,0.3-0.4,0.4-0.4c0-0.5,0.1-0.9,0.3-1.2
				c0.2-0.3,0.4-0.4,0.7-0.3c0-0.1,0-0.3,0-0.5c-0.1,0.1-0.2,0.1-0.3,0.1c-0.1,0-0.2-0.1-0.1-0.2c0.1-0.1,0.1-0.1,0.2-0.2
				c0.1,0,0.2,0,0.2,0.1c0.1-0.2,0.2-0.4,0.3-0.6c0.1-0.2,0.3-0.3,0.4-0.3H19l0.1-0.1c1-0.5,1.9-0.9,2.6-1.2c0.8-0.3,1.4-0.5,2-0.6
				c0.6-0.1,1.1-0.2,1.6-0.2c0.5,0,0.9,0,1.3,0c1,0,1.8,0.1,2.5,0.4c0.7,0.3,1.3,0.6,1.7,1.1c0.4,0.5,0.8,1,1,1.6
				C32,6.8,32.1,7.4,32.1,8c0.1,0,0.2,0.2,0.2,0.4c0,0.2,0.1,0.4,0.1,0.5c0,0,0.1,0.2,0.1,0.4c0,0.2,0.1,0.5,0.1,0.7
				c0,0.3,0.1,0.5,0.1,0.8C32.7,11.1,32.7,11.2,32.7,11.3z M10.7,19.9C10.7,19.9,10.7,19.9,10.7,19.9C10.6,19.9,10.6,19.9,10.7,19.9
				C10.6,19.8,10.6,19.8,10.7,19.9C10.7,19.8,10.7,19.8,10.7,19.9z M11.2,19.2c0,0.1,0,0.1,0,0.1c0,0-0.1,0-0.1-0.1
				c0-0.1,0-0.1,0-0.1C11.2,19.1,11.2,19.1,11.2,19.2z M11.1,20.4c0-0.1,0-0.2,0.1-0.2c0.1,0,0.1,0.1,0.1,0.1c0,0.1,0,0.2-0.1,0.2
				C11.2,20.5,11.1,20.5,11.1,20.4z M11.4,16.3c-0.1,0-0.1,0-0.1-0.1c0,0,0-0.1,0-0.1c0.1-0.1,0.1-0.2,0.2-0.2
				c0.1-0.1,0.2-0.1,0.2,0c-0.1,0.1-0.1,0.2-0.2,0.3C11.4,16.2,11.4,16.3,11.4,16.3z M11.4,17.6c0.1,0,0.1,0.1,0.1,0.2
				c0,0.1-0.1,0.2-0.1,0.3c-0.1,0-0.1-0.1-0.1-0.3C11.3,17.7,11.3,17.6,11.4,17.6z M11.6,14.8c0,0.1,0,0.1-0.1,0.1
				c-0.1,0-0.1,0-0.2,0c0,0,0-0.1,0.1-0.1C11.6,14.8,11.6,14.7,11.6,14.8z M12.2,15.3C12.2,15.4,12.2,15.4,12.2,15.3
				c-0.2,0.1-0.2,0.1-0.2,0c0-0.1,0-0.1,0.1-0.1C12.2,15.2,12.2,15.3,12.2,15.3z M12.4,14.4C12.4,14.4,12.4,14.4,12.4,14.4
				C12.3,14.4,12.3,14.4,12.4,14.4C12.3,14.3,12.3,14.3,12.4,14.4C12.4,14.3,12.4,14.3,12.4,14.4z M12.5,15c0,0.1,0,0.1-0.1,0.1
				c-0.1,0-0.1-0.1-0.1-0.1c0-0.1,0-0.1,0.1-0.2C12.5,14.8,12.5,14.9,12.5,15z M13.9,26.4c0.2-2.1,0.5-4,0.9-5.5
				c0.4-1.6,0.8-2.9,1.2-3.9c0.4-1.1,0.8-2,1.2-2.6c0.4-0.7,0.7-1.2,1-1.6c-0.8,0.9-1.5,2-2.1,3.1c-0.6,1.1-1,2.3-1.4,3.5
				c-0.4,1.2-0.6,2.4-0.7,3.6C14,24.2,13.9,25.3,13.9,26.4z M15,8c0.2-0.2,0.3-0.2,0.4,0c0.1,0.2,0.1,0.4,0.1,0.6
				c0,0.3-0.1,0.6-0.1,0.8c-0.1,0.3-0.1,0.5-0.2,0.6c-0.2,0.1-0.4,0-0.5-0.1c-0.1-0.1-0.2-0.3-0.2-0.6c0-0.2,0-0.5,0.1-0.7
				C14.6,8.3,14.8,8.1,15,8z M20.6,36.3c-0.5,0.5-0.9,0.8-1.4,0.9c-0.5,0.1-0.9,0.2-1.3,0.1c-0.4,0-0.7-0.1-1-0.3
				c-0.3-0.2-0.5-0.3-0.6-0.4c0.1,0.2,0.3,0.4,0.6,0.6c0.3,0.2,0.7,0.3,1.1,0.3c0.4,0,0.9,0,1.4-0.2C19.8,37.2,20.2,36.8,20.6,36.3z
				 M16.8,7c-0.1,0-0.1,0.1-0.2,0.2c-0.1,0.1-0.2,0.1-0.2,0c-0.1-0.1,0-0.1,0.1-0.1C16.6,7,16.7,7,16.8,7z M16.7,6.8
				c-0.2,0-0.3,0-0.3-0.1C16.4,6.7,16.5,6.7,16.7,6.8C16.7,6.8,16.7,6.8,16.7,6.8z M17.5,36.2c-0.1,0.1-0.2,0.1-0.4-0.1
				c-0.2-0.2-0.3-0.3-0.3-0.4c0.1,0.1,0.2,0.1,0.4,0.2C17.4,36,17.5,36.1,17.5,36.2z M17.1,6.8c0,0-0.1,0-0.1,0
				C16.9,6.8,16.9,6.7,17.1,6.8c0-0.2,0-0.2,0-0.1C17.1,6.7,17.1,6.7,17.1,6.8z M17,7.3C17,7.3,16.9,7.3,17,7.3
				C16.9,7.2,17,7.2,17,7.3C17,7.2,17,7.2,17,7.3z M17.1,35.2c0.1-0.1,0.1,0,0.1,0.1c0,0.1,0,0.2-0.1,0.2c-0.1,0-0.1,0-0.1,0
				C17,35.3,17,35.2,17.1,35.2z M17.1,35.6C17.1,35.6,17.2,35.5,17.1,35.6c0.1-0.1,0.1-0.1,0.1,0C17.2,35.7,17.2,35.7,17.1,35.6
				C17.1,35.7,17.1,35.7,17.1,35.6z M18,10.5c0.1-0.1,0.1-0.2,0.2-0.4c0.1-0.2,0.2-0.3,0.2-0.5c-0.1,0-0.1,0-0.2,0.1
				c-0.1,0.1-0.1,0.1-0.1,0.2c0,0.1-0.1,0.2-0.1,0.3C18,10.4,18,10.5,18,10.5z M18.1,35.7C18,35.7,18,35.7,18.1,35.7
				C18,35.6,18,35.6,18.1,35.7C18.1,35.6,18.1,35.6,18.1,35.7C18.1,35.7,18.1,35.7,18.1,35.7z M18.1,24.2
				C18.1,24.2,18.2,24.2,18.1,24.2C18.2,24.2,18.2,24.2,18.1,24.2c0.1,0.1,0,0.1,0,0.1C18.1,24.3,18.1,24.3,18.1,24.2z M19.5,19.9
				c0,0.2-0.1,0.2-0.4,0.3c-0.2,0-0.4-0.1-0.6-0.3c0-0.1,0-0.2,0.1-0.3c0.1-0.1,0.2-0.1,0.3-0.2c0.1,0,0.2,0,0.3,0.1
				C19.5,19.6,19.5,19.7,19.5,19.9z M19.1,19c0,0-0.1,0.1-0.1,0.1c0,0-0.1,0,0,0C18.9,19,18.9,19,19.1,19L19.1,19L19.1,19L19.1,19z
				 M20.3,8.5c0.1-0.2,0.2-0.4,0.3-0.6c-0.2,0.2-0.4,0.2-0.6,0.1c-0.1,0.2-0.2,0.3-0.3,0.4c-0.1,0.1-0.3,0.2-0.4,0.2
				c-0.1,0.1-0.1,0.1-0.1,0.2c0,0.1-0.1,0.1-0.1,0.2c0.1,0,0.1-0.1,0.2-0.1c0.1,0,0.1-0.1,0.2-0.1c0-0.1,0.1-0.1,0.3-0.3
				C20,8.5,20.1,8.4,20.3,8.5z M19.9,26c0,0.1-0.1,0.2-0.3,0.4c-0.2,0.2-0.3,0.3-0.4,0.4c0.1-0.1,0.2-0.3,0.3-0.4
				C19.7,26.2,19.8,26.1,19.9,26z M19.4,14.6c-0.1,0.1-0.1,0-0.1-0.2c0-0.2,0-0.3,0.1-0.4c0,0.1,0.1,0.2,0.1,0.3
				C19.5,14.5,19.5,14.6,19.4,14.6z M19.9,13.2c0,0.1-0.1,0.2-0.2,0.2c-0.1,0-0.2-0.1-0.2-0.2c0-0.2,0.1-0.2,0.2-0.2
				C19.9,12.9,19.9,13,19.9,13.2z M19.6,14.1C19.6,14.1,19.6,14.1,19.6,14.1C19.6,14.1,19.6,14.1,19.6,14.1
				C19.6,14.1,19.6,14,19.6,14.1C19.7,14,19.7,14.1,19.6,14.1z M20.5,23.2c0,0.1,0,0.1-0.2,0.2c-0.1,0.1-0.2,0-0.2,0
				c0-0.1,0.1-0.2,0.2-0.2C20.5,23.1,20.5,23.1,20.5,23.2z M20.3,21.4c-0.1-0.1,0-0.2,0.1-0.3c0.1-0.1,0.3-0.1,0.5-0.2
				c0.2,0,0.4-0.1,0.6-0.1c0.2,0,0.3,0,0.4,0.1c-0.1,0-0.3,0-0.4,0.1c-0.1,0.1-0.3,0.2-0.4,0.3c-0.1,0.1-0.3,0.1-0.4,0.2
				C20.5,21.5,20.4,21.5,20.3,21.4z M21,25c0,0.1-0.1,0.2-0.3,0.2c-0.2,0-0.3-0.1-0.3-0.2c0-0.2,0.1-0.3,0.3-0.3
				C20.8,24.6,21,24.7,21,25z M20.8,11.7c0,0-0.1,0-0.1,0C20.6,11.7,20.6,11.7,20.8,11.7c0-0.2,0-0.2,0-0.1
				C20.8,11.6,20.8,11.7,20.8,11.7z M21.2,25.3c0,0.1,0,0.1,0,0.2c-0.1,0.1-0.1,0.1-0.2,0c-0.1-0.1-0.1-0.1,0-0.2
				C21.1,25.2,21.1,25.2,21.2,25.3z M21.4,11.1c0,0.1,0,0.1-0.2,0.2c-0.1,0-0.2,0-0.3,0c0-0.1,0.1-0.1,0.2-0.2
				C21.3,11.1,21.4,11.1,21.4,11.1z M21.4,27.2C21.5,27.2,21.4,27.2,21.4,27.2c-0.1,0-0.1,0-0.1,0C21.3,27.1,21.3,27.1,21.4,27.2z
				 M22,11.9L22,11.9C22,11.9,22,11.8,22,11.9C22.1,11.9,22.1,11.9,22,11.9L22,11.9z M22.2,23.7c-0.1,0.1-0.1,0.1-0.2,0
				c0,0,0-0.1,0-0.2c0.1-0.1,0.1-0.1,0.2,0C22.3,23.6,22.3,23.6,22.2,23.7z M22.5,11.1c0,0.1-0.1,0.1-0.2,0.1
				c-0.1,0-0.1-0.1-0.1-0.1c0-0.1,0.1-0.2,0.2-0.2C22.5,10.9,22.5,11,22.5,11.1z M22.4,10.8C22.4,10.8,22.4,10.9,22.4,10.8
				C22.4,10.9,22.3,10.8,22.4,10.8C22.3,10.8,22.4,10.8,22.4,10.8C22.5,10.7,22.5,10.8,22.4,10.8z M22.4,10.1
				C22.4,10.1,22.4,10,22.4,10.1c0.1-0.1,0.1-0.1,0.1,0C22.5,10.2,22.5,10.2,22.4,10.1C22.4,10.2,22.4,10.2,22.4,10.1z M22.6,10.8
				c0-0.1,0.1-0.1,0.1-0.1c0,0,0.1,0,0,0.1C22.8,10.8,22.7,10.9,22.6,10.8C22.6,10.9,22.6,10.8,22.6,10.8z M22.8,20
				c0-0.1,0.1-0.1,0.1-0.1c0,0,0.1,0.1,0.1,0.1c0,0.1,0,0.1-0.1,0.1C22.8,20.1,22.8,20.1,22.8,20z M23.5,16.5c0,0,0,0.1,0,0.2
				c-0.2,0.2-0.2,0.2-0.2,0L23.5,16.5C23.5,16.4,23.5,16.5,23.5,16.5z M23.6,17.4c0.1-0.1,0.2-0.1,0.3,0c0.1,0.1,0.1,0.2,0.2,0.3
				c0,0.1,0.1,0.2,0.1,0.4c0,0.1,0,0.2,0,0.2c-0.2-0.1-0.3-0.2-0.5-0.3C23.5,17.7,23.5,17.6,23.6,17.4z M23.5,21.6
				c0,0,0-0.1,0.1-0.1c0.1,0,0.1,0,0.1,0.1C23.7,21.6,23.7,21.7,23.5,21.6C23.6,21.7,23.5,21.6,23.5,21.6z M24.4,21.1
				c-0.1,0.2-0.2,0.2-0.4,0.1c0,0.1,0,0.1-0.1,0c0,0,0-0.1,0-0.1c0-0.2,0.1-0.2,0.2-0.2C24.4,20.9,24.4,21,24.4,21.1z M24,23.5
				C24,23.4,24,23.4,24,23.5c0.2-0.1,0.2,0,0.2,0c0,0.1,0,0.1-0.1,0.1C24,23.6,24,23.6,24,23.5z M24.3,19c0.1,0,0.1,0.1,0,0.2
				C24.3,19.2,24.3,19.1,24.3,19C24.2,19,24.3,19,24.3,19z M24.5,24.9c0.1,0,0.1,0.1,0,0.1c0,0-0.1,0.1-0.1,0c-0.1,0-0.1-0.1,0-0.1
				C24.4,24.9,24.4,24.9,24.5,24.9z M24.8,26.4c0,0.1,0,0.2-0.1,0.4c-0.1-0.2-0.2-0.5-0.3-0.8c-0.1-0.3-0.1-0.5,0.1-0.6
				c0.2-0.1,0.3,0,0.3,0.1c0,0.1,0.1,0.3,0.1,0.5c0.1-0.9,0.1-1.6,0-2.1c-0.1-0.6-0.2-0.9-0.4-1c0.1,0,0.2,0.1,0.3,0.2
				c0.1,0.1,0.2,0.3,0.2,0.6c0.1,0.3,0.1,0.6,0.1,1.1C25.1,25.1,25,25.7,24.8,26.4z M24.6,20.1c0-0.1,0.1-0.1,0.1,0
				c0,0,0.1,0.1,0.1,0.1c-0.1,0-0.1,0-0.2,0C24.6,20.2,24.5,20.1,24.6,20.1z M25.1,17.6c0-0.1,0-0.1,0.1-0.1c0.1,0,0.2,0,0.2,0.1
				c0,0.1,0,0.1-0.1,0.1C25.2,17.8,25.2,17.7,25.1,17.6L25.1,17.6z M25.7,31.7c0,0-0.1,0.2-0.2,0.4c-0.1,0.2-0.2,0.5-0.3,0.7
				c0.1-0.1,0.2-0.2,0.3-0.4C25.6,32.1,25.7,31.9,25.7,31.7L25.7,31.7c0.1,0,0.1,0,0.2,0c0,0,0.1,0,0.1-0.1c0,0,0-0.1,0-0.1
				c0-0.1,0-0.1,0-0.2c0-0.1,0-0.2,0-0.3h0.1c0.1,0,0.1,0,0.1,0c0-0.1,0-0.1,0-0.2c0,0,0-0.1,0-0.3c0.1,0,0.1-0.1,0.1-0.1
				c0,0,0.1-0.1,0.1-0.1c0,0,0-0.1,0.1-0.3c0-0.1,0.1-0.3,0.1-0.4c0-0.2,0.1-0.3,0.1-0.4c0-0.1,0.1-0.2,0.1-0.3
				c-0.1,0.1-0.2,0.2-0.3,0.6c-0.1,0.3-0.2,0.5-0.3,0.6c0,0.2,0,0.2,0,0.3c0,0,0,0.1,0,0.2c-0.1,0-0.1,0-0.1,0c0,0,0,0-0.1,0
				c0,0.3-0.1,0.4-0.1,0.5C25.9,31,25.9,31,25.8,31C25.7,31.3,25.7,31.5,25.7,31.7z M26.5,8.2c-0.1-0.1-0.3-0.1-0.6,0
				c-0.3,0-0.4,0-0.4-0.2c0-0.2,0.1-0.2,0.4-0.2C26.3,7.9,26.5,8,26.5,8.2z M25.8,20.7c-0.1,0-0.1-0.1-0.2-0.3c0-0.2,0-0.4,0.2-0.4
				c0,0.1-0.1,0.2-0.1,0.3C25.7,20.5,25.7,20.6,25.8,20.7z M25.9,9.7C25.9,9.7,25.9,9.7,25.9,9.7C25.9,9.7,25.9,9.7,25.9,9.7
				C25.9,9.7,25.9,9.8,25.9,9.7C25.9,9.8,25.9,9.7,25.9,9.7z M26.5,8.5c0,0.1-0.1,0.1-0.2,0.1c-0.1,0-0.1,0-0.1-0.1
				c0-0.1,0-0.1,0.1-0.1C26.5,8.4,26.5,8.4,26.5,8.5z M26.8,19.2c-0.1,0-0.1,0-0.1-0.1c0-0.1,0-0.1,0.1-0.2c0.1,0,0.1,0,0.1,0.1
				C26.9,19.2,26.8,19.2,26.8,19.2z M26.7,8.1C26.7,8.2,26.7,8.2,26.7,8.1C26.7,8.2,26.7,8.2,26.7,8.1C26.7,8.1,26.7,8.1,26.7,8.1
				C26.7,8.1,26.7,8.1,26.7,8.1z M26.9,9.1C26.9,9.1,26.9,9.2,26.9,9.1c-0.2,0.1-0.2,0.1-0.2,0c0-0.1,0-0.1,0.1-0.1
				C26.8,9,26.9,9,26.9,9.1z M27.1,19.2c0.1,0,0.1,0,0.1,0C27.2,19.2,27.2,19.3,27.1,19.2C27.2,19.3,27.1,19.3,27.1,19.2
				C27.1,19.3,27.1,19.2,27.1,19.2z M27.4,18.2c0.1-0.2,0.2-0.1,0.2,0c0,0.2,0,0.3,0,0.3c-0.1,0.1-0.1,0-0.2-0.1
				C27.4,18.3,27.3,18.3,27.4,18.2z M27.5,17c0.1,0,0.2,0.1,0.1,0.3c0,0.2-0.1,0.3-0.1,0.3c-0.1-0.2-0.1-0.3-0.1-0.4
				C27.4,17.1,27.4,17,27.5,17z M28.6,18.1c0,0.1,0,0.2-0.1,0.2c-0.1,0-0.1,0-0.1-0.1c0-0.1,0-0.1,0.1-0.1
				C28.5,18,28.6,18,28.6,18.1z M29.4,18.4c0.3,0.1,0.5,0.2,0.6,0.3c0.1,0.2,0.1,0.4,0,0.6c-0.1,0.2-0.2,0.4-0.3,0.7
				c-0.1,0.3-0.2,0.5-0.3,0.8c-0.2-0.1-0.5-0.3-0.6-0.6c-0.2-0.3-0.3-0.6-0.3-0.9c0-0.3,0-0.5,0.2-0.7C28.8,18.3,29,18.3,29.4,18.4z
				 M28.5,20.6C28.5,20.6,28.5,20.6,28.5,20.6C28.6,20.6,28.6,20.6,28.5,20.6C28.6,20.7,28.6,20.7,28.5,20.6
				C28.5,20.7,28.5,20.7,28.5,20.6z M29.6,20.7c0-0.1,0-0.1,0.1-0.1c0.1,0,0.1,0.1,0.1,0.1C29.8,20.8,29.7,20.8,29.6,20.7
				C29.6,20.8,29.6,20.8,29.6,20.7z M31,6.8c0-0.2-0.1-0.5-0.3-0.9c-0.2-0.4-0.5-0.6-0.9-0.7c0,0.1,0.1,0.2,0.2,0.3
				c0.1,0.1,0.3,0.3,0.4,0.4c0.1,0.2,0.3,0.3,0.4,0.5C30.9,6.6,30.9,6.7,31,6.8z M31,22.1c-0.1-0.1,0-0.1,0-0.2c0.1,0,0.2,0,0.2,0
				c0,0.1,0,0.1-0.1,0.1C31,22.1,31,22.1,31,22.1z M31.1,21.2c0-0.2,0-0.5,0.2-0.8c0.1-0.3,0.3-0.3,0.5-0.1c0.2,0.2,0.1,0.3-0.1,0.4
				C31.4,20.8,31.2,21,31.1,21.2z M32.5,8.6C32.5,8.6,32.5,8.5,32.5,8.6C32.6,8.5,32.6,8.5,32.5,8.6L32.5,8.6z M32.7,8.2L32.7,8.2
				L32.7,8.2C32.8,8.2,32.7,8.2,32.7,8.2L32.7,8.2z M32.8,11.2c0-0.2,0-0.4,0-0.7c0-0.2-0.1-0.4-0.1-0.6c0.3,0.6,0.5,1.2,0.6,1.9
				c0.1,0.6,0.1,1.2,0.1,1.8c0,0.5-0.1,1-0.2,1.3c-0.1,0.3-0.2,0.5-0.4,0.5c0.1-0.7,0.2-1.4,0.2-2.2C33,12.5,33,11.8,32.8,11.2z
				 M33,9.2c0,0.1,0,0.1-0.1,0.1c-0.1,0-0.1,0-0.1-0.1c0-0.1,0.1-0.1,0.1-0.1C32.9,9.1,32.9,9.1,33,9.2z M32.7,9.3
				C32.8,9.3,32.8,9.3,32.7,9.3L32.7,9.3z M33,9.8c-0.1,0.1-0.1,0-0.1,0c0-0.1,0-0.2,0-0.2c0,0,0.1,0.1,0.1,0.1
				C33,9.7,33,9.8,33,9.8z M33,8.9C33,8.9,33,8.9,33,8.9C33,8.9,33,8.9,33,8.9L33,8.9z M33.3,10.2c0,0-0.1,0-0.1-0.1
				c0-0.1,0-0.2,0-0.2C33.2,10,33.3,10.1,33.3,10.2z M33.3,9.3L33.3,9.3C33.2,9.3,33.2,9.3,33.3,9.3C33.3,9.3,33.3,9.3,33.3,9.3z
				 M33.3,9.5c0-0.1,0-0.1,0.1,0C33.4,9.6,33.4,9.6,33.3,9.5C33.3,9.6,33.3,9.6,33.3,9.5z"/>
		</g>
	</g>
	<g>
		<g>
			<path class="st5" d="M9.6,30.5L9.6,30.5C9.6,30.5,9.6,30.6,9.6,30.5C9.5,30.6,9.5,30.6,9.6,30.5L9.6,30.5z M9.6,28.9
				C9.6,28.8,9.6,28.8,9.6,28.9C9.7,28.8,9.7,28.9,9.6,28.9C9.6,28.9,9.6,28.9,9.6,28.9C9.5,28.9,9.5,28.9,9.6,28.9z M10.2,19.7
				c0,0.2-0.1,0.2-0.3,0.2c-0.2,0-0.2-0.1-0.2-0.3c0-0.1,0.1-0.2,0.3-0.2C10.1,19.4,10.2,19.5,10.2,19.7z M9.9,28.9
				c0,0.1,0,0.2,0,0.3c0,0.2,0,0.2-0.1,0.3c-0.1,0-0.1,0,0-0.2C9.8,29.1,9.8,29,9.9,28.9z M9.8,32C9.8,32.1,9.8,32.1,9.8,32
				c-0.1,0.1-0.1,0-0.1-0.1c0.1-0.1,0.1-0.1,0.1,0C9.8,31.9,9.8,32,9.8,32z M10.1,32.1c0-0.2,0.1-0.2,0.2-0.2c0.1,0,0.2,0.1,0.2,0.2
				c0,0.2-0.1,0.3-0.2,0.3C10.1,32.4,10.1,32.3,10.1,32.1z M32.5,11.3c0.1,0.4,0.2,0.9,0.2,1.5c0,0.6,0,1.1-0.1,1.5
				c-0.1,0.8-0.2,1.5-0.3,2.1c-0.1,0.6-0.3,0.9-0.5,0.9c-0.1,0.1-0.2,0.2-0.4,0.2c-0.2,0-0.4-0.1-0.5-0.2l-0.1,0
				c-0.2,0.1-0.3,0.1-0.4,0c-0.1,0-0.2-0.1-0.3-0.2c-0.1,0-0.1,0-0.2-0.1c0,0-0.1-0.1-0.2-0.2l-0.3-0.1c-0.2,0-0.4-0.1-0.6-0.2
				c-0.1-0.1-0.2-0.2-0.3-0.3c-0.3,0-0.6-0.1-0.8-0.3c-0.2-0.2-0.3-0.4-0.4-0.6c-0.1-0.1-0.1-0.1-0.1-0.1c-0.2,0-0.3-0.1-0.3-0.3
				c0-0.2,0.1-0.3,0.1-0.3c0.2-1.4,0.3-2.7,0.2-3.7c-0.1-1-0.3-1.6-0.5-1.8c0.2,0,0.4,0.1,0.5,0.3c0.2,0.2,0.3,0.5,0.3,0.8
				c-0.2-1.2-0.6-2-1.3-2.3C25.7,7.5,24.9,7.5,24,8c0,0.1-0.1,0.3-0.3,0.4c-0.2,0.1-0.3,0.2-0.4,0.2c0,0.1-0.1,0.2-0.3,0.4
				c-0.2,0.1-0.3,0.2-0.5,0.3c-0.2,0.1-0.4,0.2-0.5,0.3c-0.2,0.1-0.2,0.1-0.3,0.1c0,0.1-0.1,0.2-0.1,0.4c-0.1,0.1-0.1,0.2-0.1,0.3
				c0,0-0.1,0.1-0.2,0.2c-0.1,0.1-0.3,0.3-0.4,0.4c-0.2,0.1-0.3,0.3-0.5,0.4c-0.2,0.1-0.3,0.2-0.3,0.2c0,0.2-0.1,0.5-0.3,0.7
				c-0.2,0.2-0.4,0.3-0.4,0.4c0,0.1-0.1,0.1-0.1,0.2C19.1,12.8,19,13,19,13.1c-0.8,1.3-1.5,2.9-2.2,4.6c-0.7,1.7-1.2,3.7-1.6,5.8
				c-0.2,0.9-0.3,1.7-0.4,2.5c-0.1,0.8-0.2,1.5-0.2,2.2c0,0.3,0,0.7,0,1.2c0,0.5,0,1.1,0.1,1.7c0.1,0.6,0.2,1.3,0.5,2
				c0.2,0.7,0.5,1.4,1,2.1c-0.4-0.3-0.8-0.8-1.1-1.5c0.5,1.6,1.2,2.6,2.2,2.9c1,0.3,2,0.1,3.1-0.8c0.2-0.2,0.3-0.3,0.3-0.4
				c0.1-0.1,0.1-0.2,0.2-0.3c0-0.1,0.1-0.1,0.2-0.1s0.2,0,0.2,0c0,0,0.1-0.1,0.1-0.2c0-0.1,0.1-0.2,0.1-0.3c0,0,0.1-0.1,0.2-0.3
				c0.1-0.1,0.2-0.3,0.3-0.5c0.1-0.2,0.2-0.3,0.3-0.5c0.1-0.2,0.2-0.3,0.2-0.5c0-0.1,0.1-0.2,0.1-0.4c0-0.2,0.1-0.2,0.4-0.2
				c0-0.2,0.1-0.3,0.1-0.4c0-0.1,0.1-0.2,0.2-0.2c0-0.1,0.1-0.4,0.2-0.8c0.1-0.4,0.3-0.7,0.4-1c0.1-0.2,0.1-0.4,0.1-0.6
				s0-0.2,0.1-0.3c0,0,0.1,0,0.1-0.1c0.1-0.1,0.1-0.2,0.1-0.3v-0.1c0-0.1,0-0.3,0-0.6c0-0.2,0.1-0.3,0.2-0.3l0.3-1.1
				c0.3-1.3,0.4-2.3,0.2-3c-0.1-0.7-0.4-1-0.7-1c0.1-0.1,0.3-0.1,0.6,0c0.3,0.1,0.5,0.3,0.7,0.7c0.1,0.3,0.2,0.6,0.2,0.9
				c0,0.4,0,0.6,0,0.7c0.2-0.5,0.2-1.1,0-1.9c-0.2-0.7-0.5-1.3-1-1.7c0.1,0,0.3,0.1,0.6,0.2c0.3,0.1,0.6,0.3,0.8,0.6
				c0.3,0.3,0.5,0.7,0.7,1.2c0.2,0.5,0.3,1.1,0.3,1.8c0.2-0.7,0.2-1.3,0-1.8c-0.2-0.5-0.4-0.9-0.7-1.2c-0.3-0.3-0.5-0.6-0.7-0.9
				c-0.2-0.3-0.2-0.7,0-1.1c0,0.3,0.2,0.5,0.5,0.6c0.3,0.2,0.6,0.3,0.9,0.5c0.4,0.2,0.7,0.5,1,0.8c0.3,0.3,0.5,0.8,0.6,1.4
				c0.1-0.3,0-0.6-0.1-0.8c-0.1-0.3-0.2-0.5-0.4-0.7c-0.2-0.2-0.4-0.4-0.6-0.5c-0.2-0.1-0.4-0.2-0.6-0.3c0.5-0.1,1,0,1.4,0.2
				c0.4,0.2,0.7,0.5,0.8,0.9c0-0.1,0-0.2,0-0.4c0-0.2,0-0.4-0.1-0.6c0.2,0.2,0.4,0.5,0.5,1.1c0.1,0.5,0.1,1.1,0,1.7
				c0.1-0.2,0.2-0.4,0.3-0.5c0.1-0.2,0.3-0.3,0.4-0.3c-0.2,0.2-0.3,0.5-0.2,1.1c0.1,0.6,0,1.2-0.2,2.1c-0.1,0.4-0.2,0.7-0.3,1.1
				c-0.1,0.3-0.2,0.7-0.3,1c0,0.2,0,0.3,0,0.4c0,0.1-0.1,0.2-0.3,0.4v0c0,0,0,0,0,0c0,0,0,0,0,0c-0.1,0.2-0.1,0.4-0.2,0.6
				c-0.1,0.2-0.1,0.5-0.2,0.7c0,0.2-0.2,0.5-0.5,0.8l-0.7,1.4l-0.1,0.4c0,0.1-0.1,0.3-0.3,0.5c-0.2,0.2-0.3,0.4-0.5,0.7
				c-0.2,0.2-0.3,0.4-0.5,0.6c-0.2,0.2-0.2,0.3-0.3,0.4c-0.1,0.1-0.1,0.2-0.1,0.3c0,0.1-0.1,0.2-0.2,0.1c0,0.3-0.2,0.6-0.5,0.8
				c-0.3,0.2-0.5,0.4-0.7,0.4c-0.3,0.3-0.6,0.6-0.9,0.8c-0.3,0.2-0.6,0.5-0.9,0.7c-0.1,0.2-0.2,0.3-0.5,0.4
				c-0.2,0.1-0.4,0.1-0.6,0.2c0,0-0.1,0.1-0.1,0.1c-0.1,0-0.2,0.1-0.3,0.2c-0.2,0.2-0.5,0.2-0.9,0.2c-0.1,0.1-0.2,0.1-0.3,0.1
				c-0.1,0.1-0.1,0.1-0.2,0.2c0,0-0.1,0.1-0.2,0.2c0,0-0.1,0-0.3,0s-0.4,0-0.6,0c-0.2,0-0.4,0-0.6,0c-0.2,0-0.4,0-0.5,0
				c-0.2,0-0.4,0-0.6,0c-1.7-0.2-3.1-0.9-4.4-2.3c-1.3-1.4-2-3.5-2.4-6.3c0-0.1,0-0.2-0.1-0.5c-0.1-0.3-0.1-0.6-0.2-1
				c0-0.4-0.1-0.7-0.1-1.1c0-0.4,0.1-0.6,0.2-0.8c-0.1-0.2-0.1-0.3-0.1-0.4s0.1-0.3,0.2-0.4c0-0.2,0-0.4,0-0.8c0-0.3,0.1-0.7,0.2-1
				c-0.1-0.3-0.1-0.5-0.1-0.7c0-0.2,0-0.4,0-0.5c0-0.1,0-0.1,0-0.2c0,0,0-0.1,0.1-0.2c0,0,0-0.1,0-0.3c0-0.2,0.1-0.4,0.1-0.6
				c0-0.2,0.1-0.4,0.1-0.6c0-0.2,0.1-0.3,0.1-0.4c0.1-0.2,0.2-0.5,0.2-0.7c0-0.3,0.1-0.4,0.2-0.5l0.1-0.6c0-0.3,0.1-0.6,0.1-0.9
				c0-0.3,0.1-0.5,0.3-0.6c0.4-1.5,0.9-2.9,1.5-4.2c-0.3,0.7-0.7,1.4-1,2.2c-0.3,0.8-0.5,1.4-0.7,1.9c0-0.6,0-1.2,0.1-1.6
				c0.1-0.4,0.2-0.9,0.4-1.2c0.2-0.4,0.3-0.8,0.5-1.1c0.2-0.4,0.4-0.7,0.6-1.2c0.2-0.4,0.4-0.8,0.7-1.2c0.3-0.4,0.5-0.6,0.8-0.6
				l0.8-1.4c0-0.2,0.1-0.4,0.2-0.5c0.1-0.2,0.2-0.2,0.3-0.2c0-0.3,0.1-0.5,0.2-0.7c0.1-0.2,0.3-0.4,0.4-0.4c0-0.5,0.1-0.9,0.3-1.2
				c0.2-0.3,0.4-0.4,0.7-0.3c0-0.1,0-0.3,0-0.5c-0.1,0.1-0.2,0.1-0.3,0.1c-0.1,0-0.2-0.1-0.1-0.2c0.1-0.1,0.1-0.1,0.2-0.2
				c0.1,0,0.2,0,0.2,0.1c0.1-0.2,0.2-0.4,0.3-0.6c0.1-0.2,0.3-0.3,0.4-0.3h0.1l0.1-0.1c1-0.5,1.9-0.9,2.6-1.2c0.8-0.3,1.4-0.5,2-0.6
				C24,3.3,24.6,3.2,25,3.2c0.5,0,0.9,0,1.3,0c1,0,1.8,0.1,2.5,0.4c0.7,0.3,1.3,0.6,1.7,1.1c0.4,0.5,0.8,1,1,1.6
				c0.2,0.6,0.3,1.2,0.3,1.8c0.1,0,0.2,0.2,0.2,0.4c0,0.2,0.1,0.4,0.1,0.5c0,0,0.1,0.2,0.1,0.4c0,0.2,0.1,0.5,0.1,0.7
				c0,0.3,0.1,0.5,0.1,0.8C32.4,11.1,32.5,11.2,32.5,11.3z M10.4,19.9C10.4,19.9,10.4,19.9,10.4,19.9C10.3,19.9,10.3,19.9,10.4,19.9
				C10.3,19.8,10.3,19.8,10.4,19.9C10.4,19.8,10.4,19.8,10.4,19.9z M11,19.2c0,0.1,0,0.1,0,0.1c0,0-0.1,0-0.1-0.1c0-0.1,0-0.1,0-0.1
				C10.9,19.1,10.9,19.1,11,19.2z M10.9,20.4c0-0.1,0-0.2,0.1-0.2c0.1,0,0.1,0.1,0.1,0.1c0,0.1,0,0.2-0.1,0.2
				C10.9,20.5,10.9,20.5,10.9,20.4z M11.1,16.3c-0.1,0-0.1,0-0.1-0.1c0,0,0-0.1,0-0.1c0.1-0.1,0.1-0.2,0.2-0.2
				c0.1-0.1,0.2-0.1,0.2,0c-0.1,0.1-0.1,0.2-0.2,0.3C11.2,16.2,11.1,16.3,11.1,16.3z M11.1,17.6c0.1,0,0.1,0.1,0.1,0.2
				c0,0.1-0.1,0.2-0.1,0.3C11,18.1,11,18,11,17.8C11,17.7,11,17.6,11.1,17.6z M11.4,14.8c0,0.1,0,0.1-0.1,0.1c-0.1,0-0.1,0-0.2,0
				c0,0,0-0.1,0.1-0.1C11.3,14.8,11.3,14.7,11.4,14.8z M11.9,15.3C11.9,15.4,11.9,15.4,11.9,15.3c-0.2,0.1-0.2,0.1-0.2,0
				c0-0.1,0-0.1,0.1-0.1C11.9,15.2,11.9,15.3,11.9,15.3z M12.1,14.4C12.1,14.4,12.1,14.4,12.1,14.4C12,14.4,12,14.4,12.1,14.4
				C12,14.3,12,14.3,12.1,14.4C12.1,14.3,12.1,14.3,12.1,14.4z M12.2,15c0,0.1,0,0.1-0.1,0.1C12,15.1,12,15.1,12,15
				c0-0.1,0-0.1,0.1-0.2C12.2,14.8,12.2,14.9,12.2,15z M13.7,26.4c0.2-2.1,0.5-4,0.9-5.5c0.4-1.6,0.8-2.9,1.2-3.9
				c0.4-1.1,0.8-2,1.2-2.6c0.4-0.7,0.7-1.2,1-1.6c-0.8,0.9-1.5,2-2.1,3.1c-0.6,1.1-1,2.3-1.4,3.5c-0.4,1.2-0.6,2.4-0.7,3.6
				C13.7,24.2,13.6,25.3,13.7,26.4z M14.7,8c0.2-0.2,0.3-0.2,0.4,0c0.1,0.2,0.1,0.4,0.1,0.6c0,0.3-0.1,0.6-0.1,0.8
				c-0.1,0.3-0.1,0.5-0.2,0.6c-0.2,0.1-0.4,0-0.5-0.1c-0.1-0.1-0.2-0.3-0.2-0.6c0-0.2,0-0.5,0.1-0.7C14.4,8.3,14.5,8.1,14.7,8z
				 M20.4,36.3c-0.5,0.5-0.9,0.8-1.4,0.9c-0.5,0.1-0.9,0.2-1.3,0.1c-0.4,0-0.7-0.1-1-0.3c-0.3-0.2-0.5-0.3-0.6-0.4
				c0.1,0.2,0.3,0.4,0.6,0.6c0.3,0.2,0.7,0.3,1.1,0.3c0.4,0,0.9,0,1.4-0.2C19.5,37.2,20,36.8,20.4,36.3z M16.5,7
				c-0.1,0-0.1,0.1-0.2,0.2c-0.1,0.1-0.2,0.1-0.2,0c-0.1-0.1,0-0.1,0.1-0.1C16.3,7,16.4,7,16.5,7z M16.4,6.8c-0.2,0-0.3,0-0.3-0.1
				C16.1,6.7,16.2,6.7,16.4,6.8C16.4,6.8,16.4,6.8,16.4,6.8z M17.2,36.2c-0.1,0.1-0.2,0.1-0.4-0.1c-0.2-0.2-0.3-0.3-0.3-0.4
				c0.1,0.1,0.2,0.1,0.4,0.2C17.2,36,17.2,36.1,17.2,36.2z M16.8,6.8c0,0-0.1,0-0.1,0C16.6,6.8,16.7,6.7,16.8,6.8c0-0.2,0-0.2,0-0.1
				C16.8,6.7,16.8,6.7,16.8,6.8z M16.8,7.3C16.7,7.3,16.7,7.3,16.8,7.3C16.7,7.2,16.7,7.2,16.8,7.3C16.7,7.2,16.8,7.2,16.8,7.3z
				 M16.8,35.2c0.1-0.1,0.1,0,0.1,0.1c0,0.1,0,0.2-0.1,0.2c-0.1,0-0.1,0-0.1,0C16.7,35.3,16.7,35.2,16.8,35.2z M16.9,35.6
				C16.9,35.6,16.9,35.5,16.9,35.6c0.1-0.1,0.1-0.1,0.1,0C17,35.7,16.9,35.7,16.9,35.6C16.9,35.7,16.9,35.7,16.9,35.6z M17.7,10.5
				c0.1-0.1,0.1-0.2,0.2-0.4c0.1-0.2,0.2-0.3,0.2-0.5c-0.1,0-0.1,0-0.2,0.1c-0.1,0.1-0.1,0.1-0.1,0.2c0,0.1-0.1,0.2-0.1,0.3
				C17.7,10.4,17.7,10.5,17.7,10.5z M17.8,35.7C17.7,35.7,17.7,35.7,17.8,35.7C17.7,35.6,17.7,35.6,17.8,35.7
				C17.8,35.6,17.9,35.6,17.8,35.7C17.8,35.7,17.8,35.7,17.8,35.7z M17.8,24.2C17.9,24.2,17.9,24.2,17.8,24.2
				C17.9,24.2,17.9,24.2,17.8,24.2c0.1,0.1,0,0.1,0,0.1C17.8,24.3,17.8,24.3,17.8,24.2z M19.3,19.9c0,0.2-0.1,0.2-0.4,0.3
				c-0.2,0-0.4-0.1-0.6-0.3c0-0.1,0-0.2,0.1-0.3c0.1-0.1,0.2-0.1,0.3-0.2c0.1,0,0.2,0,0.3,0.1C19.2,19.6,19.3,19.7,19.3,19.9z
				 M18.8,19c0,0-0.1,0.1-0.1,0.1c0,0-0.1,0,0,0C18.7,19,18.7,19,18.8,19L18.8,19L18.8,19L18.8,19z M20,8.5c0.1-0.2,0.2-0.4,0.3-0.6
				c-0.2,0.2-0.4,0.2-0.6,0.1c-0.1,0.2-0.2,0.3-0.3,0.4c-0.1,0.1-0.3,0.2-0.4,0.2c-0.1,0.1-0.1,0.1-0.1,0.2c0,0.1-0.1,0.1-0.1,0.2
				C18.9,9,18.9,9,19,8.9c0.1,0,0.1-0.1,0.2-0.1c0-0.1,0.1-0.1,0.3-0.3C19.7,8.5,19.9,8.4,20,8.5z M19.6,26c0,0.1-0.1,0.2-0.3,0.4
				c-0.2,0.2-0.3,0.3-0.4,0.4c0.1-0.1,0.2-0.3,0.3-0.4C19.4,26.2,19.5,26.1,19.6,26z M19.1,14.6c-0.1,0.1-0.1,0-0.1-0.2
				c0-0.2,0-0.3,0.1-0.4c0,0.1,0.1,0.2,0.1,0.3C19.2,14.5,19.2,14.6,19.1,14.6z M19.6,13.2c0,0.1-0.1,0.2-0.2,0.2
				c-0.1,0-0.2-0.1-0.2-0.2c0-0.2,0.1-0.2,0.2-0.2C19.6,12.9,19.7,13,19.6,13.2z M19.3,14.1C19.3,14.1,19.3,14.1,19.3,14.1
				C19.3,14.1,19.3,14.1,19.3,14.1C19.3,14.1,19.3,14,19.3,14.1C19.4,14,19.4,14.1,19.3,14.1z M20.3,23.2c0,0.1,0,0.1-0.2,0.2
				c-0.1,0.1-0.2,0-0.2,0c0-0.1,0.1-0.2,0.2-0.2C20.2,23.1,20.3,23.1,20.3,23.2z M20,21.4c-0.1-0.1,0-0.2,0.1-0.3
				c0.1-0.1,0.3-0.1,0.5-0.2c0.2,0,0.4-0.1,0.6-0.1c0.2,0,0.3,0,0.4,0.1c-0.1,0-0.3,0-0.4,0.1c-0.1,0.1-0.3,0.2-0.4,0.3
				c-0.1,0.1-0.3,0.1-0.4,0.2C20.2,21.5,20.1,21.5,20,21.4z M20.7,25c0,0.1-0.1,0.2-0.3,0.2c-0.2,0-0.3-0.1-0.3-0.2
				c0-0.2,0.1-0.3,0.3-0.3C20.6,24.6,20.7,24.7,20.7,25z M20.5,11.7c0,0-0.1,0-0.1,0C20.3,11.7,20.3,11.7,20.5,11.7
				c0-0.2,0-0.2,0-0.1C20.5,11.6,20.5,11.7,20.5,11.7z M20.9,25.3c0,0.1,0,0.1,0,0.2c-0.1,0.1-0.1,0.1-0.2,0c-0.1-0.1-0.1-0.1,0-0.2
				C20.8,25.2,20.9,25.2,20.9,25.3z M21.1,11.1c0,0.1,0,0.1-0.2,0.2c-0.1,0-0.2,0-0.3,0c0-0.1,0.1-0.1,0.2-0.2
				C21,11.1,21.1,11.1,21.1,11.1z M21.1,27.2C21.2,27.2,21.2,27.2,21.1,27.2c-0.1,0-0.1,0-0.1,0C21,27.1,21.1,27.1,21.1,27.2z
				 M21.7,11.9L21.7,11.9C21.7,11.9,21.7,11.8,21.7,11.9C21.8,11.9,21.8,11.9,21.7,11.9L21.7,11.9z M21.9,23.7
				c-0.1,0.1-0.1,0.1-0.2,0c0,0,0-0.1,0-0.2c0.1-0.1,0.1-0.1,0.2,0C22,23.6,22,23.6,21.9,23.7z M22.3,11.1c0,0.1-0.1,0.1-0.2,0.1
				c-0.1,0-0.1-0.1-0.1-0.1c0-0.1,0.1-0.2,0.2-0.2C22.2,10.9,22.3,11,22.3,11.1z M22.2,10.8C22.2,10.8,22.1,10.9,22.2,10.8
				C22.1,10.9,22.1,10.8,22.2,10.8C22.1,10.8,22.1,10.8,22.2,10.8C22.2,10.7,22.2,10.8,22.2,10.8z M22.1,10.1
				C22.1,10.1,22.1,10,22.1,10.1c0.1-0.1,0.1-0.1,0.1,0C22.2,10.2,22.2,10.2,22.1,10.1C22.1,10.2,22.1,10.2,22.1,10.1z M22.3,10.8
				c0-0.1,0.1-0.1,0.1-0.1c0,0,0.1,0,0,0.1C22.5,10.8,22.5,10.9,22.3,10.8C22.4,10.9,22.3,10.8,22.3,10.8z M22.5,20
				c0-0.1,0.1-0.1,0.1-0.1c0,0,0.1,0.1,0.1,0.1c0,0.1,0,0.1-0.1,0.1C22.6,20.1,22.5,20.1,22.5,20z M23.2,16.5c0,0,0,0.1,0,0.2
				c-0.2,0.2-0.2,0.2-0.2,0L23.2,16.5C23.2,16.4,23.2,16.5,23.2,16.5z M23.4,17.4c0.1-0.1,0.2-0.1,0.3,0c0.1,0.1,0.1,0.2,0.2,0.3
				c0,0.1,0.1,0.2,0.1,0.4c0,0.1,0,0.2,0,0.2c-0.2-0.1-0.3-0.2-0.5-0.3C23.2,17.7,23.2,17.6,23.4,17.4z M23.3,21.6
				c0,0,0-0.1,0.1-0.1c0.1,0,0.1,0,0.1,0.1C23.5,21.6,23.4,21.7,23.3,21.6C23.3,21.7,23.3,21.6,23.3,21.6z M24.1,21.1
				c-0.1,0.2-0.2,0.2-0.4,0.1c0,0.1,0,0.1-0.1,0c0,0,0-0.1,0-0.1c0-0.2,0.1-0.2,0.2-0.2C24.1,20.9,24.1,21,24.1,21.1z M23.7,23.5
				C23.7,23.4,23.8,23.4,23.7,23.5c0.2-0.1,0.2,0,0.2,0c0,0.1,0,0.1-0.1,0.1C23.7,23.6,23.7,23.6,23.7,23.5z M24.1,19
				c0.1,0,0.1,0.1,0,0.2C24,19.2,24,19.1,24.1,19C24,19,24,19,24.1,19z M24.2,24.9c0.1,0,0.1,0.1,0,0.1c0,0-0.1,0.1-0.1,0
				c-0.1,0-0.1-0.1,0-0.1C24.1,24.9,24.2,24.9,24.2,24.9z M24.6,26.4c0,0.1,0,0.2-0.1,0.4c-0.1-0.2-0.2-0.5-0.3-0.8
				c-0.1-0.3-0.1-0.5,0.1-0.6c0.2-0.1,0.3,0,0.3,0.1c0,0.1,0.1,0.3,0.1,0.5c0.1-0.9,0.1-1.6,0-2.1c-0.1-0.6-0.2-0.9-0.4-1
				c0.1,0,0.2,0.1,0.3,0.2c0.1,0.1,0.2,0.3,0.2,0.6c0.1,0.3,0.1,0.6,0.1,1.1C24.8,25.1,24.7,25.7,24.6,26.4z M24.3,20.1
				c0-0.1,0.1-0.1,0.1,0c0,0,0.1,0.1,0.1,0.1c-0.1,0-0.1,0-0.2,0C24.3,20.2,24.3,20.1,24.3,20.1z M24.8,17.6c0-0.1,0-0.1,0.1-0.1
				c0.1,0,0.2,0,0.2,0.1c0,0.1,0,0.1-0.1,0.1C25,17.8,24.9,17.7,24.8,17.6L24.8,17.6z M25.4,31.7c0,0-0.1,0.2-0.2,0.4
				c-0.1,0.2-0.2,0.5-0.3,0.7c0.1-0.1,0.2-0.2,0.3-0.4C25.3,32.1,25.4,31.9,25.4,31.7L25.4,31.7c0.1,0,0.1,0,0.2,0
				c0,0,0.1,0,0.1-0.1c0,0,0-0.1,0-0.1c0-0.1,0-0.1,0-0.2c0-0.1,0-0.2,0-0.3h0.1c0.1,0,0.1,0,0.1,0c0-0.1,0-0.1,0-0.2
				c0,0,0-0.1,0-0.3c0.1,0,0.1-0.1,0.1-0.1c0,0,0.1-0.1,0.1-0.1c0,0,0-0.1,0.1-0.3c0-0.1,0.1-0.3,0.1-0.4c0-0.2,0.1-0.3,0.1-0.4
				c0-0.1,0.1-0.2,0.1-0.3c-0.1,0.1-0.2,0.2-0.3,0.6c-0.1,0.3-0.2,0.5-0.3,0.6c0,0.2,0,0.2,0,0.3c0,0,0,0.1,0,0.2
				c-0.1,0-0.1,0-0.1,0c0,0,0,0-0.1,0c0,0.3-0.1,0.4-0.1,0.5C25.7,31,25.6,31,25.5,31C25.4,31.3,25.4,31.5,25.4,31.7z M26.3,8.2
				c-0.1-0.1-0.3-0.1-0.6,0c-0.3,0-0.4,0-0.4-0.2c0-0.2,0.1-0.2,0.4-0.2C26,7.9,26.2,8,26.3,8.2z M25.5,20.7c-0.1,0-0.1-0.1-0.2-0.3
				c0-0.2,0-0.4,0.2-0.4c0,0.1-0.1,0.2-0.1,0.3C25.4,20.5,25.4,20.6,25.5,20.7z M25.6,9.7C25.6,9.7,25.6,9.7,25.6,9.7
				C25.7,9.7,25.7,9.7,25.6,9.7C25.7,9.7,25.7,9.8,25.6,9.7C25.6,9.8,25.6,9.7,25.6,9.7z M26.3,8.5c0,0.1-0.1,0.1-0.2,0.1
				c-0.1,0-0.1,0-0.1-0.1c0-0.1,0-0.1,0.1-0.1C26.2,8.4,26.3,8.4,26.3,8.5z M26.5,19.2c-0.1,0-0.1,0-0.1-0.1c0-0.1,0-0.1,0.1-0.2
				c0.1,0,0.1,0,0.1,0.1C26.6,19.2,26.6,19.2,26.5,19.2z M26.5,8.1C26.5,8.2,26.4,8.2,26.5,8.1C26.4,8.2,26.4,8.2,26.5,8.1
				C26.4,8.1,26.4,8.1,26.5,8.1C26.4,8.1,26.5,8.1,26.5,8.1z M26.6,9.1C26.6,9.1,26.6,9.2,26.6,9.1c-0.2,0.1-0.2,0.1-0.2,0
				c0-0.1,0-0.1,0.1-0.1C26.6,9,26.6,9,26.6,9.1z M26.8,19.2c0.1,0,0.1,0,0.1,0C27,19.2,26.9,19.3,26.8,19.2
				C26.9,19.3,26.9,19.3,26.8,19.2C26.8,19.3,26.8,19.2,26.8,19.2z M27.1,18.2c0.1-0.2,0.2-0.1,0.2,0c0,0.2,0,0.3,0,0.3
				c-0.1,0.1-0.1,0-0.2-0.1C27.1,18.3,27.1,18.3,27.1,18.2z M27.2,17c0.1,0,0.2,0.1,0.1,0.3c0,0.2-0.1,0.3-0.1,0.3
				c-0.1-0.2-0.1-0.3-0.1-0.4C27.1,17.1,27.1,17,27.2,17z M28.3,18.1c0,0.1,0,0.2-0.1,0.2c-0.1,0-0.1,0-0.1-0.1c0-0.1,0-0.1,0.1-0.1
				C28.3,18,28.3,18,28.3,18.1z M29.1,18.4c0.3,0.1,0.5,0.2,0.6,0.3c0.1,0.2,0.1,0.4,0,0.6c-0.1,0.2-0.2,0.4-0.3,0.7
				c-0.1,0.3-0.2,0.5-0.3,0.8c-0.2-0.1-0.5-0.3-0.6-0.6c-0.2-0.3-0.3-0.6-0.3-0.9c0-0.3,0-0.5,0.2-0.7
				C28.5,18.3,28.8,18.3,29.1,18.4z M28.3,20.6C28.3,20.6,28.3,20.6,28.3,20.6C28.3,20.6,28.3,20.6,28.3,20.6
				C28.3,20.7,28.3,20.7,28.3,20.6C28.3,20.7,28.3,20.7,28.3,20.6z M29.3,20.7c0-0.1,0-0.1,0.1-0.1c0.1,0,0.1,0.1,0.1,0.1
				C29.5,20.8,29.5,20.8,29.3,20.7C29.3,20.8,29.3,20.8,29.3,20.7z M30.7,6.8c0-0.2-0.1-0.5-0.3-0.9c-0.2-0.4-0.5-0.6-0.9-0.7
				c0,0.1,0.1,0.2,0.2,0.3C29.9,5.7,30,5.8,30.1,6c0.1,0.2,0.3,0.3,0.4,0.5C30.6,6.6,30.7,6.7,30.7,6.8z M30.7,22.1
				c-0.1-0.1,0-0.1,0-0.2c0.1,0,0.2,0,0.2,0c0,0.1,0,0.1-0.1,0.1C30.8,22.1,30.7,22.1,30.7,22.1z M30.8,21.2c0-0.2,0-0.5,0.2-0.8
				c0.1-0.3,0.3-0.3,0.5-0.1c0.2,0.2,0.1,0.3-0.1,0.4C31.1,20.8,30.9,21,30.8,21.2z M32.2,8.6C32.2,8.6,32.2,8.5,32.2,8.6
				C32.3,8.5,32.3,8.5,32.2,8.6L32.2,8.6z M32.4,8.2L32.4,8.2L32.4,8.2C32.5,8.2,32.5,8.2,32.4,8.2L32.4,8.2z M32.5,11.2
				c0-0.2,0-0.4,0-0.7c0-0.2-0.1-0.4-0.1-0.6c0.3,0.6,0.5,1.2,0.6,1.9c0.1,0.6,0.1,1.2,0.1,1.8c0,0.5-0.1,1-0.2,1.3
				c-0.1,0.3-0.2,0.5-0.4,0.5c0.1-0.7,0.2-1.4,0.2-2.2C32.8,12.5,32.7,11.8,32.5,11.2z M32.7,9.2c0,0.1,0,0.1-0.1,0.1
				c-0.1,0-0.1,0-0.1-0.1c0-0.1,0.1-0.1,0.1-0.1C32.6,9.1,32.7,9.1,32.7,9.2z M32.5,9.3C32.5,9.3,32.5,9.3,32.5,9.3L32.5,9.3z
				 M32.7,9.8c-0.1,0.1-0.1,0-0.1,0c0-0.1,0-0.2,0-0.2c0,0,0.1,0.1,0.1,0.1C32.8,9.7,32.7,9.8,32.7,9.8z M32.7,8.9
				C32.7,8.9,32.7,8.9,32.7,8.9C32.7,8.9,32.7,8.9,32.7,8.9L32.7,8.9z M33,10.2c0,0-0.1,0-0.1-0.1c0-0.1,0-0.2,0-0.2
				C33,10,33,10.1,33,10.2z M33,9.3L33,9.3C33,9.3,33,9.3,33,9.3C33,9.3,33,9.3,33,9.3z M33,9.5c0-0.1,0-0.1,0.1,0
				C33.1,9.6,33.1,9.6,33,9.5C33,9.6,33,9.6,33,9.5z"/>
		</g>
	</g>
	<g>
		<g>
			<circle class="st6" cx="32.5" cy="28.6" r="5.6"/>
		</g>
		<g>
			<circle class="st5" cx="39.5" cy="30.6" r="1.3"/>
		</g>
		<g>
			<circle class="st5" cx="38.4" cy="33.2" r="1.1"/>
		</g>
		<g>
			<circle class="st5" cx="36.4" cy="34.8" r="0.9"/>
		</g>
		<g>
			<circle class="st5" cx="34.2" cy="35.7" r="0.8"/>
		</g>
		<g>
			<circle class="st5" cx="32.1" cy="36" r="0.6"/>
		</g>
		<g>
			<path class="st0" d="M30.9,25.9c0-0.1,0.1-0.2,0.2-0.3l0.5-0.3c0,0,0.2-0.1,0.4-0.2c0.1,0,0.2,0,0.3,0h1c0.1,0,0.1,0,0.2,0.1
				s0.1,0.1,0.1,0.1v6.3c0,0.1-0.1,0.2-0.2,0.2c-0.4,0-0.8,0-1.1,0c-0.1,0-0.2,0-0.3-0.1c0-0.1,0-0.1,0-0.2c0-0.5,0-0.9,0-1.4
				c0-0.5,0-1,0-1.5c0-0.4,0-0.9,0-1.3c0-0.2,0-0.4,0-0.7c0,0-0.6,0.3-0.7,0.3c-0.2,0-0.2-0.2-0.2-0.3L30.9,25.9z"/>
		</g>
	</g>
</g>
</svg>
