<?xml version="1.0" encoding="utf-8"?>
<!-- Generator: Adobe Illustrator 22.0.1, SVG Export Plug-In . SVG Version: 6.00 Build 0)  -->
<svg version="1.1" id="Capa_1" xmlns="http://www.w3.org/2000/svg" xmlns:xlink="http://www.w3.org/1999/xlink" x="0px" y="0px"
	 viewBox="0 0 45 45" style="enable-background:new 0 0 45 45;" xml:space="preserve">
<style type="text/css">
	.st0{fill:#2F302C;}
	.st1{fill:#858585;}
	.st2{fill:#222222;}
	.st3{opacity:0.5;}
	.st4{fill:#262626;}
	.st5{fill:#A0E0D0;}
	.st6{fill:#F1F4EA;}
	.st7{fill:#2E2F2C;}
</style>
<title>logo-english</title>
<g>
	<g>
		<path class="st0" d="M20.5,40.6L6.6,26.7C5,25.1,5,22.6,6.6,21L20.5,7.1c1.6-1.6,4.2-1.6,5.7,0L40,21c1.6,1.6,1.6,4.2,0,5.7
			L26.2,40.6C24.6,42.2,22,42.2,20.5,40.6z"/>
	</g>
	<g>
		<path class="st1" d="M20,41.6c-0.3,0-0.5,0-0.8-0.1c-1.1-0.2-2-0.8-2.6-1.8l-11-16.2c-0.6-0.9-0.8-2-0.6-3.1
			c0.2-1.1,0.8-2,1.8-2.6L23,6.8c1.9-1.3,4.5-0.8,5.7,1.1l10.9,16.3c0.6,0.9,0.8,2,0.6,3.1s-0.8,2-1.8,2.6l-16.2,11
			C21.6,41.3,20.8,41.6,20,41.6z M25.3,6.3c-0.8,0-1.5,0.2-2.2,0.7L6.8,17.9c-0.9,0.6-1.5,1.5-1.7,2.5s0,2.1,0.6,3l10.9,16.3
			c0.6,0.9,1.5,1.5,2.5,1.7s2.1,0,3-0.6l16.3-10.9c0.9-0.6,1.5-1.5,1.7-2.5s0-2.1-0.6-3L28.6,8.1C27.8,6.9,26.6,6.3,25.3,6.3z"/>
	</g>
	<g>
		<path class="st2" d="M27.3,41.7c-0.2,0-0.4,0-0.6,0c-0.1,0-0.2-0.1-0.1-0.2c0-0.1,0.1-0.2,0.2-0.1c0.2,0,0.4,0,0.6,0
			c0.1,0,0.2,0.1,0.2,0.2c0,0.1-0.1,0.2-0.2,0.2C27.4,41.7,27.3,41.7,27.3,41.7z M28.1,41.6c-0.1,0-0.1-0.1-0.2-0.1
			c0-0.1,0-0.2,0.1-0.2c0.2,0,0.4-0.1,0.6-0.2c0.1,0,0.2,0,0.2,0.1s0,0.2-0.1,0.2C28.6,41.5,28.3,41.6,28.1,41.6L28.1,41.6z
			 M26.1,41.5C26,41.5,26,41.5,26.1,41.5c-0.3-0.1-0.5-0.2-0.7-0.3c-0.1,0-0.1-0.1-0.1-0.2c0-0.1,0.1-0.1,0.2-0.1
			c0.2,0.1,0.4,0.2,0.6,0.2c0.1,0,0.1,0.1,0.1,0.2C26.2,41.5,26.1,41.5,26.1,41.5z M29.3,41.1c-0.1,0-0.1,0-0.1-0.1s0-0.2,0.1-0.2
			c0.2-0.1,0.4-0.2,0.5-0.4c0.1-0.1,0.2,0,0.2,0c0.1,0.1,0,0.2,0,0.2C29.8,40.9,29.6,41,29.3,41.1C29.4,41.1,29.4,41.1,29.3,41.1z
			 M25.1,41C25,41,25,41,25.1,41l-0.7-0.4c-0.1-0.1-0.1-0.2,0-0.2c0.1-0.1,0.2-0.1,0.2,0l0.6,0.4c0.1,0.1,0.1,0.2,0,0.2H25.1z
			 M23.9,40.3L23.9,40.3l-0.7-0.4c-0.1-0.1-0.1-0.2,0-0.2c0.1-0.1,0.2-0.1,0.2,0L24,40c0.1,0.1,0.1,0.2,0,0.2
			C24,40.3,24,40.3,23.9,40.3z M30.4,40.3h-0.1c-0.1-0.1-0.1-0.2,0-0.2c0.1-0.1,0.2-0.3,0.3-0.4l0.1-0.1c0.1-0.1,0.2-0.1,0.2,0
			c0.1,0.1,0.1,0.2,0,0.2l-0.1,0.1c-0.1,0.2-0.2,0.3-0.3,0.4C30.4,40.2,30.4,40.3,30.4,40.3z M22.8,39.6
			C22.8,39.6,22.7,39.6,22.8,39.6l-0.7-0.4C22,39.1,22,39,22.1,39c0.1-0.1,0.2-0.1,0.2,0l0.6,0.4c0.1,0.1,0.1,0.2,0,0.2
			C22.9,39.5,22.9,39.6,22.8,39.6z M31.1,39.2C31.1,39.2,31.1,39.1,31.1,39.2c-0.2-0.1-0.2-0.2-0.1-0.3l0.4-0.6
			c0.1-0.1,0.2-0.1,0.2,0c0.1,0.1,0.1,0.2,0,0.2l-0.4,0.6C31.2,39.1,31.2,39.2,31.1,39.2z M21.7,38.8C21.6,38.8,21.6,38.8,21.7,38.8
			L21,38.4c-0.1-0.1-0.1-0.2,0-0.2c0.1-0.1,0.2-0.1,0.2,0l0.6,0.4c0.1,0.1,0.1,0.2,0,0.2C21.8,38.8,21.7,38.8,21.7,38.8z M20.5,38.1
			L20.5,38.1l-0.7-0.4c-0.1-0.1-0.1-0.2,0-0.2c0.1-0.1,0.2-0.1,0.2,0l0.6,0.4c0.1,0.1,0.1,0.2,0,0.2C20.6,38.1,20.6,38.1,20.5,38.1z
			 M31.9,38C31.8,38,31.8,38,31.9,38c-0.2-0.1-0.2-0.2-0.1-0.3l0.4-0.6c0.1-0.1,0.2-0.1,0.2,0c0.1,0.1,0.1,0.2,0,0.2L32,37.9
			C32,38,31.9,38,31.9,38z M19.4,37.4C19.4,37.4,19.3,37.3,19.4,37.4L18.7,37c-0.1-0.1-0.1-0.2,0-0.2c0.1-0.1,0.2-0.1,0.2,0l0.6,0.4
			c0.1,0.1,0.1,0.2,0,0.2C19.5,37.3,19.5,37.4,19.4,37.4z M32.6,36.9C32.6,36.9,32.5,36.9,32.6,36.9c-0.2-0.1-0.2-0.2-0.1-0.3
			l0.4-0.6H33c0.1,0.1,0.1,0.2,0,0.2L32.6,36.9C32.7,36.9,32.6,36.9,32.6,36.9z M18.3,36.6C18.2,36.6,18.2,36.6,18.3,36.6l-0.7-0.4
			c-0.1-0.1-0.1-0.2,0-0.2c0.1-0.1,0.2-0.1,0.2,0l0.6,0.4c0.1,0.1,0.1,0.2,0,0.2H18.3z M17.1,35.9L17.1,35.9l-0.7-0.4
			c-0.1-0.1-0.1-0.2,0-0.2c0.1-0.1,0.2-0.1,0.2,0l0.6,0.4c0.1,0.1,0.1,0.2,0,0.2C17.2,35.9,17.2,35.9,17.1,35.9z M33.3,35.8
			C33.3,35.8,33.3,35.7,33.3,35.8c-0.2-0.1-0.2-0.2-0.1-0.3l0.4-0.6c0.1-0.1,0.2-0.1,0.2,0c0.1,0.1,0.1,0.2,0,0.2l-0.4,0.6
			C33.4,35.7,33.4,35.8,33.3,35.8z M16,35.1C16,35.1,15.9,35.1,16,35.1l-0.7-0.4c-0.1-0.1-0.1-0.2,0-0.2c0.1-0.1,0.2-0.1,0.2,0
			l0.6,0.4c0.1,0.1,0.1,0.2,0,0.2C16.1,35.1,16.1,35.1,16,35.1z M34.1,34.6C34,34.6,34,34.6,34.1,34.6c-0.2-0.1-0.2-0.2-0.1-0.3
			l0.4-0.6c0.1-0.1,0.2-0.1,0.2,0c0.1,0.1,0.1,0.2,0,0.2l-0.4,0.6C34.2,34.6,34.1,34.6,34.1,34.6z M14.9,34.4
			C14.8,34.4,14.8,34.4,14.9,34.4L14.2,34c-0.1-0.1-0.1-0.2,0-0.2c0.1-0.1,0.2-0.1,0.2,0l0.6,0.4c0.1,0.1,0.1,0.2,0,0.2H14.9z
			 M13.7,33.7L13.7,33.7L13,33.3c0-0.1,0-0.2,0-0.3c0.1-0.1,0.2-0.1,0.2,0l0.6,0.4c0.1,0.1,0.1,0.2,0,0.2
			C13.8,33.6,13.8,33.7,13.7,33.7z M34.8,33.5C34.8,33.5,34.7,33.5,34.8,33.5c-0.2-0.1-0.2-0.2-0.1-0.3l0.4-0.6
			c0.1-0.1,0.2-0.1,0.2,0c0.1,0.1,0.1,0.2,0,0.2l-0.4,0.6C34.9,33.5,34.9,33.5,34.8,33.5z M12.6,32.9C12.6,32.9,12.5,32.9,12.6,32.9
			l-0.7-0.4c-0.1-0.1-0.1-0.2,0-0.2c0.1-0.1,0.2-0.1,0.2,0l0.6,0.4c0.1,0.1,0.1,0.2,0,0.2C12.7,32.9,12.6,32.9,12.6,32.9z
			 M35.5,32.3L35.5,32.3c-0.2-0.1-0.2-0.2-0.1-0.3l0.4-0.6c0.1-0.1,0.2-0.1,0.2,0c0.1,0.1,0.1,0.2,0,0.2l-0.4,0.6
			C35.6,32.3,35.6,32.3,35.5,32.3z M11.5,32.2C11.4,32.2,11.4,32.2,11.5,32.2l-0.7-0.4c-0.1-0.1-0.1-0.2,0-0.2
			c0.1-0.1,0.2-0.1,0.2,0l0.6,0.4c0.1,0.1,0.1,0.2,0,0.2H11.5z M10.3,31.5L10.3,31.5l-0.7-0.4c-0.1-0.1-0.1-0.2,0-0.2
			c0.1-0.1,0.2-0.1,0.2,0l0.6,0.4c0.1,0.1,0.1,0.2,0,0.2C10.4,31.4,10.4,31.5,10.3,31.5z M36.3,31.2C36.2,31.2,36.2,31.2,36.3,31.2
			c-0.2-0.1-0.2-0.2-0.1-0.3l0.4-0.6c0.1-0.1,0.2-0.1,0.2,0c0.1,0.1,0.1,0.2,0,0.2l-0.4,0.6C36.4,31.2,36.3,31.2,36.3,31.2z
			 M9.2,30.7C9.2,30.7,9.1,30.7,9.2,30.7l-0.7-0.4l0.1-0.1l0.1-0.1l0.6,0.4c0.1,0.1,0.1,0.2,0,0.2C9.3,30.7,9.2,30.7,9.2,30.7z
			 M37,30.1C37,30.1,36.9,30.1,37,30.1c-0.2-0.1-0.2-0.2-0.1-0.3l0.4-0.6c0.1-0.1,0.2-0.1,0.2,0s0.1,0.2,0,0.2L37.1,30
			C37.1,30.1,37.1,30.1,37,30.1z M8.1,30H8c-0.2-0.2-0.3-0.3-0.5-0.5c-0.1-0.1,0-0.2,0-0.2c0.1-0.1,0.2,0,0.2,0
			c0.1,0.2,0.3,0.3,0.4,0.5C8.2,29.9,8.2,30,8.1,30C8.2,29.9,8.1,30,8.1,30z M37.7,28.9L37.7,28.9c-0.2-0.1-0.2-0.2-0.1-0.3L38,28
			c0.1-0.1,0.2-0.1,0.2,0c0.1,0.1,0.1,0.2,0,0.2L37.7,28.9C37.8,28.9,37.8,28.9,37.7,28.9z M7.3,28.9c-0.1,0-0.1,0-0.1-0.1
			c-0.1-0.2-0.2-0.4-0.3-0.6c0-0.1,0-0.2,0.1-0.2s0.2,0,0.2,0.1c0.1,0.2,0.2,0.4,0.3,0.6C7.5,28.7,7.4,28.8,7.3,28.9L7.3,28.9z
			 M38.5,27.8C38.4,27.8,38.4,27.8,38.5,27.8c-0.2-0.1-0.2-0.2-0.1-0.3l0.4-0.6c0.1-0.1,0.2-0.1,0.2,0c0.1,0.1,0.1,0.2,0,0.2
			l-0.4,0.6C38.6,27.8,38.5,27.8,38.5,27.8z M6.8,27.6c-0.1,0-0.2-0.1-0.2-0.1c0-0.2-0.1-0.5-0.1-0.7c0-0.1,0.1-0.2,0.2-0.2l0,0
			c0.1,0,0.2,0.1,0.2,0.2C7,27,7,27.2,7,27.4C7,27.5,7,27.6,6.8,27.6C6.9,27.6,6.9,27.6,6.8,27.6z M39.2,26.7
			C39.2,26.7,39.1,26.7,39.2,26.7c-0.2-0.1-0.2-0.2-0.1-0.3l0.4-0.6c0.1-0.1,0.2-0.1,0.2,0c0.1,0.1,0.1,0.2,0,0.2l-0.4,0.6
			C39.3,26.7,39.3,26.7,39.2,26.7z M6.8,26.3L6.8,26.3c-0.1,0-0.2-0.1-0.2-0.2c0-0.2,0.1-0.5,0.2-0.7c0-0.1,0.1-0.1,0.2-0.1
			s0.1,0.1,0.1,0.2C7,25.7,7,25.9,6.9,26.1C7,26.2,6.9,26.3,6.8,26.3z M39.9,25.5L39.9,25.5c-0.2-0.1-0.2-0.2-0.1-0.3l0.4-0.6
			c0.1-0.1,0.2-0.1,0.2,0c0.1,0.1,0.1,0.2,0,0.2L40,25.4C40.1,25.5,40,25.5,39.9,25.5z M7.3,25C7.3,25,7.2,25,7.3,25
			c-0.2-0.1-0.2-0.2-0.1-0.3c0-0.1,0.1-0.2,0.1-0.2l0.2-0.3c0.1-0.1,0.2-0.1,0.2,0c0.1,0.1,0.1,0.2,0,0.2l-0.2,0.3
			C7.5,24.8,7.4,24.8,7.3,25C7.4,25,7.4,25,7.3,25z M40.7,24.4C40.6,24.4,40.6,24.4,40.7,24.4c-0.2-0.1-0.2-0.2-0.1-0.3l0.4-0.6
			c0.1-0.1,0.2-0.1,0.2,0c0.1,0.1,0.1,0.2,0,0.2l-0.4,0.6C40.8,24.4,40.7,24.4,40.7,24.4z M8,23.9L8,23.9c-0.2-0.1-0.2-0.2-0.1-0.3
			L8.3,23c0.1-0.1,0.2-0.1,0.2,0c0.1,0.1,0.1,0.2,0,0.2l-0.4,0.6C8.1,23.8,8.1,23.9,8,23.9z M41.4,23.3L41.4,23.3
			c-0.2-0.1-0.2-0.2-0.1-0.3c0.1-0.2,0.2-0.4,0.3-0.6c0-0.1,0.1-0.1,0.2-0.1c0.1,0,0.1,0.1,0.1,0.2c-0.1,0.2-0.2,0.4-0.3,0.6
			C41.5,23.2,41.5,23.3,41.4,23.3z M8.8,22.7C8.7,22.7,8.7,22.7,8.8,22.7c-0.2-0.1-0.2-0.2-0.1-0.3L9,21.9c0.1-0.1,0.2-0.1,0.2,0
			c0.1,0.1,0.1,0.2,0,0.2L8.8,22.7C8.9,22.7,8.8,22.7,8.8,22.7z M41.9,22L41.9,22c-0.1,0-0.2-0.1-0.2-0.2c0-0.2,0.1-0.4,0.1-0.6
			c0-0.1,0.1-0.2,0.2-0.2c0.1,0,0.2,0.1,0.2,0.2c0,0.2,0,0.5-0.1,0.7C42.1,22,42,22,41.9,22z M9.5,21.6C9.5,21.6,9.4,21.6,9.5,21.6
			c-0.2-0.1-0.2-0.2-0.1-0.3l0.4-0.6c0.1-0.1,0.2-0.1,0.2,0c0.1,0.1,0.1,0.2,0,0.2L9.5,21.6C9.6,21.6,9.6,21.6,9.5,21.6z M41.9,20.7
			c-0.1,0-0.2-0.1-0.2-0.1c0-0.2-0.1-0.4-0.1-0.6c0-0.1,0-0.2,0.1-0.2s0.2,0,0.2,0.1c0.1,0.2,0.1,0.5,0.1,0.7
			C42.1,20.6,42.1,20.7,41.9,20.7C42,20.7,42,20.7,41.9,20.7z M10.2,20.5C10.2,20.5,10.2,20.4,10.2,20.5c-0.2-0.1-0.2-0.2-0.1-0.3
			l0.4-0.6c0.1-0.1,0.2-0.1,0.2,0c0.1,0.1,0.1,0.2,0,0.2L10.2,20.5C10.3,20.4,10.3,20.5,10.2,20.5z M41.6,19.4c-0.1,0-0.1,0-0.2-0.1
			c-0.1-0.2-0.2-0.4-0.3-0.6c-0.1-0.1,0-0.2,0-0.2c0.1-0.1,0.2,0,0.2,0c0.1,0.2,0.3,0.4,0.4,0.6C41.8,19.2,41.7,19.3,41.6,19.4
			L41.6,19.4z M11,19.3C10.9,19.3,10.9,19.3,11,19.3c-0.2-0.1-0.2-0.2-0.1-0.3l0.4-0.6c0.1-0.1,0.2-0.1,0.2,0c0.1,0.1,0.1,0.2,0,0.2
			L11,19.3C11.1,19.3,11,19.3,11,19.3z M40.8,18.3L40.8,18.3c-0.3-0.2-0.4-0.3-0.6-0.4c-0.1-0.1-0.1-0.2,0-0.2
			c0.1-0.1,0.2-0.1,0.2,0c0.2,0.1,0.4,0.3,0.5,0.4s0.1,0.2,0,0.2H40.8z M11.7,18.2C11.7,18.2,11.6,18.2,11.7,18.2
			c-0.2-0.1-0.2-0.2-0.1-0.3l0.4-0.6c0.1-0.1,0.2-0.1,0.2,0c0.1,0.1,0.1,0.2,0,0.2L11.7,18.2C11.8,18.2,11.8,18.2,11.7,18.2z
			 M39.7,17.5C39.7,17.5,39.6,17.5,39.7,17.5L39,17.1c-0.1-0.1-0.1-0.2,0-0.2c0.1-0.1,0.2-0.1,0.2,0l0.6,0.4
			C39.9,17.4,39.9,17.5,39.7,17.5L39.7,17.5z M12.4,17.1C12.4,17.1,12.4,17,12.4,17.1c-0.2-0.1-0.2-0.2-0.1-0.3l0.4-0.6
			c0.1-0.1,0.2-0.1,0.2,0c0.1,0.1,0.1,0.2,0,0.2L12.6,17C12.5,17,12.5,17.1,12.4,17.1z M38.6,16.8C38.5,16.8,38.5,16.8,38.6,16.8
			l-0.7-0.4c-0.1-0.1-0.1-0.2,0-0.2c0.1-0.1,0.2-0.1,0.2,0l0.6,0.4C38.8,16.7,38.8,16.8,38.6,16.8C38.7,16.7,38.6,16.8,38.6,16.8z
			 M37.4,16L37.4,16l-0.7-0.4c-0.1-0.1-0.1-0.2,0-0.2c0.1-0.1,0.2-0.1,0.2,0l0.6,0.4C37.6,15.9,37.6,16,37.4,16
			C37.5,16,37.5,16,37.4,16z M13.2,15.9C13.1,15.9,13.1,15.9,13.2,15.9C13,15.8,13,15.7,13,15.7l0.4-0.6c0.1-0.1,0.2-0.1,0.2,0
			c0.1,0.1,0.1,0.2,0,0.2L13.2,15.9C13.3,15.9,13.2,15.9,13.2,15.9z M36.3,15.3C36.3,15.3,36.2,15.3,36.3,15.3l-0.7-0.4
			c-0.1-0.1-0.1-0.2,0-0.2c0.1-0.1,0.2-0.1,0.2,0l0.6,0.4C36.5,15.2,36.5,15.3,36.3,15.3C36.4,15.3,36.3,15.3,36.3,15.3z M13.9,14.8
			C13.9,14.8,13.8,14.8,13.9,14.8c-0.2-0.1-0.2-0.2-0.1-0.3l0.4-0.6c0.1-0.1,0.2-0.1,0.2,0c0.1,0.1,0.1,0.2,0,0.2L14,14.7
			C14,14.8,14,14.8,13.9,14.8z M35.2,14.6C35.1,14.6,35.1,14.6,35.2,14.6l-0.7-0.4c-0.1-0.1-0.1-0.2,0-0.2c0.1-0.1,0.2-0.1,0.2,0
			l0.6,0.4C35.4,14.5,35.4,14.6,35.2,14.6C35.3,14.5,35.2,14.6,35.2,14.6z M34,13.8L34,13.8l-0.7-0.4c-0.1-0.1-0.1-0.2,0-0.2
			c0.1-0.1,0.2-0.1,0.2,0l0.6,0.4C34.2,13.7,34.2,13.8,34,13.8C34.1,13.8,34.1,13.8,34,13.8z M14.6,13.7
			C14.6,13.7,14.6,13.6,14.6,13.7c-0.2-0.1-0.2-0.2-0.1-0.3l0.4-0.6c0.1-0.1,0.2-0.1,0.2,0c0.1,0.1,0.1,0.2,0,0.2l-0.4,0.6
			C14.8,13.6,14.7,13.7,14.6,13.7z M32.9,13.1C32.9,13.1,32.8,13.1,32.9,13.1l-0.7-0.4c-0.1-0.1-0.1-0.2,0-0.2
			c0.1-0.1,0.2-0.1,0.2,0l0.6,0.4C33.1,13,33.1,13.1,32.9,13.1L32.9,13.1z M15.4,12.5C15.3,12.5,15.3,12.5,15.4,12.5
			c-0.2-0.1-0.2-0.2-0.1-0.3l0.4-0.6c0.1-0.1,0.2-0.1,0.2,0c0.1,0.1,0.1,0.2,0,0.2l-0.4,0.6C15.5,12.5,15.4,12.5,15.4,12.5z
			 M31.7,12.4C31.7,12.4,31.7,12.3,31.7,12.4L31.1,12c-0.1-0.1-0.1-0.2,0-0.2c0.1-0.1,0.2-0.1,0.2,0l0.6,0.4c0.1,0.1,0.1,0.2,0,0.2
			C31.9,12.3,31.8,12.4,31.7,12.4z M30.6,11.6L30.6,11.6L30,11.2c-0.1-0.1-0.1-0.2,0-0.2c0.1-0.1,0.2-0.1,0.2,0l0.6,0.4
			c0.1,0.1,0.1,0.2,0,0.2C30.7,11.6,30.7,11.6,30.6,11.6z M16.1,11.4L16.1,11.4c-0.2-0.1-0.2-0.2-0.1-0.3l0.4-0.6
			c0.1-0.1,0.2-0.1,0.2,0c0.1,0.1,0.1,0.2,0,0.2l-0.4,0.6C16.2,11.4,16.2,11.4,16.1,11.4z M29.5,10.9C29.4,10.9,29.4,10.9,29.5,10.9
			l-0.7-0.4c-0.1-0.1-0.1-0.2,0-0.2c0.1-0.1,0.2-0.1,0.2,0l0.6,0.4c0.1,0.1,0.1,0.2,0,0.2H29.5z M16.9,10.3
			C16.8,10.3,16.8,10.2,16.9,10.3c-0.2-0.1-0.2-0.2-0.1-0.3l0.4-0.6c0.1-0.1,0.2-0.1,0.2,0c0.1,0.1,0.1,0.2,0,0.2L17,10.2L16.9,10.3
			z M28.3,10.1L28.3,10.1l-0.7-0.4c-0.1-0.1-0.1-0.2,0-0.2c0.1-0.1,0.2-0.1,0.2,0l0.6,0.4c0.1,0.1,0.1,0.2,0,0.2
			C28.5,10.1,28.4,10.1,28.3,10.1z M27.2,9.4L27.2,9.4L26.6,9c-0.1-0.1-0.1-0.2,0-0.2c0.1-0.1,0.2-0.1,0.2,0l0.6,0.4
			c0.1,0.1,0.1,0.2,0,0.2C27.3,9.4,27.3,9.4,27.2,9.4z M17.6,9.1C17.6,9.1,17.5,9.1,17.6,9.1c-0.2-0.1-0.2-0.2-0.1-0.3l0.4-0.6
			c0.1-0.1,0.2-0.1,0.2,0c0.1,0.1,0.1,0.2,0,0.2L17.7,9C17.7,9.1,17.6,9.1,17.6,9.1z M26.1,8.7C26,8.7,26,8.7,26.1,8.7l-0.7-0.4
			c-0.1-0.1-0.1-0.2,0-0.2c0.1-0.1,0.2-0.1,0.2,0l0.6,0.4c0.1,0.1,0.1,0.2,0,0.2C26.2,8.6,26.1,8.7,26.1,8.7z M18.3,8h-0.1
			c-0.1-0.1-0.1-0.2,0-0.2c0.1-0.2,0.3-0.4,0.5-0.5c0.1-0.1,0.2-0.1,0.2,0c0.1,0.1,0.1,0.2,0,0.2c-0.2,0.1-0.3,0.3-0.4,0.5
			C18.4,8,18.4,8,18.3,8z M24.9,7.9L24.9,7.9l-0.7-0.4c-0.1-0.1-0.1-0.2,0-0.2c0.1-0.1,0.2-0.1,0.2,0L25,7.6c0.1,0.1,0.1,0.2,0,0.2
			C25.1,7.9,25,7.9,24.9,7.9z M23.8,7.2C23.8,7.2,23.7,7.2,23.8,7.2l-0.2-0.1c-0.1-0.1-0.3-0.2-0.5-0.3C23,6.8,23,6.7,23,6.6
			s0.1-0.1,0.2-0.1c0.2,0.1,0.3,0.2,0.5,0.3l0.1,0.1C24,6.9,24,7,24,7.1C23.9,7.2,23.9,7.2,23.8,7.2z M19.3,7.1
			c-0.1,0-0.1,0-0.1-0.1s0-0.2,0.1-0.2c0.2-0.1,0.4-0.2,0.6-0.3c0.1,0,0.2,0,0.2,0.1s0,0.2-0.1,0.2C19.8,6.9,19.6,7,19.3,7.1
			C19.4,7.1,19.4,7.1,19.3,7.1z M22.6,6.6L22.6,6.6c-0.3-0.1-0.5-0.1-0.7-0.1c-0.1,0-0.2-0.1-0.2-0.2s0.1-0.2,0.2-0.2
			c0.2,0,0.5,0.1,0.7,0.1c0.1,0,0.1,0.1,0.1,0.2C22.7,6.6,22.7,6.6,22.6,6.6z M20.6,6.6c-0.1,0-0.1-0.1-0.2-0.1c0-0.1,0-0.2,0.1-0.2
			c0.2-0.1,0.5-0.1,0.7-0.1c0.1,0,0.2,0.1,0.2,0.2s-0.1,0.2-0.2,0.2C21.1,6.5,20.8,6.5,20.6,6.6L20.6,6.6z"/>
	</g>
	<g class="st3">
		<g>
			<path class="st4" d="M25.9,7.6c0.4-1.1,1-1.9,1.7-2.6c0.7-0.6,1.4-1.1,2.2-1.3c0.8-0.2,1.5-0.3,2.3-0.2c0.8,0.2,1.4,0.5,1.9,1
				s0.9,1.1,1.1,1.9c0.2,0.8,0.2,1.8-0.1,2.9c0,0.2-0.1,0.4-0.1,0.6c0,0.2-0.1,0.4-0.1,0.7c0,0.4-0.1,0.8-0.2,1.1
				c0,0.3-0.1,0.5-0.1,0.8s-0.1,0.4-0.1,0.5c-0.1,0.2-0.1,0.4-0.2,0.6c0,0.1-0.1,0.4-0.1,0.7c0,0.2,0,0.4-0.1,0.6
				c-0.1,0.2-0.2,0.4-0.2,0.4c0,0.2-0.1,0.4-0.1,0.5c0,0.2-0.1,0.3-0.2,0.4c0,0.2-0.1,0.6-0.3,1.2c-0.1,0.6-0.3,1.3-0.4,2
				c-0.2,0.7-0.3,1.3-0.4,1.9c-0.1,0.6-0.2,0.9-0.2,1.1c0,0.3-0.1,0.6-0.2,0.9c-0.1,0.4-0.1,0.6-0.2,0.8c-0.1,0.1-0.2,0.3-0.3,0.4
				c0,0.1-0.1,0.4-0.2,0.8s-0.3,0.9-0.4,1.4s-0.3,1-0.4,1.4c-0.1,0.5-0.2,0.8-0.2,0.9s-0.1,0.2-0.1,0.4c-0.1,0.2-0.1,0.4-0.2,0.6
				s-0.1,0.4-0.2,0.6s-0.1,0.3-0.1,0.4c-0.1,0.2-0.2,0.3-0.2,0.5c0,0.1,0,0.3,0,0.3s-0.1,0.1-0.2,0.1s-0.2,0.1-0.2,0.3
				c0,0.1,0,0.1,0,0.1s0,0.1,0,0.3S29,33,29,33.1s-0.1,0.3-0.1,0.4c-0.2,0.6-0.5,1.2-0.8,1.7s-0.7,1-1.1,1.4s-0.8,0.7-1.3,0.9
				s-0.9,0.3-1.4,0.3c0.4-0.1,0.8-0.4,1.2-0.8c0.4-0.4,0.7-0.8,0.9-1.3c0.3-0.5,0.5-1,0.7-1.4c0.2-0.5,0.3-0.9,0.4-1.3
				c-0.4,1-0.8,1.8-1.3,2.4c-0.5,0.7-1.1,1.2-1.6,1.5c-0.6,0.3-1.2,0.6-1.7,0.6c-0.6,0.1-1.2,0-1.7-0.1c0.6,0,1.1-0.2,1.7-0.6
				c0.5-0.3,1.1-0.9,1.6-1.7s1.1-1.9,1.6-3.3c0.5-1.4,1.1-3.1,1.6-5.3c-0.5-0.1-1-0.1-1.7-0.2c-0.6-0.1-1.3-0.1-2-0.1s-1.4,0-2.1,0
				s-1.3,0.1-1.8,0.2c0.2,0,0.4-0.1,0.6-0.1s0.4,0,0.5,0.1c0.1,0,0.3,0.1,0.4,0.1c0,0.1-0.1,0.2-0.2,0.3c-0.1,0.1-0.1,0.2-0.2,0.2
				c0,0.1,0,0.1,0,0.2c0,0,0,0,0,0.1c0,0-0.1,0.2-0.3,0.3c-0.1,0.2-0.2,0.3-0.2,0.3s0,0.1-0.1,0.3l-0.1,0.2c0,0-0.1,0.2-0.3,0.4
				c-0.1,0.2-0.3,0.4-0.4,0.5c0,0,0,0.1-0.1,0.1c0,0.1-0.1,0.2-0.1,0.3c0,0.1-0.1,0.2-0.1,0.3c0,0.1-0.1,0.1-0.1,0.2l-0.1,0.1
				c-0.1,0-0.1,0.1-0.1,0.1c-0.2,0.1-0.3,0.3-0.4,0.4s-0.2,0.2-0.3,0.3c-0.1,0.1-0.1,0.1-0.2,0.1c-0.4,0.7-0.9,1.2-1.4,1.6
				c-0.5,0.3-0.9,0.6-1.3,0.7c-0.1,0.1-0.2,0.2-0.4,0.3s-0.4,0.2-0.5,0.3c-0.2,0.1-0.4,0.2-0.5,0.2c-0.2,0-0.3,0.1-0.4,0
				c-0.8,0.4-1.6,0.7-2.5,0.8S9.5,35.2,8.7,35c-0.9-0.2-1.6-0.5-2.4-0.9c-0.7-0.4-1.3-1-1.8-1.7s-0.8-1.5-1-2.4s-0.1-1.9,0.2-3
				c0.1-0.1,0.1-0.3,0.2-0.4C4,26.4,4,26.2,4,26.2s0-0.2,0-0.3c0-0.2,0-0.3,0.1-0.4c0-0.3,0.2-0.6,0.4-0.8c0.2-0.3,0.4-0.4,0.4-0.5
				C5,24,5.1,23.8,5.3,23.6c0.1-0.2,0.3-0.3,0.4-0.4c0.2-0.2,0.4-0.4,0.5-0.5s0.2-0.2,0.3-0.1c0.1-0.1,0.2-0.2,0.3-0.3
				c0-0.1,0.1-0.2,0.3-0.3h0.1c0.1,0,0.1,0,0.1,0s0.1-0.1,0.1-0.2s0.1-0.2,0.2-0.2C8,21.4,8.4,21.2,8.9,21s1.1-0.3,1.7-0.4
				c0.6-0.1,1.2-0.1,1.7-0.1c0.6,0,1.1,0.1,1.7,0.3c-0.2,0-0.5,0-0.8-0.1c-0.3,0-0.7,0-1,0c-0.4,0-0.7,0.1-1.1,0.2
				c-0.4,0.1-0.7,0.2-1,0.4c0.4-0.1,1-0.3,1.6-0.3c0.6-0.1,1.3-0.1,1.9,0c0.6,0.1,1.3,0.2,1.9,0.4c0.6,0.2,1.1,0.5,1.4,1
				c-0.3-0.1-0.6-0.2-1-0.2s-0.8-0.1-1.3-0.1s-0.9,0-1.4,0.1s-0.9,0.1-1.3,0.2c0.4,0,0.8,0.1,1.2,0c0.4,0,0.9-0.1,1.3-0.1
				c0.4,0,0.9,0.1,1.3,0.2s0.8,0.4,1.2,0.8c-0.3-0.1-0.8-0.1-1.4,0.1s-1.3,0.4-2.1,0.5c0.2,0.1,0.5,0.1,0.9,0.1
				c0.4-0.1,0.7-0.2,0.9-0.3c-0.1,0.5-0.5,0.8-1.1,1.1c-0.6,0.2-1.5,0.3-2.7,0.3c-0.8,0-1.4,0.1-2,0.4S8.3,26.2,8,26.7
				c-0.4,0.5-0.6,1-0.7,1.6S7.2,29.5,7.4,30s0.5,1,1,1.4s1.1,0.6,2,0.7c1.4,0.1,2.7-0.3,3.9-1.2c1.2-0.9,2.3-2.2,3.4-4
				c-0.6,0.2-1.3,0.4-1.9,0.7c-0.6,0.3-1.1,0.6-1.6,1c0-0.1,0.1-0.2,0.2-0.4c0.1-0.2,0.2-0.3,0.3-0.4c-0.3,0.1-0.5,0.3-0.7,0.4
				s-0.3,0.2-0.5,0.3c-0.1,0.1-0.2,0.1-0.2,0.1c0-0.1,0.2-0.4,0.4-0.7c0.2-0.3,0.6-0.6,1-0.9c-0.2,0-0.4,0.1-0.6,0.3
				c-0.2,0.2-0.3,0.3-0.4,0.4c0.3-0.8,0.9-1.5,1.8-2.1s2.2-1.1,3.9-1.7c0,0,0.1-0.2,0.1-0.3c0-0.2,0.1-0.3,0.1-0.3
				c0-0.1,0.1-0.2,0.2-0.3c0.1-0.1,0.2-0.5,0.5-1.1c0-0.1,0.1-0.3,0.2-0.6c0.1-0.3,0.2-0.5,0.2-0.5c0-0.1,0.1-0.3,0.3-0.4
				c0.1-0.2,0.2-0.3,0.3-0.4c0,0,0-0.1,0.1-0.2c0-0.1,0-0.1,0.1-0.2c0-0.1,0-0.1,0-0.2c0,0,0.1-0.2,0.1-0.3c0-0.2,0.1-0.3,0.1-0.3
				s0.1-0.1,0.2-0.3c0.1-0.2,0.2-0.4,0.4-0.6c0.1-0.2,0.3-0.5,0.4-0.7s0.2-0.4,0.2-0.5c0,0,0-0.1,0-0.2s0-0.2,0.1-0.3
				c0-0.1,0.1-0.1,0.2-0.2s0.2-0.2,0.2-0.3c0.1-0.3,0.3-0.6,0.5-1s0.3-0.7,0.4-1s0.3-0.6,0.4-0.8s0.2-0.4,0.2-0.4
				c0-0.1,0.1-0.3,0.3-0.5c0.1-0.2,0.2-0.4,0.3-0.4c0,0,0-0.1,0-0.2s0-0.2,0-0.4c0-0.1,0.2-0.4,0.3-0.7c0.2-0.3,0.3-0.7,0.5-1
				s0.3-0.7,0.5-1C26.9,8,27,7.8,27.1,7.7c0.1-0.2,0.2-0.4,0.3-0.6c0.1-0.2,0.2-0.4,0.3-0.6c-0.1,0.1-0.3,0.2-0.4,0.3
				C27.2,6.9,27.1,7,27.1,7c0.1-0.3,0.2-0.6,0.4-0.9c-0.2,0.2-0.4,0.5-0.7,0.7C26.3,7.1,26.1,7.4,25.9,7.6z M11.9,20.3
				c-0.4-0.1-0.9-0.1-1.5,0s-1.3,0.3-2,0.6c-0.7,0.3-1.4,0.7-2.2,1.2c-0.7,0.5-1.4,1.2-2,2c0.5-0.9,1.2-1.6,2-2.2s1.6-1,2.4-1.3
				s1.5-0.5,2.1-0.5C11.3,20,11.7,20.1,11.9,20.3z M5.5,22.2c0,0-0.1,0.1-0.2,0C5.1,22.1,5,22.1,5,22s0-0.2,0.1-0.2s0.1,0,0.2-0.1
				c0.1,0,0.2,0.1,0.2,0.2C5.5,22,5.5,22.1,5.5,22.2z M5.5,21.5v0.1H5.4L5.5,21.5L5.5,21.5z M6.7,20.5c0.1,0.1,0.2,0.2,0.1,0.3
				c0,0.1-0.1,0.2-0.3,0.3c-0.1,0.1-0.3,0.2-0.4,0.3c-0.1,0.1-0.2,0.2-0.3,0.2c0-0.1,0-0.2,0-0.4c0-0.2,0.1-0.3,0.2-0.5
				c0.1-0.1,0.2-0.3,0.3-0.3C6.5,20.4,6.6,20.4,6.7,20.5z M6.4,29.8c-0.2,0.7-0.2,1.3,0.2,1.9c0.4,0.6,0.9,0.8,1.6,0.8
				c-0.3-0.1-0.6-0.3-0.9-0.5c-0.2-0.2-0.4-0.5-0.6-0.7c-0.1-0.3-0.3-0.5-0.3-0.8C6.4,30.2,6.4,30,6.4,29.8z M7,27.7
				c-0.2,0.6-0.3,1.2-0.4,1.7c0,0.6,0.1,1.1,0.3,1.5c0.2,0.4,0.5,0.8,0.9,1.1c0.4,0.3,1,0.4,1.7,0.5c-0.9-0.1-1.5-0.4-1.9-0.9
				c-0.4-0.4-0.7-0.9-0.8-1.4c-0.1-0.5-0.2-1-0.1-1.4C6.8,28.4,6.9,28,7,27.7z M11.6,29.5c0,0,0.1-0.1,0.2-0.2
				c0.1-0.1,0.1-0.1,0.2-0.1C11.8,29.5,11.7,29.6,11.6,29.5z M12.1,28.6L12,28.7c0,0-0.1,0-0.1-0.1v-0.1c0,0,0-0.1,0.1-0.1
				s0.2,0,0.2,0.1C12.2,28.4,12.2,28.5,12.1,28.6z M12.9,29c0,0.1-0.1,0.1-0.2,0.1c-0.1,0-0.1-0.1,0-0.1c0-0.1,0.1-0.1,0.2-0.1
				C12.9,28.9,12.9,28.9,12.9,29z M12.9,29.7c0,0,0,0.1-0.1,0.1s-0.1,0-0.1-0.1c0,0,0-0.1,0.1-0.1C12.8,29.7,12.9,29.7,12.9,29.7z
				 M13.1,28c0,0-0.1-0.1,0-0.1h0.1C13.3,27.9,13.3,28,13.1,28C13.2,28.1,13.1,28,13.1,28z M13.9,20.4c0,0-0.1,0.1-0.2,0.1
				c-0.1,0-0.2,0-0.2-0.1s0.1-0.2,0.2-0.2C13.9,20.2,13.9,20.3,13.9,20.4z M14.4,19c0.2,0,0.2,0,0.2,0.1s-0.2,0.1-0.3,0.1
				c-0.2,0-0.3,0-0.4,0.1c0.1-0.1,0.2-0.1,0.3-0.2S14.4,19,14.4,19z M15.5,19.5c0,0.1-0.1,0.2-0.3,0.3c-0.2,0.1-0.4,0-0.6-0.1
				c0.1-0.3,0.3-0.5,0.5-0.5C15.4,19.3,15.5,19.4,15.5,19.5z M16.5,21.4c-0.1,0.1-0.3,0.1-0.5,0.1c0-0.1,0.1-0.1,0.3-0.1
				C16.4,21.3,16.4,21.3,16.5,21.4z M17,21.7c0,0.1,0,0.2-0.2,0.1c-0.1,0-0.2-0.1-0.2-0.1c0-0.1,0.1-0.1,0.2-0.1
				C16.9,21.5,17,21.6,17,21.7z M16.7,22.9c0.1,0,0.2,0,0.3,0c0.1,0,0.2,0,0.2,0c0.2,0.1,0.3,0.2,0.2,0.3c-0.1,0.1-0.2,0.1-0.3,0.1
				L17,23.2l-0.1-0.1C16.8,23,16.7,22.9,16.7,22.9z M17.1,20.7v0.1H17c0,0-0.1-0.1,0-0.1C17,20.7,17,20.7,17.1,20.7z M19.2,24.8
				c0.8-0.2,1.7-0.3,2.6-0.4s1.8-0.1,2.7-0.2c0.9,0,1.6,0,2.3,0c0.7,0,1.2,0.1,1.4,0.1c0-0.1-0.4-0.2-1-0.3c-0.6-0.1-1.4-0.1-2.4,0
				c-0.9,0-1.9,0.1-2.9,0.2C20.9,24.4,20,24.6,19.2,24.8z M21.6,38.4c0.3-0.1,0.5-0.1,0.7,0c0.1,0.1,0.2,0.2,0.2,0.3
				c0,0.2-0.2,0.3-0.4,0.4c-0.2,0.1-0.4,0-0.7-0.1v-0.2C21.4,38.7,21.5,38.6,21.6,38.4z M22.1,27.4c0.1-0.1,0.3-0.2,0.5-0.2
				c0,0-0.1,0.1-0.1,0.2s-0.1,0.2-0.1,0.2C22.2,27.6,22.1,27.5,22.1,27.4z M26.7,28.1c-0.1,0.6-0.3,1.4-0.6,2.3
				c-0.3,0.9-0.6,1.8-1,2.7c-0.4,0.9-0.8,1.6-1.3,2.3s-0.9,1.1-1.4,1.2c0.3-0.1,0.6-0.5,1-1.2c0.4-0.6,0.8-1.3,1.2-2.2
				c0.4-0.8,0.8-1.7,1.2-2.6C26.1,29.7,26.4,28.8,26.7,28.1z M22.8,27.4C22.7,27.4,22.7,27.4,22.8,27.4c-0.1-0.1-0.1-0.1,0-0.1
				C22.8,27.3,22.8,27.3,22.8,27.4L22.8,27.4z M23.1,27.1c0,0.1-0.1,0.2-0.2,0.1c-0.1,0-0.2-0.1-0.2-0.1c0-0.1,0.1-0.2,0.2-0.2
				C23.1,26.9,23.1,26.9,23.1,27.1z M23.1,39.1c0,0,0.1,0.1,0.1,0.3s-0.1,0.2-0.2,0.2s-0.2-0.1-0.1-0.3C22.9,39.1,23,39.1,23.1,39.1
				z M31.9,10.1c0.2-0.8,0.2-1.4,0.1-1.9c-0.1-0.4-0.3-0.6-0.7-0.7c-0.3,0-0.7,0.2-1.1,0.6c-0.4,0.4-0.8,1-1.1,1.9
				c-0.2,0.4-0.4,0.8-0.5,1.1s-0.3,0.6-0.4,0.9c-0.1,0.3-0.2,0.6-0.4,0.9c-0.1,0.3-0.3,0.6-0.4,1.1c0,0.1-0.1,0.2-0.1,0.4
				s-0.1,0.4-0.2,0.6c-0.1,0.2-0.2,0.5-0.3,0.7c0,0-0.1,0.1-0.1,0.2s-0.1,0.2-0.2,0.3c0,0-0.1,0.1-0.1,0.3c-0.1,0.1-0.1,0.3-0.2,0.4
				c-0.1,0.2-0.2,0.3-0.3,0.5c-0.1,0.1-0.1,0.3-0.2,0.3v0.1v0.1c0,0-0.1,0.2-0.3,0.5c-0.1,0.3-0.3,0.7-0.5,1
				c-0.2,0.4-0.3,0.7-0.5,1.1c-0.1,0.3-0.2,0.6-0.2,0.6s0,0.1-0.1,0.2c0,0.1-0.1,0.2-0.1,0.3c0,0.1-0.1,0.2-0.1,0.4
				c0,0.1-0.1,0.2-0.1,0.2c0,0.1-0.2,0.2-0.4,0.5c-0.2,0.3-0.3,0.5-0.3,0.6S23,23.5,23,23.6c0.9-0.1,1.8-0.2,2.7-0.2
				c0.9,0,1.7,0.1,2.6,0.2c0,0,0-0.2,0.1-0.5s0.2-0.6,0.3-1c0.1-0.4,0.2-0.7,0.3-1c0.1-0.3,0.2-0.6,0.2-0.7s0-0.2-0.1-0.3
				c0-0.1,0-0.1,0-0.2s0.1-0.2,0.2-0.5s0.2-0.4,0.2-0.5c-0.1,0-0.1-0.1-0.1-0.2c0,0,0-0.2,0.1-0.5s0.2-0.7,0.3-1.2
				c0.1-0.5,0.3-1,0.4-1.5s0.3-1,0.4-1.5s0.3-0.9,0.4-1.2s0.2-0.5,0.2-0.5l0.2-0.2V12v-0.1c0,0,0.1-0.1,0.1-0.3
				c0-0.1,0.1-0.3,0.1-0.5c0.1-0.2,0.1-0.4,0.2-0.6C31.8,10.3,31.8,10.2,31.9,10.1z M23.2,38.5c0-0.2,0.2-0.3,0.4-0.4
				c0.2,0,0.3,0,0.4,0c-0.1,0-0.2,0.1-0.3,0.2C23.4,38.5,23.3,38.5,23.2,38.5z M23.9,38.5C23.9,38.5,23.8,38.4,23.9,38.5l0.1-0.1
				C24,38.5,24,38.5,23.9,38.5C24,38.6,23.9,38.6,23.9,38.5z M25.3,8.2c-0.1,0.2-0.2,0.3-0.4,0.3c-0.1,0-0.2,0-0.3,0
				c-0.1,0-0.1-0.1-0.2-0.2c0-0.1,0-0.2,0-0.3c0.1-0.1,0.2-0.2,0.3-0.3c0.1,0,0.2-0.1,0.3,0c0.1,0,0.2,0.1,0.2,0.2
				C25.4,7.9,25.4,8,25.3,8.2z M25,27.6c0,0.1-0.1,0.1-0.2,0s-0.1-0.1-0.2-0.2h0.1c0.1,0,0.2-0.1,0.3-0.1c0.1,0,0.2,0,0.1,0.1
				C25.1,27.4,25,27.5,25,27.6z M24.9,22.8L24.9,22.8C25,23,25,23,24.9,23h-0.1c-0.1,0-0.1,0,0-0.1C24.7,22.8,24.8,22.8,24.9,22.8
				L24.9,22.8z M25.2,21.9c0.1-0.1,0.1-0.2,0.2-0.2s0.1,0,0.2,0s0.1,0.1,0.1,0.2s0,0.2,0,0.3c0,0.1-0.1,0.1-0.2,0.2
				c-0.1,0-0.1,0.1-0.2,0.1s-0.1,0.1-0.2,0.1c0-0.1,0-0.2,0-0.3S25.2,22,25.2,21.9z M25.9,34.7c0.1-0.1,0.3-0.4,0.4-0.7
				s0.3-0.6,0.4-1s0.2-0.7,0.3-1.1c0.1-0.3,0.1-0.7,0.2-0.9c-0.2,0.6-0.4,1.3-0.7,2C26.4,33.8,26.1,34.4,25.9,34.7z M25.9,8.4
				c-0.1,0,0-0.2,0.1-0.4c0.2-0.2,0.3-0.4,0.4-0.5c0,0.1-0.1,0.3-0.3,0.6C26.1,8.3,26,8.4,25.9,8.4z M26.7,7.1L26.7,7.1
				c0,0.2-0.1,0.2-0.1,0.2c-0.1,0-0.1,0-0.1-0.1C26.4,7.1,26.5,7.1,26.7,7.1z M26.5,22.8v-0.1h0.1v0.1
				C26.6,22.8,26.6,22.8,26.5,22.8z M27.1,23.1c0-0.1,0-0.2,0.1-0.2s0.1,0,0.1,0.2c0,0.1,0,0.1-0.1,0.1S27.1,23.2,27.1,23.1z
				 M32.2,11c0.3-1,0.5-1.8,0.6-2.4c0-0.6,0-1-0.1-1.3s-0.3-0.4-0.5-0.4S31.8,7,31.6,7.1C32.4,7.1,32.7,8.4,32.2,11z M33,8.6
				c0.1-0.5,0.2-0.9,0.1-1.3c-0.1-0.4-0.3-0.6-0.7-0.6C32.9,6.9,33.1,7.6,33,8.6z"/>
		</g>
	</g>
	<g>
		<g>
			<path class="st5" d="M25.7,7.4c0.4-1.1,1-1.9,1.7-2.6c0.7-0.6,1.4-1.1,2.2-1.3c0.8-0.2,1.5-0.3,2.3-0.2c0.7,0.1,1.4,0.4,1.9,0.9
				s0.9,1.1,1.1,1.9c0.3,0.9,0.3,1.8,0,2.9c0,0.2-0.1,0.4-0.1,0.6c0,0.2-0.1,0.4-0.1,0.7c0,0.4-0.1,0.8-0.2,1.1
				c0,0.3-0.1,0.5-0.1,0.8s-0.1,0.4-0.1,0.5C34,12.9,34,13.1,34,13.2c0,0.1-0.1,0.4-0.1,0.7c0,0.2,0,0.4-0.1,0.6
				c-0.1,0.2-0.2,0.4-0.2,0.4c0,0.2-0.1,0.4-0.1,0.5c0,0.2-0.1,0.3-0.2,0.4c0,0.2-0.1,0.6-0.3,1.2c-0.1,0.6-0.3,1.3-0.4,2
				c-0.2,0.7-0.3,1.3-0.4,1.9S32,21.8,32,22c0,0.3-0.1,0.6-0.2,0.9c-0.1,0.4-0.1,0.6-0.2,0.8c-0.1,0.1-0.2,0.3-0.3,0.4
				c0,0.1-0.1,0.4-0.2,0.8s-0.3,0.9-0.4,1.4s-0.3,1-0.4,1.4c-0.1,0.5-0.2,0.8-0.2,0.9S30,28.8,30,29c-0.1,0.2-0.1,0.4-0.2,0.6
				s-0.1,0.4-0.2,0.6s-0.1,0.3-0.1,0.4c-0.1,0.2-0.2,0.3-0.2,0.5c0,0.1,0,0.3,0,0.3s-0.1,0.1-0.2,0.1s-0.2,0.1-0.2,0.3
				c0,0.1,0,0.1,0,0.1s0,0.1,0,0.3s-0.1,0.4-0.1,0.5s-0.1,0.3-0.1,0.4c-0.2,0.6-0.5,1.2-0.8,1.7s-0.7,1-1.1,1.4s-0.8,0.7-1.3,0.9
				s-0.9,0.3-1.4,0.3c0.4-0.1,0.8-0.4,1.2-0.8c0.4-0.4,0.7-0.8,0.9-1.3c0.3-0.5,0.5-1,0.7-1.4c0.2-0.5,0.3-0.9,0.4-1.3
				c-0.4,1-0.8,1.8-1.3,2.4c-0.5,0.7-1.1,1.2-1.6,1.5c-0.6,0.3-1.2,0.6-1.7,0.6c-0.6,0.1-1.2,0-1.7-0.1c0.6,0,1.1-0.2,1.7-0.6
				c0.5-0.3,1.1-0.9,1.6-1.7s1.1-1.9,1.6-3.3c0.5-1.4,1.1-3.1,1.6-5.3c-0.5-0.1-1-0.1-1.7-0.2c-0.6-0.1-1.3-0.1-2-0.1s-1.4,0-2.1,0
				s-1.3,0.1-1.8,0.2c0.2,0,0.4-0.1,0.6-0.1s0.4,0,0.5,0.1c0.1,0,0.3,0.1,0.4,0.1c0,0.1-0.1,0.2-0.2,0.3c-0.1,0.1-0.1,0.2-0.2,0.2
				c0,0.1,0,0.1,0,0.2c0,0,0,0,0,0.1c0,0-0.1,0.2-0.3,0.3c-0.1,0.2-0.2,0.3-0.2,0.3s0,0.1-0.1,0.3L20.3,28c0,0-0.1,0.2-0.3,0.4
				c-0.1,0.2-0.3,0.4-0.4,0.5c0,0,0,0.1-0.1,0.1c0,0.1-0.1,0.2-0.1,0.3c0,0.1-0.1,0.2-0.1,0.3c0,0.1-0.1,0.1-0.1,0.2l-0.1,0.1
				C19,29.9,19,30,19,30c-0.2,0.1-0.3,0.3-0.4,0.4s-0.2,0.2-0.3,0.3c-0.1,0.1-0.1,0.1-0.2,0.1c-0.4,0.7-0.9,1.2-1.4,1.6
				c-0.5,0.3-0.9,0.6-1.3,0.7c-0.1,0.1-0.2,0.2-0.4,0.3s-0.4,0.2-0.5,0.3c-0.2,0.1-0.4,0.2-0.5,0.2c-0.2,0-0.3,0.1-0.4,0
				c-0.8,0.4-1.6,0.7-2.5,0.8s-1.8,0.1-2.6-0.1c-0.9-0.2-1.6-0.5-2.4-0.9c-0.7-0.4-1.3-1-1.8-1.7s-0.8-1.5-1-2.4s-0.1-1.9,0.2-3
				c0.1-0.1,0.1-0.3,0.2-0.4c0.1-0.2,0.1-0.4,0.1-0.4s0-0.2,0-0.3c0-0.2,0-0.3,0.1-0.4c0-0.3,0.2-0.6,0.4-0.8
				c0.2-0.3,0.4-0.4,0.4-0.5c0.1-0.2,0.2-0.4,0.4-0.6c0.1-0.2,0.3-0.3,0.4-0.4c0.2-0.2,0.4-0.4,0.5-0.5s0.2-0.2,0.3-0.1
				c0.1-0.1,0.2-0.2,0.3-0.3c0-0.1,0.1-0.2,0.3-0.3H7c0.1,0,0.1,0,0.1,0s0.1-0.1,0.1-0.2s0.1-0.2,0.2-0.2c0.4-0.2,0.8-0.4,1.3-0.6
				s1.1-0.3,1.7-0.4c0.6-0.1,1.2-0.1,1.7-0.1c0.6,0,1.1,0.1,1.7,0.3c-0.2,0-0.5,0-0.8-0.1c-0.3,0-0.7,0-1,0c-0.4,0-0.7,0.1-1.1,0.2
				c-0.4,0.1-0.7,0.2-1,0.4c0.4-0.1,1-0.3,1.6-0.3c0.6-0.1,1.3-0.1,1.9,0c0.6,0.1,1.3,0.2,1.9,0.4c0.6,0.2,1.1,0.5,1.4,1
				c-0.3-0.1-0.6-0.2-1-0.2s-0.8-0.1-1.3-0.1s-0.9,0-1.4,0.1s-0.9,0.1-1.3,0.2c0.4,0,0.8,0.1,1.2,0c0.4,0,0.9-0.1,1.3-0.1
				c0.4,0,0.9,0.1,1.3,0.2c0.4,0.1,0.8,0.4,1.2,0.8c-0.3-0.1-0.8-0.1-1.4,0.1c-0.6,0.2-1.3,0.4-2.1,0.5c0.2,0.1,0.5,0.1,0.9,0.1
				c0.4-0.1,0.7-0.2,0.9-0.3c-0.1,0.5-0.5,0.8-1.1,1.1c-0.6,0.2-1.5,0.3-2.7,0.3c-0.8,0-1.4,0.1-2,0.4s-1.1,0.7-1.4,1.2
				c-0.4,0.5-0.6,1-0.7,1.6S7,29.1,7.2,29.6s0.5,1,1,1.4s1.1,0.6,2,0.7c1.4,0.1,2.7-0.3,3.9-1.2c1.2-0.9,2.3-2.2,3.4-4
				c-0.6,0.2-1.3,0.4-1.9,0.7c-0.6,0.3-1.1,0.6-1.6,1c0-0.1,0.1-0.2,0.2-0.4c0.1-0.2,0.2-0.3,0.3-0.4c-0.3,0.1-0.5,0.3-0.7,0.4
				s-0.3,0.2-0.5,0.3c-0.1,0.1-0.2,0.1-0.2,0.1c0-0.1,0.2-0.4,0.4-0.7c0.2-0.3,0.6-0.6,1-0.9c-0.2,0-0.4,0.1-0.6,0.3
				c-0.2,0.2-0.3,0.3-0.4,0.4c0.3-0.8,0.9-1.5,1.8-2.1s2.2-1.1,3.9-1.7c0,0,0.1-0.2,0.1-0.3c0-0.2,0.1-0.3,0.1-0.3
				c0-0.1,0.1-0.2,0.2-0.3c0.1-0.1,0.2-0.5,0.5-1.1c0-0.1,0.1-0.3,0.2-0.6c0.1-0.3,0.2-0.5,0.2-0.5c0-0.1,0.1-0.3,0.3-0.4
				c0.1-0.2,0.2-0.3,0.3-0.4c0,0,0-0.1,0.1-0.2c0-0.1,0-0.1,0.1-0.2c0-0.1,0-0.1,0-0.2c0,0,0.1-0.2,0.1-0.3c0-0.2,0.1-0.3,0.1-0.3
				s0.1-0.1,0.2-0.3c0.1-0.2,0.2-0.4,0.4-0.6c0.1-0.2,0.3-0.5,0.4-0.7s0.2-0.4,0.2-0.5c0,0,0-0.1,0-0.2s0-0.2,0.1-0.3
				c0-0.1,0.1-0.1,0.2-0.2c0.1-0.1,0.2-0.2,0.2-0.3c0.1-0.3,0.3-0.6,0.5-1s0.3-0.7,0.4-1s0.3-0.6,0.4-0.8s0.2-0.4,0.2-0.4
				c0-0.1,0.1-0.3,0.3-0.5c0.1-0.2,0.2-0.4,0.3-0.4c0,0,0-0.1,0-0.2s0-0.2,0-0.4c0-0.1,0.2-0.4,0.3-0.7c0.2-0.3,0.3-0.7,0.5-1
				s0.3-0.7,0.5-1c0.1-0.3,0.2-0.5,0.3-0.6c0.1-0.2,0.2-0.4,0.3-0.6c0.1-0.2,0.2-0.4,0.3-0.6c-0.1,0.1-0.3,0.2-0.4,0.3
				c-0.1,0.1-0.2,0.2-0.2,0.2C27,6.3,27.1,6,27.3,5.7c-0.2,0.2-0.4,0.5-0.7,0.7C26.1,6.9,25.9,7.1,25.7,7.4z M11.7,20.1
				c-0.4-0.1-0.9-0.1-1.5,0s-1.3,0.3-2,0.6C7.5,21,6.8,21.4,6,21.9c-0.7,0.5-1.4,1.2-2,2c0.5-0.9,1.2-1.6,2-2.2s1.6-1,2.4-1.3
				s1.5-0.5,2.1-0.5C11.1,19.8,11.5,19.9,11.7,20.1z M5.3,21.9c0,0-0.1,0.1-0.2,0c-0.1,0-0.2-0.1-0.2-0.2s0-0.2,0.1-0.2
				s0.1,0,0.2-0.1c0.1,0,0.2,0.1,0.2,0.2C5.3,21.8,5.3,21.9,5.3,21.9z M5.4,21.3v0.1H5.3L5.4,21.3C5.3,21.2,5.3,21.2,5.4,21.3z
				 M6.5,20.3c0.1,0.1,0.2,0.2,0.1,0.3c0,0.1-0.1,0.2-0.3,0.3c0,0.1-0.2,0.2-0.3,0.3s-0.2,0.2-0.3,0.2c0-0.1,0-0.2,0-0.4
				c0-0.2,0.1-0.3,0.2-0.5c0.1-0.1,0.2-0.3,0.3-0.3C6.3,20.1,6.4,20.2,6.5,20.3z M6.2,29.6C6,30.3,6,30.9,6.4,31.5
				C6.7,32,7.3,32.3,8,32.3c-0.3-0.1-0.6-0.3-0.9-0.5c-0.2-0.2-0.4-0.5-0.6-0.7c-0.1-0.3-0.3-0.5-0.3-0.8S6.2,29.8,6.2,29.6z
				 M6.8,27.5c-0.2,0.6-0.3,1.2-0.4,1.7c0,0.6,0.1,1.1,0.3,1.5c0.2,0.4,0.5,0.8,0.9,1.1c0.4,0.3,1,0.4,1.7,0.5
				c-0.9-0.1-1.5-0.4-1.9-0.9C7,31,6.7,30.6,6.6,30.1s-0.2-1-0.1-1.4C6.6,28.1,6.7,27.8,6.8,27.5z M11.4,29.3c0,0,0.1-0.1,0.2-0.2
				c0.1-0.1,0.1-0.1,0.2-0.1C11.7,29.3,11.5,29.4,11.4,29.3z M11.9,28.4l-0.1,0.1c0,0-0.1,0-0.1-0.1v-0.1c0,0,0-0.1,0.1-0.1
				s0.2,0,0.2,0.1C12,28.2,12,28.3,11.9,28.4z M12.7,28.7c0,0.1-0.1,0.1-0.2,0.1c-0.1,0-0.1-0.1,0-0.1c0-0.1,0.1-0.1,0.2-0.1V28.7z
				 M12.7,29.5c0,0,0,0.1-0.1,0.1s-0.1,0-0.1-0.1c0,0,0-0.1,0.1-0.1C12.6,29.4,12.7,29.5,12.7,29.5z M12.9,27.8c0,0-0.1-0.1,0-0.1
				H13C13.1,27.7,13.1,27.7,12.9,27.8C13,27.8,13,27.8,12.9,27.8z M13.8,20.1c0,0-0.1,0.1-0.2,0.1c-0.1,0-0.2,0-0.2-0.1
				s0.1-0.2,0.2-0.2C13.7,20,13.8,20,13.8,20.1z M14.2,18.7c0.2,0,0.2,0,0.2,0.1s-0.2,0.1-0.3,0.1c-0.2,0-0.3,0-0.4,0.1
				c0.1-0.1,0.2-0.1,0.3-0.2C14.1,18.8,14.2,18.7,14.2,18.7z M15.4,19.3c0,0.1-0.1,0.2-0.3,0.3c-0.2,0.1-0.4,0-0.6-0.1
				c0.1-0.3,0.3-0.5,0.5-0.5C15.2,19,15.3,19.1,15.4,19.3z M16.3,21.1c-0.1,0.1-0.3,0.1-0.5,0.1c0-0.1,0.1-0.1,0.3-0.1
				C16.2,21.1,16.3,21.1,16.3,21.1z M16.8,21.4c0,0.1,0,0.2-0.2,0.1c-0.1,0-0.2-0.1-0.2-0.1c0-0.1,0.1-0.1,0.2-0.1
				C16.7,21.3,16.8,21.3,16.8,21.4z M16.5,22.6c0.1,0,0.2,0,0.3,0c0.1,0,0.2,0,0.2,0c0.2,0.1,0.3,0.2,0.2,0.3C17.1,23,17,23,16.9,23
				l-0.1-0.1l-0.1-0.1C16.6,22.7,16.5,22.7,16.5,22.6z M16.9,20.5v0.1h-0.1c0,0-0.1-0.1,0-0.1C16.8,20.4,16.8,20.4,16.9,20.5z
				 M19,24.6c0.8-0.2,1.7-0.3,2.6-0.4s1.8-0.1,2.7-0.2c0.9,0,1.6,0,2.3,0c0.7,0,1.2,0.1,1.4,0.1c0-0.1-0.4-0.2-1-0.3
				c-0.6-0.1-1.4-0.1-2.4,0c-0.9,0-1.9,0.1-2.9,0.2C20.7,24.2,19.8,24.3,19,24.6z M21.4,38.2c0.3-0.1,0.5-0.1,0.7,0
				c0.1,0.1,0.2,0.2,0.2,0.3c0,0.2-0.2,0.3-0.4,0.4c-0.2,0.1-0.4,0-0.7-0.1v-0.2C21.2,38.5,21.3,38.3,21.4,38.2z M21.9,27.1
				c0.1-0.1,0.3-0.2,0.5-0.2c0,0-0.1,0.1-0.1,0.2s-0.1,0.2-0.1,0.2C22,27.4,21.9,27.3,21.9,27.1z M26.5,27.8
				c-0.1,0.6-0.3,1.4-0.6,2.3c-0.3,0.9-0.6,1.8-1,2.7s-0.8,1.6-1.3,2.3s-0.9,1.1-1.4,1.2c0.3-0.1,0.6-0.5,1-1.2
				c0.4-0.6,0.8-1.3,1.2-2.2c0.4-0.8,0.8-1.7,1.2-2.6C25.9,29.5,26.2,28.6,26.5,27.8z M22.6,27.2C22.5,27.2,22.5,27.2,22.6,27.2
				c-0.1-0.1-0.1-0.1,0-0.1C22.6,27.1,22.6,27.1,22.6,27.2L22.6,27.2z M22.9,26.8c0,0.1-0.1,0.2-0.2,0.1c-0.1,0-0.2-0.1-0.2-0.1
				c0-0.1,0.1-0.2,0.2-0.2C22.9,26.6,22.9,26.7,22.9,26.8z M22.9,38.9c0,0,0.1,0.1,0.1,0.3s-0.1,0.2-0.2,0.2s-0.2-0.1-0.1-0.3
				C22.7,38.9,22.8,38.9,22.9,38.9z M31.7,9.8C31.9,9,31.9,8.4,31.8,8c-0.1-0.4-0.3-0.6-0.7-0.7c-0.3,0-0.7,0.2-1.1,0.6
				s-0.8,1-1.1,1.9c-0.2,0.4-0.4,0.8-0.5,1.1s-0.3,0.6-0.4,0.9c-0.1,0.3-0.2,0.6-0.4,0.9c-0.1,0.3-0.3,0.6-0.4,1.1
				c0,0.1-0.1,0.2-0.1,0.4s-0.1,0.4-0.2,0.6c-0.1,0.2-0.2,0.5-0.3,0.7c0,0-0.1,0.1-0.1,0.2c0,0.1-0.1,0.2-0.2,0.3
				c0,0-0.1,0.1-0.1,0.3c-0.1,0.1-0.1,0.3-0.2,0.4c-0.1,0.2-0.2,0.3-0.3,0.5c-0.1,0.1-0.1,0.3-0.2,0.3v0.1v0.1c0,0-0.1,0.2-0.3,0.5
				c-0.1,0.3-0.3,0.7-0.5,1c-0.2,0.4-0.3,0.7-0.5,1.1c-0.1,0.3-0.2,0.6-0.2,0.6s0,0.1-0.1,0.2c0,0.1-0.1,0.2-0.1,0.3
				c0,0.1-0.1,0.2-0.1,0.4c0,0.1-0.1,0.2-0.1,0.2c0,0.1-0.2,0.2-0.4,0.5c-0.2,0.3-0.3,0.5-0.3,0.6s-0.1,0.2-0.1,0.3
				c0.9-0.1,1.8-0.2,2.7-0.2c0.9,0,1.7,0.1,2.6,0.2c0,0,0-0.2,0.1-0.5s0.2-0.6,0.3-1c0.1-0.4,0.2-0.7,0.3-1c0.1-0.3,0.2-0.6,0.2-0.7
				s0-0.2-0.1-0.3c0-0.1,0-0.1,0-0.2s0.1-0.2,0.2-0.5s0.2-0.4,0.2-0.5c-0.1,0-0.1-0.1-0.1-0.2c0,0,0-0.2,0.1-0.5s0.2-0.7,0.3-1.2
				c0.1-0.5,0.3-1,0.4-1.5s0.3-1,0.4-1.5s0.3-0.9,0.4-1.2C30.9,12.2,31,12,31,12l0.2-0.2v-0.1v-0.1c0,0,0.1-0.1,0.1-0.3
				c0-0.1,0.1-0.3,0.1-0.5c0.1-0.2,0.1-0.4,0.2-0.6C31.6,10.1,31.6,10,31.7,9.8z M23,38.2c0-0.2,0.2-0.3,0.4-0.4c0.2,0,0.3,0,0.4,0
				c-0.1,0-0.2,0.1-0.3,0.2C23.2,38.3,23.1,38.3,23,38.2z M23.7,38.3C23.7,38.3,23.6,38.2,23.7,38.3l0.1-0.1
				C23.9,38.3,23.8,38.3,23.7,38.3C23.8,38.3,23.7,38.3,23.7,38.3z M25.1,7.9c-0.1,0.2-0.2,0.3-0.4,0.3c-0.1,0-0.2,0-0.3,0
				c-0.1,0-0.1-0.1-0.2-0.2c0-0.1,0-0.2,0-0.3c0.1-0.1,0.2-0.2,0.3-0.3c0.1,0,0.2-0.1,0.3,0c0.1,0,0.2,0.1,0.2,0.2
				C25.2,7.7,25.2,7.8,25.1,7.9z M24.8,27.4c0,0.1-0.1,0.1-0.2,0s-0.1-0.1-0.2-0.2h0.1c0.1,0,0.2-0.1,0.3-0.1c0.1,0,0.2,0,0.1,0.1
				C24.9,27.2,24.9,27.3,24.8,27.4z M24.7,22.5L24.7,22.5c0.1,0.2,0.1,0.2,0,0.2h-0.1c-0.1,0-0.1,0,0-0.1
				C24.6,22.6,24.6,22.6,24.7,22.5L24.7,22.5z M25.1,21.7c0.1-0.1,0.1-0.2,0.2-0.2s0.1,0,0.2,0s0.1,0.1,0.1,0.2s0,0.2,0,0.3
				c0,0.1-0.1,0.1-0.2,0.2c-0.1,0-0.1,0.1-0.2,0.1s-0.1,0.1-0.2,0.1c0-0.1,0-0.2,0-0.3S25,21.7,25.1,21.7z M25.7,34.5
				c0.1-0.1,0.3-0.4,0.4-0.7s0.3-0.6,0.4-1s0.2-0.7,0.3-1.1c0.1-0.3,0.1-0.7,0.2-0.9c-0.2,0.6-0.4,1.3-0.7,2
				C26.2,33.6,25.9,34.1,25.7,34.5z M25.8,8.1c-0.1,0,0-0.2,0.1-0.4c0.2-0.2,0.3-0.4,0.4-0.5c0,0.1-0.1,0.3-0.3,0.6
				C25.9,8.1,25.8,8.2,25.8,8.1z M26.5,6.8L26.5,6.8C26.5,7,26.4,7,26.4,7c-0.1,0-0.1,0-0.1-0.1C26.3,6.9,26.3,6.8,26.5,6.8z
				 M26.3,22.5v-0.1h0.1v0.1C26.4,22.6,26.4,22.6,26.3,22.5z M26.9,22.9c0-0.1,0-0.2,0.1-0.2s0.1,0,0.1,0.2c0,0.1,0,0.1-0.1,0.1
				S26.9,23,26.9,22.9z M32,10.8c0.3-1,0.5-1.8,0.6-2.4c0-0.6,0-1-0.1-1.3S32.2,6.7,32,6.7s-0.4,0.1-0.6,0.2
				C32.2,6.9,32.5,8.2,32,10.8z M32.9,8.4c0.1-0.5,0.1-0.9,0-1.3s-0.3-0.6-0.7-0.6C32.7,6.7,32.9,7.3,32.9,8.4z"/>
		</g>
	</g>
	<g>
		<circle class="st6" cx="32.7" cy="29.4" r="5.2"/>
	</g>
	<g>
		<circle class="st5" cx="39.2" cy="31.3" r="1.2"/>
	</g>
	<g>
		<circle class="st5" cx="38.1" cy="33.7" r="1"/>
	</g>
	<g>
		<circle class="st5" cx="36.3" cy="35.2" r="0.9"/>
	</g>
	<g>
		<circle class="st5" cx="34.3" cy="36" r="0.7"/>
	</g>
	<g>
		<circle class="st5" cx="32.4" cy="36.3" r="0.5"/>
	</g>
	<g>
		<path class="st7" d="M31.3,26.7c0-0.1,0.1-0.2,0.2-0.3l0.5-0.3c0,0,0.2-0.1,0.4-0.2c0.1,0,0.2,0,0.3,0h1c0.1,0,0.1,0,0.2,0.1
			s0.1,0.1,0.1,0.1v6.3c0,0.1-0.1,0.2-0.2,0.2c-0.4,0-0.8,0-1.1,0c-0.1,0-0.2,0-0.3-0.1c0-0.1,0-0.1,0-0.2c0-0.5,0-0.9,0-1.4
			c0-0.5,0-1,0-1.5c0-0.4,0-0.9,0-1.3c0-0.2,0-0.4,0-0.7c0,0-0.6,0.3-0.7,0.3c-0.2,0-0.2-0.2-0.2-0.3L31.3,26.7z"/>
	</g>
</g>
</svg>
