<svg id="Capa_1" data-name="Capa 1" xmlns="http://www.w3.org/2000/svg" viewBox="0 0 40 40"><defs><style>.cls-1{fill:#6c938d;}</style></defs><title>menuModules</title><rect class="cls-1" x="6.58" y="16.56" width="6.89" height="6.89" rx="0.83" ry="0.83"/><rect class="cls-1" x="26.54" y="16.56" width="6.89" height="6.89" rx="0.83" ry="0.83"/><path class="cls-1" d="M22.61,6.71H17.39a.83.83,0,0,0-.83.83v5.22a.83.83,0,0,0,.83.83h5.22a.83.83,0,0,0,.83-.83V7.55a.83.83,0,0,0-.83-.83"/><path class="cls-1" d="M12.63,6.71H7.41a.83.83,0,0,0-.83.83v5.22a.83.83,0,0,0,.83.83h5.22a.83.83,0,0,0,.83-.83V7.55a.83.83,0,0,0-.83-.83"/><path class="cls-1" d="M32.59,6.71H27.37a.83.83,0,0,0-.83.83v5.22a.83.83,0,0,0,.83.83h5.22a.83.83,0,0,0,.83-.83V7.55a.83.83,0,0,0-.83-.83"/><path class="cls-1" d="M22.61,16.56H17.39a.83.83,0,0,0-.83.83v5.22a.83.83,0,0,0,.83.83h5.22a.83.83,0,0,0,.83-.83V17.39a.83.83,0,0,0-.83-.83"/><path class="cls-1" d="M22.61,26.4H17.39a.83.83,0,0,0-.83.83v5.22a.83.83,0,0,0,.83.83h5.22a.83.83,0,0,0,.83-.83V27.23a.83.83,0,0,0-.83-.83"/><rect class="cls-1" x="6.58" y="26.4" width="6.89" height="6.89" rx="0.83" ry="0.83"/><rect class="cls-1" x="26.54" y="26.4" width="6.89" height="6.89" rx="0.83" ry="0.83"/></svg>