<svg id="Capa_1" data-name="Capa 1" xmlns="http://www.w3.org/2000/svg" viewBox="0 0 40 40"><defs><style>.cls-1{fill:#6c938d;}</style></defs><title>burguerMenu</title><path class="cls-1" d="M31.57,8.09H8.43a.8.8,0,0,0-.8.8v3.55a.8.8,0,0,0,.8.8H31.57a.8.8,0,0,0,.8-.8V8.89a.8.8,0,0,0-.8-.8"/><path class="cls-1" d="M31.57,17.42H8.43a.8.8,0,0,0-.8.8v3.55a.8.8,0,0,0,.8.8H31.57a.8.8,0,0,0,.8-.8V18.22a.8.8,0,0,0-.8-.8"/><path class="cls-1" d="M31.57,26.75H8.43a.8.8,0,0,0-.8.8v3.55a.8.8,0,0,0,.8.8H31.57a.8.8,0,0,0,.8-.8V27.55a.8.8,0,0,0-.8-.8"/></svg>