<svg xmlns="http://www.w3.org/2000/svg" viewBox="0 0 925 40.48"><defs><style>.cls-1{fill:none;stroke:#e2812d;stroke-linecap:round;stroke-miterlimit:10;stroke-width:2px;}</style></defs><title>audioGraphic</title><g id="Capa_2" data-name="Capa 2"><g id="Capa_1-2" data-name="Capa 1"><path class="cls-1" d="M1,17.17H383.53a8.38,8.38,0,0,0,5.06-1.61L405.44,2.61a8.76,8.76,0,0,1,10.13,0L439.44,21a8.76,8.76,0,0,0,10.13,0l7.87-6.05a8.76,8.76,0,0,1,10.13,0l29.87,23a8.76,8.76,0,0,0,10.13,0l33.87-26a8.76,8.76,0,0,1,10.13,0l4.84,3.72a8.38,8.38,0,0,0,5.06,1.61H924"/></g></g></svg>