<svg id="Capa_1" data-name="Capa 1" xmlns="http://www.w3.org/2000/svg" viewBox="0 0 40 40"><defs><style>.cls-1{fill:none;stroke:#6c938d;stroke-miterlimit:10;stroke-width:1.5px;}.cls-2{fill:#6c938d;}</style></defs><title>ui-icon-translate</title><path class="cls-1" d="M22,30c.29-.33.54-.55.48-1L19.74,7.5A2.66,2.66,0,0,0,17.1,5.17H8A2.66,2.66,0,0,0,5.32,7.83V27.38A2.66,2.66,0,0,0,8,30Z"/><path class="cls-1" d="M32.91,10.54H20.12L22.43,29c.07.46-.19.68-.48,1-3.39,3.66-3,3.31-4.66,5.07a2.59,2.59,0,0,0,1.17.31H32.91a2.66,2.66,0,0,0,2.66-2.66V13.2A2.66,2.66,0,0,0,32.91,10.54Z"/><path class="cls-2" d="M15.11,12.14a.89.89,0,0,0-.87-.71H12.46a.89.89,0,0,0-.87.71L9.82,21a.89.89,0,1,0,1.74.35l.57-2.83h2.45l.57,2.83A.89.89,0,1,0,16.88,21Zm-2.62,4.61.71-3.55h.32l.71,3.55Z"/><path class="cls-2" d="M31.08,18.52H28.42v-.89a.89.89,0,1,0-1.77,0v.89H24a.89.89,0,0,0,0,1.77h.24a11.19,11.19,0,0,0,2.08,3.88c-.65.6-1.29,1.08-2,1.63a.89.89,0,0,0,1.11,1.38c.75-.59,1.4-1.09,2.1-1.74.71.65,1.35,1.14,2.1,1.74a.89.89,0,1,0,1.11-1.38c-.69-.55-1.33-1-2-1.63a11.19,11.19,0,0,0,2.08-3.88h.24a.89.89,0,0,0,0-1.77Zm-3.55,4.34a9.26,9.26,0,0,1-1.46-2.57H29A9.26,9.26,0,0,1,27.53,22.86Z"/><path class="cls-1" d="M15.45,30l.37,3a2.71,2.71,0,0,0,1.47,2C18.93,33.35,18.56,33.7,22,30Z"/></svg>