<svg id="Capa_1" data-name="Capa 1" xmlns="http://www.w3.org/2000/svg" viewBox="0 0 40 40"><defs><style>.cls-1{fill:#6c938d;}</style></defs><title>icon-listen</title><path class="cls-1" d="M10.26,20.94V32.57a1.26,1.26,0,0,0,2.51,0V20.94a1.26,1.26,0,0,0-2.51,0Zm0,0"/><path class="cls-1" d="M6.32,33.83H9.08V20c0-.06,0-.13,0-.2a10.73,10.73,0,1,1,21.46,0,1.49,1.49,0,0,0,0,.27V33.83h2.76a3.54,3.54,0,0,0,3.48-3.6V23a3.58,3.58,0,0,0-2.51-3.45,14.49,14.49,0,0,0-29,0A3.59,3.59,0,0,0,2.83,23v7.2a3.54,3.54,0,0,0,3.49,3.6Zm0,0"/><path class="cls-1" d="M26.9,20.94V32.57a1.25,1.25,0,0,0,2.51,0V20.94a1.25,1.25,0,0,0-2.51,0Zm0,0"/></svg>