<svg xmlns="http://www.w3.org/2000/svg" viewBox="0 0 22 22"><defs><style>.cls-1{fill:#fff;}.cls-2{fill:#c10c27;}</style></defs><title>ui-icon-btnWrong</title><g id="Capa_2" data-name="Capa 2"><g id="Capa_4" data-name="Capa 4"><path class="cls-1" d="M19.71,19.82c-3.36,2.77-14.29,3-17.39,0S-.76,5.5,2.32,2.42,17-1,19.71,2.42,23.07,17.05,19.71,19.82Z"/><path class="cls-2" d="M16.76,19.31c-3.08,1.75-11.91.44-14-2.44s-.46-11.94,2.44-14,12.25-.66,14,2.44S19.84,17.56,16.76,19.31Z"/><path class="cls-1" d="M7,14.37l.86.87a.82.82,0,0,0,1.16,0l1.88-1.86,1.86,1.88a.82.82,0,0,0,1.16,0l.87-.86a.82.82,0,0,0,0-1.16L13,11.38l1.88-1.86a.82.82,0,0,0,0-1.16L14,7.49a.82.82,0,0,0-1.16,0L11,9.34,9.1,7.46a.82.82,0,0,0-1.16,0l-.87.86a.82.82,0,0,0,0,1.16l1.86,1.88L7,13.21a.82.82,0,0,0,0,1.16Zm0,0"/><path class="cls-1" d="M7.35,14.3l.86.87a.82.82,0,0,0,1.16,0l1.88-1.86,1.86,1.88a.82.82,0,0,0,1.16,0l.87-.86a.82.82,0,0,0,0-1.16L13.3,11.31l1.88-1.86a.82.82,0,0,0,0-1.16l-.86-.87a.82.82,0,0,0-1.16,0L11.29,9.27,9.43,7.39a.82.82,0,0,0-1.16,0l-.87.86a.82.82,0,0,0,0,1.16l1.86,1.88L7.36,13.14a.82.82,0,0,0,0,1.16Zm0,0"/></g></g></svg>