<svg id="Capa_1" data-name="Capa 1" xmlns="http://www.w3.org/2000/svg" viewBox="0 0 40 40"><defs><style>.cls-1{fill:#6c938d;}</style></defs><title>icon-selfCheck</title><path class="cls-1" d="M6.1,27.5A.52.52,0,0,0,6.62,27a1.55,1.55,0,1,1,3.1,0,.52.52,0,0,0,1,0,2.59,2.59,0,1,0-5.17,0,.52.52,0,0,0,.52.51Zm0,0"/><path class="cls-1" d="M6.1,24.4a.52.52,0,0,0,.52-.52,1.55,1.55,0,1,1,3.1,0,.52.52,0,0,0,1,0,2.59,2.59,0,1,0-5.17,0,.52.52,0,0,0,.52.52Zm0,0"/><path class="cls-1" d="M6.1,21.3a.52.52,0,0,0,.52-.52,1.55,1.55,0,0,1,3.1,0,.52.52,0,0,0,1,0,2.59,2.59,0,1,0-5.17,0,.52.52,0,0,0,.52.52Zm0,0"/><path class="cls-1" d="M6.1,18.19a.52.52,0,0,0,.52-.52,1.55,1.55,0,0,1,3.1,0,.52.52,0,0,0,1,0,2.59,2.59,0,1,0-5.17,0,.52.52,0,0,0,.52.52Zm0,0"/><path class="cls-1" d="M6.62,14.57a1.55,1.55,0,1,1,3.1,0,.52.52,0,0,0,1,0,2.59,2.59,0,1,0-5.17,0,.52.52,0,0,0,1,0Zm0,0"/><path class="cls-1" d="M31.45,5.26H7.65V8.93a2.59,2.59,0,0,0-2.07,2.54.52.52,0,0,0,1,0,1.55,1.55,0,1,1,3.1,0,.52.52,0,0,0,1,0A2.59,2.59,0,0,0,8.69,8.93V6.3h4.65V34.23H8.69V30.6a.52.52,0,1,0-1,0v.94a1.55,1.55,0,1,1,2.07-1.46.52.52,0,0,0,1,0,2.59,2.59,0,1,0-3.1,2.54v2.64h23.8a2.07,2.07,0,0,0,2.07-2.07V7.33a2.07,2.07,0,0,0-2.07-2.07Zm-17.07,29V6.3H26.79V34.23Zm13.45,0V6.3h1.55V34.23Zm4.66-1a1,1,0,0,1-1,1h-1V6.3h1a1,1,0,0,1,1,1Zm0,0"/></svg>