<svg id="Capa_1" data-name="Capa 1" xmlns="http://www.w3.org/2000/svg" viewBox="0 0 40 40"><defs><style>.cls-1{fill:#6c938d;}</style></defs><title>ui-icon-activities</title><path class="cls-1" d="M35.59,4H4.41A.41.41,0,0,0,4,4.44V35.56a.41.41,0,0,0,.41.41H35.59a.41.41,0,0,0,.41-.41V4.44A.41.41,0,0,0,35.59,4Zm-15,1.17h14v14H31.21a3.73,3.73,0,0,0-2.87-5A3.51,3.51,0,0,0,24.52,16a3.74,3.74,0,0,0-.31,3.24H20.61v-4.5c0-.6-.74-.57-1-.43s-.44.24-.58.33a2.19,2.19,0,0,1-1.19.23,2.6,2.6,0,0,1-2.58-2.67,2.6,2.6,0,0,1,2.58-2.67A2.44,2.44,0,0,1,19,9.77a3.85,3.85,0,0,1,.58.38c.28.14,1,.16,1-.43Zm-15.23,14v-14h14V8.65a3.73,3.73,0,0,0-5,2.87,3.51,3.51,0,0,0,1.74,3.82,3.74,3.74,0,0,0,3.24.31v3.59h-4.5c-.6,0-.57.74-.43,1s.24.44.33.58A2.19,2.19,0,0,1,15,22a2.6,2.6,0,0,1-2.67,2.58A2.6,2.6,0,0,1,9.71,22a2.44,2.44,0,0,1,.23-1.19,3.85,3.85,0,0,1,.38-.58c.14-.28.16-1-.43-1Zm14,15.37h-14v-14H8.82a3.73,3.73,0,0,0,2.87,5,3.51,3.51,0,0,0,3.82-1.74,3.74,3.74,0,0,0,.31-3.24h3.59v4.5c0,.6.74.57,1,.43s.44-.24.58-.33A2.19,2.19,0,0,1,22.21,25a2.67,2.67,0,0,1,0,5.33A2.44,2.44,0,0,1,21,30.07a3.85,3.85,0,0,1-.58-.38c-.28-.14-1-.16-1,.43Zm15.23-14v14h-14V31.18a3.73,3.73,0,0,0,5-2.87,3.51,3.51,0,0,0-1.74-3.82,3.74,3.74,0,0,0-3.24-.31V20.58h4.5c.6,0,.57-.74.43-1s-.24-.44-.33-.58A2.19,2.19,0,0,1,25,17.8a2.67,2.67,0,0,1,5.33,0A2.44,2.44,0,0,1,30.09,19a3.85,3.85,0,0,1-.38.58c-.14.28-.16,1,.43,1Z"/></svg>