<svg id="Capa_1" data-name="Capa 1" xmlns="http://www.w3.org/2000/svg" viewBox="0 0 40 40"><defs><style>.cls-1{fill:#6c938d;}</style></defs><title>icon-userProfile</title><path class="cls-1" d="M36.5,20A16.5,16.5,0,1,0,8.86,32.16h0l.53.45.11.08c.28.23.58.46.88.67l.29.21c.32.22.65.43,1,.63l.22.13c.37.21.74.41,1.13.59l.09,0a16.61,16.61,0,0,0,4,1.26l.11,0q.65.11,1.32.18l.16,0c.44,0,.89.06,1.34.06s.89,0,1.33-.06h.17c.44,0,.88-.1,1.31-.17l.11,0A16.26,16.26,0,0,0,26.85,35l.14-.06c.37-.18.73-.36,1.09-.56l.26-.15c.32-.19.64-.39.95-.6l.33-.23c.26-.19.52-.38.77-.59l.17-.13.55-.46h0A16.45,16.45,0,0,0,36.5,20ZM4.7,20A15.3,15.3,0,1,1,30.15,31.44a4.34,4.34,0,0,0-.54-.32l-5.08-2.54a1.33,1.33,0,0,1-.74-1.2V25.6c.12-.14.24-.31.37-.49A12.17,12.17,0,0,0,25.73,22a2.18,2.18,0,0,0,1.25-2V17.94a2.2,2.2,0,0,0-.53-1.42v-2.8a4.85,4.85,0,0,0-1.13-3.52c-1.1-1.26-2.9-1.9-5.32-1.9s-4.22.64-5.32,1.9a4.85,4.85,0,0,0-1.13,3.52v2.8A2.19,2.19,0,0,0,13,17.94v2.13a2.18,2.18,0,0,0,.8,1.69,11.18,11.18,0,0,0,1.86,3.83v1.74a1.34,1.34,0,0,1-.7,1.18l-4.75,2.59a4.18,4.18,0,0,0-.45.29A15.27,15.27,0,0,1,4.7,20ZM29,32.38l-.64.44L28,33c-.28.18-.57.34-.87.5l-.19.1a15.25,15.25,0,0,1-2.09.89l-.08,0c-.37.13-.76.23-1.14.33h0c-.39.1-.78.18-1.18.24h0c-.37.06-.75.1-1.12.14l-.2,0c-.37,0-.75,0-1.12,0s-.76,0-1.14,0h-.2c-.38,0-.76-.08-1.13-.14h0a15.57,15.57,0,0,1-2.34-.58l-.07,0c-.38-.13-.75-.27-1.12-.43h0c-.35-.15-.69-.31-1-.49l-.13-.07c-.31-.16-.61-.34-.9-.52l-.26-.17c-.27-.18-.54-.36-.8-.56l-.08-.06.06,0,4.75-2.59a2.54,2.54,0,0,0,1.32-2.23V25.17L16.74,25a10,10,0,0,1-1.8-3.73L14.88,21l-.21-.13a1,1,0,0,1-.46-.83V17.94a1,1,0,0,1,.33-.74l.2-.18V13.61A3.62,3.62,0,0,1,15.58,11C16.45,10,17.94,9.5,20,9.5s3.54.5,4.41,1.48a3.68,3.68,0,0,1,.85,2.63V17l.2.18a1,1,0,0,1,.33.73v2.13a1,1,0,0,1-.71.95l-.3.09-.1.3a11.12,11.12,0,0,1-1.5,3c-.16.22-.31.42-.44.57l-.15.17v2.22A2.53,2.53,0,0,0,24,29.65l5.08,2.54.1,0-.19.14Zm0,0"/></svg>