<svg id="Capa_1" data-name="Capa 1" xmlns="http://www.w3.org/2000/svg" viewBox="0 0 40 40"><defs><style>.cls-1{fill:#6c938d;}</style></defs><title>icon-ui-icon-</title><path class="cls-1" d="M33.91,5.65H6.09a.59.59,0,0,0-.59.58V33.77a.59.59,0,0,0,.59.58H29.74a.58.58,0,1,0,0-1.17H6.68V6.81H33.32v27a.59.59,0,0,0,1.18,0V6.23a.59.59,0,0,0-.59-.58"/><path class="cls-1" d="M12,15A1.07,1.07,0,1,1,13.06,14,1.08,1.08,0,0,1,12,15m0-3.31A2.24,2.24,0,1,0,14.24,14,2.25,2.25,0,0,0,12,11.72"/><path class="cls-1" d="M29.78,13.38H16a.58.58,0,1,0,0,1.17H29.78a.58.58,0,1,0,0-1.17"/><path class="cls-1" d="M12,17.76a.58.58,0,1,0,0,1.17A1.07,1.07,0,1,1,10.89,20a.59.59,0,0,0-1.18,0A2.26,2.26,0,1,0,12,17.76"/><path class="cls-1" d="M29.78,19.42H16a.58.58,0,1,0,0,1.17H29.78a.58.58,0,1,0,0-1.17"/><path class="cls-1" d="M12,27.11A1.07,1.07,0,1,1,13.06,26,1.08,1.08,0,0,1,12,27.11m0-3.31A2.24,2.24,0,1,0,14.24,26,2.25,2.25,0,0,0,12,23.8"/><path class="cls-1" d="M29.78,25.45H16a.58.58,0,1,0,0,1.17H29.78a.58.58,0,1,0,0-1.17"/></svg>