<svg id="Capa_1" data-name="Capa 1" xmlns="http://www.w3.org/2000/svg" viewBox="0 0 40 40"><defs><style>.cls-1{fill:#6c938d;}</style></defs><title>ui-icon-colombia</title><path class="cls-1" d="M26.5,37a1,1,0,0,1-.55-.25l-.14-.1a1.42,1.42,0,0,1-1-.8,1.18,1.18,0,0,1,.32-1.07c.55-.68.5-.94.47-1s-.33-.32-1.32-.39a8.42,8.42,0,0,0-1.59.07l-.6.06a2.55,2.55,0,0,1-2.54-1.2c-1.82-2.45-3.65-4.09-6.68-4.16-1.47,0-3-1.34-4.1-2.29a1.21,1.21,0,0,1-.47-1c0-.79.86-1.44,1.22-1.71l.58-.42c.68-.47,1.39-1,1.36-1.54a19.6,19.6,0,0,1,0-2.1,8.66,8.66,0,0,0-.48-4.2c-.55-1.2.46-3.11,1.37-3.86.21-.17.42-.32.63-.47a3.56,3.56,0,0,0,1.86-2.48c.23-1.92,2-2.41,3.31-2.62a6.62,6.62,0,0,0,4-1.89A1.81,1.81,0,0,1,23.56,3a1.25,1.25,0,0,1,.93.68,1,1,0,0,1,.15.89,1.27,1.27,0,0,1-.87.65,2,2,0,0,0-.33.14C21.07,6.86,20.52,8.69,21.76,11a2.9,2.9,0,0,0,.17.27,1.48,1.48,0,0,1,.35,1.22,1.19,1.19,0,0,0,.1,1c.21.26.67.37,1.41.35a4.5,4.5,0,0,1,3.91,1.47c.44.48,1,.44,2,.33a5,5,0,0,1,2.22.09l.43.15-.24.39c-1.3,2-.67,3.95,0,6,.14.42.28.85.4,1.28a1.23,1.23,0,0,1,0,.86.84.84,0,0,1-.58.39l-.35.13a7.66,7.66,0,0,1-2.76.51l-.69,0-.34.07c.57.73.14,1.49-.18,2.07-.46.82-.7,1.35,0,2.08,1.14,1.24.55,3.1,0,4.9a17.59,17.59,0,0,0-.5,1.81.79.79,0,0,1-.41.62A.51.51,0,0,1,26.5,37Zm-2.6-4.35.44,0c.8.06,1.66.21,1.92.83.2.46,0,1-.58,1.74-.17.21-.21.35-.19.41s.08.17.55.32h0a1.28,1.28,0,0,1,.33.2h0a18.92,18.92,0,0,1,.52-1.86c.5-1.6,1-3.26.17-4.2C26,29,26.6,28,27,27.21s.58-1.1-.06-1.55l0,0-.19-.15.07-.24c.06-.19.22-.27.6-.39a3.91,3.91,0,0,1,.69-.16l.71,0a7,7,0,0,0,2.51-.46c.17-.07.3-.11.42-.15l.14,0a2.2,2.2,0,0,0-.07-.33c-.12-.41-.26-.84-.39-1.25-.64-2-1.31-4-.17-6.14a5.92,5.92,0,0,0-1.47,0,2.77,2.77,0,0,1-2.6-.56,3.82,3.82,0,0,0-3.36-1.23,2.46,2.46,0,0,1-2-.62,1.84,1.84,0,0,1-.25-1.64c0-.23,0-.39-.24-.66a3.47,3.47,0,0,1-.21-.34,4.67,4.67,0,0,1-.58-3.63,5.42,5.42,0,0,1,2.5-2.91,2.46,2.46,0,0,1,.47-.21c.13,0,.41-.15.44-.22s0-.11-.1-.28-.34-.31-.4-.32a1.1,1.1,0,0,0-.81.39,7.39,7.39,0,0,1-4.38,2.1c-1.76.28-2.57.87-2.71,2a4.24,4.24,0,0,1-2.15,3l-.6.45c-.81.66-1.52,2.23-1.17,3a9.34,9.34,0,0,1,.55,4.54,19.06,19.06,0,0,0,0,2c.06,1-.85,1.61-1.66,2.17l-.55.4c-.23.18-.92.71-.94,1.16a.49.49,0,0,0,.22.4c1,.88,2.43,2.09,3.64,2.12,3.52.08,5.56,2.19,7.25,4.45a1.84,1.84,0,0,0,1.9.91l.58-.06A12.15,12.15,0,0,1,23.91,32.66Z"/></svg>