<svg id="Capa_1" data-name="Capa 1" xmlns="http://www.w3.org/2000/svg" viewBox="0 0 40 40"><defs><style>.cls-1{fill:#6c938d;}</style></defs><title>download</title><path class="cls-1" d="M14.33,24a.64.64,0,0,0-.51,1l2.93,3.88,3.2,4.23a.64.64,0,0,0,1,0l3.2-4.23L27.1,25a.64.64,0,0,0-.51-1H24.06a.64.64,0,0,1-.64-.64V16.76a.64.64,0,0,0-.64-.64H18.21a.64.64,0,0,0-.64.64v6.58a.64.64,0,0,1-.64.64Z"/><path class="cls-1" d="M32,16.32a11.12,11.12,0,0,0-2.84,0H29.1a.61.61,0,0,1-.09-1.2A11.72,11.72,0,0,1,31.5,15a9.16,9.16,0,0,0-9-8.42A9.62,9.62,0,0,0,15,10.34a3.89,3.89,0,0,1,1.61,3.49.61.61,0,1,1-1.21,0,2.91,2.91,0,0,0-1.61-2.89,4.49,4.49,0,0,0-.43-.24l-.13-.06a3.9,3.9,0,0,0-.51-.19l-.06,0-.48-.11-.14,0a3.94,3.94,0,0,0-.56,0,4.25,4.25,0,0,0-4.25,4.24c0,.05,0,.1,0,.15v.22c0,.08,0,.16,0,.23v.38l-.35.17A7.2,7.2,0,0,0,3,21.87a6.59,6.59,0,0,0,6.58,6.57h5.25l-2.07-2.73a2,2,0,0,1-.1-2.22c.36-.59,1-.58,1.72-.58h1.79V16a1.2,1.2,0,0,1,1.2-1.19H23.5A1.16,1.16,0,0,1,24.66,16v7h1.86c.69,0,1.36,0,1.73.58a1.94,1.94,0,0,1-.1,2.21l-2.07,2.73h4.82A6.09,6.09,0,0,0,37,22.37,6.22,6.22,0,0,0,32,16.32Z"/></svg>