<svg id="Capa_1" data-name="Capa 1" xmlns="http://www.w3.org/2000/svg" viewBox="0 0 40 40"><defs><style>.cls-1{fill:#6c938d;}</style></defs><title>icon-send</title><path class="cls-1" d="M21.28,20.69a.77.77,0,0,0,.13-.17L24.17,23a.74.74,0,0,0,1,0l2.81-2.39.09.11,6.47,6.47H14.81Zm14.27,5.42-6.47-6.47h0l4.86-4.13a.74.74,0,1,0-1-1.13l-8.31,7L15,12.85H35.55Zm.88,2.51h.17l0,0,0,0,0,0,0,0,0,0,0,0h0l0,0,0,0,0,0,0,0,0,0,0,0V28s0,0,0-.07V12.11a.74.74,0,0,0-.74-.74H12.72l0,0,0,0,0,0,0,0,0,0,0,0,0,0,0,0h0l0,0,0,0,0,0,0,0,0,0V12a.28.28,0,0,0,0,0v0h0v4.55a.74.74,0,0,0,1.48,0V13.75l6.57,5.81-.1.08-6.47,6.47V21.26a.74.74,0,0,0-1.48,0v.9H8.47a.74.74,0,1,0,0,1.48h3.82v4.26a.74.74,0,0,0,.74.74H36.43"/><path class="cls-1" d="M3.71,19.78H16.18a.74.74,0,0,0,0-1.48H3.71a.74.74,0,1,0,0,1.48"/><path class="cls-1" d="M5,15.71h5.6a.74.74,0,0,0,0-1.48H5a.74.74,0,1,0,0,1.48"/><path class="cls-1" d="M9.13,25.28H3.71a.74.74,0,0,0,0,1.48H9.13a.74.74,0,0,0,0-1.48"/></svg>