<svg xmlns="http://www.w3.org/2000/svg" viewBox="0 0 22 22"><defs><style>.cls-1{fill:#fdee67;}.cls-2{fill:#fbc02d;}.cls-3{fill:#907537;}.cls-4{fill:#fff;}</style></defs><title>ui-icon-btnQuestion</title><g id="Capa_2" data-name="Capa 2"><g id="Capa_4" data-name="Capa 4"><path class="cls-1" d="M19.71,19.82c-3.36,2.77-14.29,3-17.39,0S-.76,5.5,2.32,2.42,17-1,19.71,2.42,23.07,17.05,19.71,19.82Z"/><path class="cls-2" d="M16.76,19.31c-3.08,1.75-11.91.44-14-2.44s-.46-11.93,2.44-14,12.25-.66,14,2.44S19.84,17.56,16.76,19.31Z"/><path class="cls-3" d="M10.55,5.83c1.79,0,3.56.83,3.56,2.8,0,1.82-2.09,2.52-2.54,3.18-.34.49-.22,1.18-1.15,1.18a.89.89,0,0,1-.9-.94c0-1.67,2.45-2,2.45-3.42,0-.76-.5-1.2-1.35-1.2-1.79,0-1.09,1.85-2.45,1.85a.84.84,0,0,1-.91-.86c0-1.37,1.57-2.59,3.28-2.59Zm-.07,8.07A1.15,1.15,0,1,1,9.33,15a1.15,1.15,0,0,1,1.15-1.15Zm0,0"/><path class="cls-4" d="M10.8,5.83c1.79,0,3.56.83,3.56,2.8,0,1.82-2.09,2.52-2.54,3.18-.34.49-.22,1.18-1.15,1.18a.89.89,0,0,1-.9-.94c0-1.67,2.45-2,2.45-3.42,0-.76-.5-1.2-1.35-1.2-1.79,0-1.09,1.85-2.45,1.85a.84.84,0,0,1-.91-.86C7.52,7,9.09,5.83,10.8,5.83Zm-.07,8.07A1.15,1.15,0,1,1,9.58,15a1.15,1.15,0,0,1,1.15-1.15Zm0,0"/></g></g></svg>