<svg id="Capa_1" data-name="Capa 1" xmlns="http://www.w3.org/2000/svg" viewBox="0 0 40 40"><defs><style>.cls-1{fill:#6c938d;}</style></defs><title>icon-upload</title><path class="cls-1" d="M31.73,16.35a11.12,11.12,0,0,0-2.84,0h-.09a.61.61,0,0,1-.09-1.2,11.72,11.72,0,0,1,2.48-.08,9.16,9.16,0,0,0-9-8.42,9.62,9.62,0,0,0-7.46,3.71,5.44,5.44,0,0,1,1.94,4.16.61.61,0,1,1-1.21,0A4.25,4.25,0,0,0,13.49,11a4.49,4.49,0,0,0-.43-.24l-.13-.06a3.9,3.9,0,0,0-.51-.19l-.06,0-.48-.11-.14,0a3.94,3.94,0,0,0-.56,0,4.25,4.25,0,0,0-4.25,4.24c0,.05,0,.1,0,.15v.22c0,.08,0,.16,0,.23v.38l-.35.17a7.2,7.2,0,0,0-3.9,6.21,6.59,6.59,0,0,0,6.58,6.57h6.59V26.85H14a2,2,0,0,1-1.56-3.13l6.13-8.11a2,2,0,0,1,3.12,0l6.13,8.11a2,2,0,0,1-1.56,3.13H24.35v1.62H30.6a6.09,6.09,0,0,0,6.09-6.08,6.22,6.22,0,0,0-5-6.05"/><path class="cls-1" d="M26.28,25.54a.64.64,0,0,0,.51-1l-2.93-3.88-3.2-4.23a.64.64,0,0,0-1,0l-3.2,4.23-2.93,3.88a.64.64,0,0,0,.51,1h2.53a.64.64,0,0,1,.64.64v6.58a.64.64,0,0,0,.64.64H22.4a.64.64,0,0,0,.64-.64V26.18a.64.64,0,0,1,.64-.64Z"/></svg>