<svg xmlns="http://www.w3.org/2000/svg" viewBox="0 0 22 22"><defs><style>.cls-1{fill:#8cc63f;}.cls-2{fill:#6ba80b;}.cls-3{fill:#4b7920;}.cls-4{fill:#fff;}</style></defs><title>ui-icon-btnCheck</title><g id="Capa_2" data-name="Capa 2"><g id="Capa_4" data-name="Capa 4"><path class="cls-1" d="M19.71,19.82c-3.36,2.77-14.29,3-17.39,0S-.76,5.5,2.32,2.42,17-1,19.71,2.42,23.07,17.05,19.71,19.82Z"/><path class="cls-2" d="M16.76,19.31c-3.08,1.75-11.91.44-14-2.44s-.46-11.94,2.44-14,12.25-.66,14,2.44S19.84,17.56,16.76,19.31Z"/><path class="cls-3" d="M16,8.69l-.85-.85a.6.6,0,0,0-.85,0L10.2,11.94,8.37,10.1a.6.6,0,0,0-.85,0l-.85.85a.6.6,0,0,0,0,.85L8.93,14l.85.85a.6.6,0,0,0,.85,0l.85-.85L16,9.54a.6.6,0,0,0,0-.85Zm0,0"/><path class="cls-4" d="M16.3,8.69l-.85-.85a.6.6,0,0,0-.85,0l-4.09,4.09L8.69,10.1a.6.6,0,0,0-.85,0L7,10.94a.6.6,0,0,0,0,.85L9.25,14l.85.85a.6.6,0,0,0,.85,0L11.8,14,16.3,9.54a.6.6,0,0,0,0-.85Zm0,0"/></g></g></svg>