<svg id="Capa_1" data-name="Capa 1" xmlns="http://www.w3.org/2000/svg" viewBox="0 0 40 40"><defs><style>.cls-1{fill:#6c938d;}</style></defs><title>icon-record</title><path class="cls-1" d="M28.81,19.41a.59.59,0,0,0-.59.59v3.52a8.22,8.22,0,0,1-16.44,0V20a.59.59,0,0,0-1.18,0v3.52a9.39,9.39,0,0,0,8.81,9.35v3H16.48a.58.58,0,1,0,0,1.17h7a.58.58,0,1,0,0-1.17H20.59v-3a9.39,9.39,0,0,0,8.81-9.35V20a.59.59,0,0,0-.59-.59"/><path class="cls-1" d="M20,30a6.46,6.46,0,0,0,6.46-6.45V9.45a6.46,6.46,0,0,0-12.92,0V23.52A6.46,6.46,0,0,0,20,30"/></svg>