<svg id="Capa_1" data-name="Capa 1" xmlns="http://www.w3.org/2000/svg" viewBox="0 0 40 40"><defs><style>.cls-1{fill:#6c938d;}</style></defs><title>ui-iconhelp</title><path class="cls-1" d="M27.45,14.15a5.1,5.1,0,0,1-2,4.11c-.78.62-1.6,1.19-2.4,1.77a3.45,3.45,0,0,0-1.5,3,2,2,0,0,1-1,1.9,2.24,2.24,0,0,1-2.33,0,1.77,1.77,0,0,1-.94-1.56,6.84,6.84,0,0,1,2.62-5.73c.8-.66,1.59-1.33,2.34-2a2.3,2.3,0,0,0,.66-2.17,2.15,2.15,0,0,0-2.14-1.73,4.43,4.43,0,0,0-4.45,2,2,2,0,0,1-2.22.83A1.75,1.75,0,0,1,12.56,13a2.92,2.92,0,0,1,.26-1.43,6,6,0,0,1,2.79-2.85,9.79,9.79,0,0,1,4.23-1.19,8.65,8.65,0,0,1,4.49.95,6.15,6.15,0,0,1,3.13,5.62"/><path class="cls-1" d="M16.79,30c.08-1.82,1-2.68,2.74-2.6a2.26,2.26,0,0,1,2.32,2.57,2.31,2.31,0,0,1-2.66,2.5A2.28,2.28,0,0,1,16.79,30"/></svg>