<svg id="Capa_1" data-name="Capa 1" xmlns="http://www.w3.org/2000/svg" viewBox="0 0 40 40"><defs><style>.cls-1{fill:#6c938d;}</style></defs><title>icon-close</title><path class="cls-1" d="M33.94,28,27.41,21.5a2.12,2.12,0,0,1,0-3L33.94,12a2.12,2.12,0,0,0,0-3L30.59,5.62a2.12,2.12,0,0,0-3,0l-6.53,6.53a2.12,2.12,0,0,1-3,0L11.53,5.62a2.12,2.12,0,0,0-3,0L5.18,9a2.12,2.12,0,0,0,0,3l6.53,6.53a2.12,2.12,0,0,1,0,3L5.18,28a2.12,2.12,0,0,0,0,3l3.35,3.36a2.12,2.12,0,0,0,3,0l6.53-6.53a2.12,2.12,0,0,1,3,0l6.53,6.53a2.12,2.12,0,0,0,3,0L33.94,31A2.12,2.12,0,0,0,33.94,28Zm1.5,1.5"/></svg>